{
.appVersion = "1141";
classes = (
{
automatic = 1;
code = "A B C D E F G H I J K L M N O P Q R S T U V W X Y Z Agrave Aacute Acircumflex Atilde Amacron Abreve Adieresis Aring Aogonek AE Cacute Ccircumflex Cdotaccent Ccaron Ccedilla Dcaron Dcroat Egrave Eacute Ecircumflex Emacron Ebreve Edotaccent Edieresis Ecaron Eogonek Gcircumflex Gbreve Gdotaccent Gcommaaccent Hcircumflex Hbar Igrave Iacute Icircumflex Itilde Imacron Ibreve Idotaccent Idieresis Iogonek IJ Jcircumflex Kcommaaccent Lacute Lcommaaccent Lcaron Ldot Lslash Nacute Ntilde Ncaron Eng Ncommaaccent Ograve Oacute Ocircumflex Otilde Omacron Obreve Odieresis Ohungarumlaut Oslash OE Racute Rcaron Rcommaaccent Sacute Scircumflex Scaron Scommaaccent Scedilla Germandbls Tcaron Tcommaaccent Tcedilla Tbar Ugrave Uacute Ucircumflex Utilde Umacron Ubreve Udieresis Uring Uhungarumlaut Uogonek Wgrave Wacute Wcircumflex Wdieresis Ygrave Yacute Ycircumflex Ydieresis Zacute Zdotaccent Zcaron Eth Thorn Germandbls.c2sc Q.ss02";
name = Uppercase;
}
);
copyright = "Copyright (c) 2011 by Anna Giedrys. All rights reserved. Reserved Font Name: Signika.";
customParameters = (
{
name = trademark;
value = "Signika Light is a trademark of Anna Giedrys.";
},
{
name = openTypeOS2Type;
value = (
2
);
},
{
name = glyphOrder;
value = (
.notdef,
NULL,
CR,
space,
nbspace,
A,
B,
C,
D,
E,
F,
G,
H,
I,
J,
K,
L,
M,
N,
O,
P,
Q,
R,
S,
T,
U,
V,
W,
X,
Y,
Z,
a,
b,
c,
d,
e,
f,
g,
h,
i,
j,
k,
l,
m,
n,
o,
p,
q,
r,
s,
t,
u,
v,
w,
x,
y,
z,
a.smcp,
b.smcp,
c.smcp,
d.smcp,
e.smcp,
f.smcp,
g.smcp,
h.smcp,
i.smcp,
j.smcp,
k.smcp,
l.smcp,
m.smcp,
n.smcp,
o.smcp,
p.smcp,
q.smcp,
r.smcp,
s.smcp,
t.smcp,
u.smcp,
v.smcp,
w.smcp,
x.smcp,
y.smcp,
z.smcp,
quotesingle,
quotedbl,
numbersign,
ampersand,
asterisk,
comma,
hyphen,
hyphen.case,
softhyphen,
period,
colon,
semicolon,
question,
exclam,
questiondown,
exclamdown,
at,
parenleft,
parenright,
bracketleft,
bracketright,
braceleft,
braceright,
backslash,
slash,
brokenbar,
bar,
asciicircum,
underscore,
asciitilde,

glyphs = (
{
glyphname = A;
lastChange = "2014-06-06 07:55:32 +0000";
layers = (
{
anchors = (
{
name = bottom_U;
position = "{297, -20}";
},
{
name = top_U;
position = "{297, 732}";
}
);
layerId = UUID0;
paths = (
{
closed = 1;
nodes = (
"27 4 LINE",
"29 1 LINE",
"40 -2 OFFCURVE",
"49 -4 OFFCURVE",
"64 -4 CURVE SMOOTH",
"75 -4 OFFCURVE",
"87 -3 OFFCURVE",
"96 -1 CURVE",
"257 489 LINE SMOOTH",
"265 514 OFFCURVE",
"280 566 OFFCURVE",
"290 604 CURVE",
"295 604 LINE",
"307 560 OFFCURVE",
"326 498 OFFCURVE",
"346 439 CURVE SMOOTH",
"481 31 LINE SMOOTH",
"491 2 OFFCURVE",
"501 -6 OFFCURVE",
"524 -6 CURVE SMOOTH",
"542 -6 OFFCURVE",
"556 -3 OFFCURVE",
"567 4 CURVE",
"337 683 LINE",
"329 685 OFFCURVE",
"309 686 OFFCURVE",
"298 686 CURVE SMOOTH",
"286 686 OFFCURVE",
"267 685 OFFCURVE",
"256 683 CURVE"
);
},
{
closed = 1;
nodes = (
"360 179 LINE SMOOTH",
"366 179 OFFCURVE",
"431 180 OFFCURVE",
"438 180 CURVE",
"465 180 LINE",
"444 242 LINE",
"420 242 LINE",
"413 242 OFFCURVE",
"358 243 OFFCURVE",
"352 243 CURVE SMOOTH",
"235 243 LINE SMOOTH",
"229 243 OFFCURVE",
"176 242 OFFCURVE",
"169 242 CURVE",
"145 242 LINE",
"122 180 LINE",
"149 180 LINE",
"156 180 OFFCURVE",
"220 179 OFFCURVE",
"226 179 CURVE SMOOTH"
);
}
);
width = 594;
},
{
anchors = (
{
name = bottom_U;
position = "{324, -20}";
},
{
name = top_U;
position = "{324, 732}";
}
);
layerId = UUID1;
paths = (
{
closed = 1;
nodes = (
"7 13 LINE",
"13 4 LINE",
"32 -3 OFFCURVE",
"69 -7 OFFCURVE",
"94 -7 CURVE SMOOTH",
"120 -7 OFFCURVE",
"144 -6 OFFCURVE",
"165 -1 CURVE",
"262 334 LINE SMOOTH",
"278 391 OFFCURVE",
"302 474 OFFCURVE",
"312 531 CURVE",
"318 531 LINE",
"335 463 OFFCURVE",
"358 378 OFFCURVE",
"373 322 CURVE SMOOTH",
"439 82 LINE SMOOTH",
"459 10 OFFCURVE",
"486 -9 OFFCURVE",
"539 -9 CURVE SMOOTH",
"570 -9 OFFCURVE",
"612 -2 OFFCURVE",
"635 11 CURVE",
"421 682 LINE",
"394 687 OFFCURVE",
"351 689 OFFCURVE",
"324 689 CURVE SMOOTH",
"296 689 OFFCURVE",
"254 687 OFFCURVE",
"227 683 CURVE"
);
},
{
closed = 1;
nodes = (
"386 140 LINE SMOOTH",
"401 140 OFFCURVE",
"420 141 OFFCURVE",
"435 141 CURVE",
"524 141 LINE",
"482 271 LINE",
"401 271 LINE",
"386 271 OFFCURVE",
"367 272 OFFCURVE",
"352 272 CURVE SMOOTH",
"283 272 LINE SMOOTH",
"268 272 OFFCURVE",
"249 271 OFFCURVE",
"234 271 CURVE",
"156 271 LINE",
"105 141 LINE",
"194 141 LINE",
"209 141 OFFCURVE",
"228 140 OFFCURVE",
"243 140 CURVE SMOOTH"
);
}
);
width = 642;
}
);
leftKerningGroup = A;
rightKerningGroup = A;
unicode = 0041;
},
{
glyphname = B;
lastChange = "2014-06-06 07:55:32 +0000";
layers = (
{
anchors = (
{
name = bottom_U;
position = "{295, -20}";
},
{
name = top_U;
position = "{278, 732}";
}
);
layerId = UUID0;
paths = (
{
closed = 1;
nodes = (
"100 677 LINE",
"100 6 LINE",
"106 0 LINE",
"175 -1 OFFCURVE",
"227 -3 OFFCURVE",
"310 -3 CURVE SMOOTH",
"485 -3 OFFCURVE",
"541 95 OFFCURVE",
"541 188 CURVE SMOOTH",
"541 295 OFFCURVE",
"455 369 OFFCURVE",
"371 369 CURVE",
"371 355 LINE",
"455 364 OFFCURVE",
"508 428 OFFCURVE",
"508 506 CURVE SMOOTH",
"508 610 OFFCURVE",
"452 686 OFFCURVE",
"299 686 CURVE SMOOTH",
"236 686 OFFCURVE",
"175 684 OFFCURVE",
"106 683 CURVE"
);
},
{
closed = 1;
nodes = (
"172 626 LINE",
"209 625 OFFCURVE",
"267 625 OFFCURVE",
"301 625 CURVE SMOOTH",
"413 625 OFFCURVE",
"432 563 OFFCURVE",
"432 508 CURVE SMOOTH",
"432 455 OFFCURVE",
"409 390 OFFCURVE",
"298 390 CURVE SMOOTH",
"142 390 LINE",
"142 328 LINE",
"307 328 LINE SMOOTH",
"432 328 OFFCURVE",
"465 247 OFFCURVE",
"465 193 CURVE SMOOTH",
"465 137 OFFCURVE",
"442 58 OFFCURVE",
"317 58 CURVE SMOOTH",
"269 58 OFFCURVE",
"220 57 OFFCURVE",
"172 57 CURVE"
);
}
);
width = 599;
},
{
anchors = (
{
name = bottom_U;
position = "{299, -20}";
},
{
name = top_U;
position = "{291, 732}";
}
);
layerId = UUID1;
paths = (
{
closed = 1;
nodes = (
"74 678 LINE",
"74 5 LINE",
"81 -2 LINE",
"168 -4 OFFCURVE",
"254 -6 OFFCURVE",
"331 -6 CURVE SMOOTH",
"482 -6 OFFCURVE",
"583 53 OFFCURVE",
"583 197 CURVE SMOOTH",
"583 289 OFFCURVE",
"511 372 OFFCURVE",
"430 377 CURVE",
"430 361 LINE",
"495 369 OFFCURVE",
"551 434 OFFCURVE",
"551 507 CURVE SMOOTH",
"551 635 OFFCURVE",
"453 689 OFFCURVE",
"315 689 CURVE SMOOTH",
"243 689 OFFCURVE",
"162 687 OFFCURVE",
"81 685 CURVE"
);
},
{
closed = 1;
nodes = (
"239 572 LINE",
"263 571 OFFCURVE",
"290 571 OFFCURVE",
"306 571 CURVE SMOOTH",
"369 571 OFFCURVE",
"388 533 OFFCURVE",
"388 495 CURVE SMOOTH",
"388 457 OFFCURVE",
"370 417 OFFCURVE",
"306 417 CURVE SMOOTH",
"176 417 LINE",
"176 299 LINE",
"318 299 LINE SMOOTH",
"394 299 OFFCURVE",
"415 247 OFFCURVE",
"415 204 CURVE SMOOTH",
"415 163 OFFCURVE",
"396 111 OFFCURVE",
"318 111 CURVE SMOOTH",
"299 111 OFFCURVE",
"270 111 OFFCURVE",
"239 110 CURVE"
);
}
);
width = 616;
}
);
unicode = 0042;
},
{
glyphname = C;
lastChange = "2014-06-06 07:55:32 +0000";
layers = (
{
anchors = (
{
name = bottom_U;
position = "{316, -20}";
},
{
name = top_U;
position = "{318, 733}";
}
);
layerId = UUID0;
paths = (
{
closed = 1;
nodes = (
"492 466 OFFCURVE",
"499 465 OFFCURVE",
"511 465 CURVE SMOOTH",
"545 465 OFFCURVE",
"551 488 OFFCURVE",
"551 508 CURVE SMOOTH",
"551 598 OFFCURVE",
"464 695 OFFCURVE",
"320 695 CURVE SMOOTH",
"180 695 OFFCURVE",
"58 585 OFFCURVE",
"58 338 CURVE SMOOTH",
"58 157 OFFCURVE",
"128 -12 OFFCURVE",
"308 -12 CURVE SMOOTH",
"405 -12 OFFCURVE",
"489 30 OFFCURVE",
"542 84 CURVE",
"536 101 OFFCURVE",
"520 120 OFFCURVE",
"502 131 CURVE",
"437 74 OFFCURVE",
"376 51 OFFCURVE",
"318 51 CURVE SMOOTH",
"204 51 OFFCURVE",
"134 158 OFFCURVE",
"134 338 CURVE SMOOTH",
"134 532 OFFCURVE",
"202 634 OFFCURVE",
"320 634 CURVE SMOOTH",
"440 634 OFFCURVE",
"480 541 OFFCURVE",
"478 470 CURVE"
);
}
);
width = 600;
},
{
anchors = (
{
name = bottom_U;
position = "{328, -20}";
},
{
name = top_U;
position = "{327, 733}";
}
);
layerId = UUID1;
paths = (
{
closed = 1;
nodes = (
"449 401 OFFCURVE",
"468 397 OFFCURVE",
"492 397 CURVE SMOOTH",
"551 397 OFFCURVE",
"588 423 OFFCURVE",
"588 489 CURVE SMOOTH",
"588 609 OFFCURVE",
"485 699 OFFCURVE",
"329 699 CURVE SMOOTH",
"168 699 OFFCURVE",
"34 591 OFFCURVE",
"34 339 CURVE SMOOTH",
"34 168 OFFCURVE",
"99 -15 OFFCURVE",
"312 -15 CURVE SMOOTH",
"424 -15 OFFCURVE",
"530 35 OFFCURVE",
"588 92 CURVE",
"581 131 OFFCURVE",
"544 178 OFFCURVE",
"512 200 CURVE",
"467 169 OFFCURVE",
"413 131 OFFCURVE",
"343 131 CURVE SMOOTH",
"258 131 OFFCURVE",
"210 199 OFFCURVE",
"210 338 CURVE SMOOTH",
"210 486 OFFCURVE",
"240 566 OFFCURVE",
"323 566 CURVE SMOOTH",
"409 566 OFFCURVE",
"431 490 OFFCURVE",
"429 406 CURVE"
);
}
);
width = 610;
}
);
leftKerningGroup = C;
rightKerningGroup = C;
unicode = 0043;
},
{
glyphname = D;
lastChange = "2014-06-06 07:55:32 +0000";
layers = (
{
anchors = (
{
name = bottom_U;
position = "{311, -20}";
},
{
name = top_U;
position = "{301, 732}";
}
);
layerId = UUID0;
paths = (
{
closed = 1;
nodes = (
"576 457 OFFCURVE",
"560 561 OFFCURVE",
"474 635 CURVE SMOOTH",
"432 671 OFFCURVE",
"357 686 OFFCURVE",
"306 686 CURVE",
"228 686 OFFCURVE",
"193 686 OFFCURVE",
"106 683 CURVE",
"100 677 LINE",
"100 6 LINE",
"106 0 LINE",
"193 -2 OFFCURVE",
"228 -4 OFFCURVE",
"306 -4 CURVE",
"357 -4 OFFCURVE",
"432 11 OFFCURVE",
"474 47 CURVE SMOOTH",
"561 121 OFFCURVE",
"576 224 OFFCURVE",
"576 341 CURVE SMOOTH"
);
},
{
closed = 1;
nodes = (
"500 211 OFFCURVE",
"475 57 OFFCURVE",
"305 57 CURVE SMOOTH",
"258 57 OFFCURVE",
"224 58 OFFCURVE",
"172 58 CURVE",
"172 626 LINE",
"224 626 OFFCURVE",
"258 625 OFFCURVE",
"305 625 CURVE SMOOTH",
"475 625 OFFCURVE",
"500 472 OFFCURVE",
"500 341 CURVE"
);
}
);
width = 636;
},
{
anchors = (
{
name = bottom_U;
position = "{322, -20}";
},
{
name = top_U;
position = "{322, 732}";
}
);
layerId = UUID1;
paths = (
{
closed = 1;
nodes = (
"635 458 OFFCURVE",
"617 565 OFFCURVE",
"522 639 CURVE SMOOTH",
"476 675 OFFCURVE",
"393 689 OFFCURVE",
"337 689 CURVE",
"250 689 OFFCURVE",
"167 688 OFFCURVE",
"81 685 CURVE",
"74 678 LINE",
"74 5 LINE",
"81 -2 LINE",
"168 -4 OFFCURVE",
"250 -6 OFFCURVE",
"337 -6 CURVE",
"393 -6 OFFCURVE",
"476 8 OFFCURVE",
"522 44 CURVE SMOOTH",
"618 118 OFFCURVE",
"635 225 OFFCURVE",
"635 342 CURVE SMOOTH"
);
},
{
closed = 1;
nodes = (
"463 243 OFFCURVE",
"447 124 OFFCURVE",
"337 124 CURVE SMOOTH",
"304 124 OFFCURVE",
"275 124 OFFCURVE",
"241 123 CURVE",
"241 560 LINE",
"275 559 OFFCURVE",
"304 559 OFFCURVE",
"337 559 CURVE SMOOTH",
"447 559 OFFCURVE",
"463 441 OFFCURVE",
"463 342 CURVE"
);
}
);
width = 670;
}
);
rightKerningGroup = D;
unicode = 0044;
},
{
glyphname = E;
lastChange = "2014-06-06 07:55:32 +0000";
layers = (
{
anchors = (
{
name = bottom_U;
position = "{302, -20}";
},
{
name = top_U;
position = "{299, 732}";
}
);
layerId = UUID0;
paths = (
{
closed = 1;
nodes = (
"100 48 LINE",
"100 18 OFFCURVE",
"116 0 OFFCURVE",
"141 0 CURVE SMOOTH",
"169 0 LINE",
"169 60 LINE SMOOTH",
"169 74 OFFCURVE",
"170 84 OFFCURVE",
"170 97 CURVE SMOOTH",
"170 560 LINE",
"170 587 OFFCURVE",
"169 596 OFFCURVE",
"169 624 CURVE SMOOTH",
"169 683 LINE",
"106 683 LINE",
"100 677 LINE"
);
},
{
closed = 1;
nodes = (
"229 377 LINE SMOOTH",
"207 377 OFFCURVE",
"174 376 OFFCURVE",
"145 376 CURVE",
"145 316 LINE",
"174 316 OFFCURVE",
"207 315 OFFCURVE",
"229 315 CURVE SMOOTH",
"439 315 LINE",
"441 326 OFFCURVE",
"442 338 OFFCURVE",
"442 346 CURVE SMOOTH",
"442 354 OFFCURVE",
"441 366 OFFCURVE",
"439 377 CURVE"
);
},
{
closed = 1;
nodes = (
"145 683 LINE",
"145 622 LINE",
"174 621 OFFCURVE",
"207 621 OFFCURVE",
"229 621 CURVE SMOOTH",
"487 621 LINE",
"491 632 OFFCURVE",
"492 646 OFFCURVE",
"492 654 CURVE SMOOTH",
"492 662 OFFCURVE",
"492 672 OFFCURVE",
"490 683 CURVE"
);
},
{
closed = 1;
nodes = (
"230 63 LINE",
"194 63 OFFCURVE",
"170 61 OFFCURVE",
"145 59 CURVE",
"145 0 LINE",
"458 0 LINE SMOOTH",
"483 0 OFFCURVE",
"500 10 OFFCURVE",
"504 33 CURVE SMOOTH",
"506 43 OFFCURVE",
"506 57 OFFCURVE",
"506 63 CURVE"
);
}
);
width = 562;
},
{
anchors = (
{
name = bottom_U;
position = "{302, -20}";
},
{
name = top_U;
position = "{299, 732}";
}
);
layerId = UUID1;
paths = (
{
closed = 1;
nodes = (
"73 94 LINE",
"73 34 OFFCURVE",
"109 -3 OFFCURVE",
"169 -3 CURVE SMOOTH",
"238 -3 LINE",
"238 136 LINE SMOOTH",
"238 164 OFFCURVE",
"239 184 OFFCURVE",
"239 211 CURVE SMOOTH",
"239 470 LINE",
"239 497 OFFCURVE",
"238 517 OFFCURVE",
"238 545 CURVE SMOOTH",
"238 683 LINE",
"80 683 LINE",
"73 676 LINE"
);
},
{
closed = 1;
nodes = (
"307 411 LINE SMOOTH",
"282 411 OFFCURVE",
"213 410 OFFCURVE",
"181 409 CURVE",
"181 277 LINE",
"213 276 OFFCURVE",
"282 275 OFFCURVE",
"307 275 CURVE SMOOTH",
"455 275 LINE",
"462 296 OFFCURVE",
"465 324 OFFCURVE",
"465 343 CURVE SMOOTH",
"465 361 OFFCURVE",
"462 391 OFFCURVE",
"455 411 CURVE"
);
},
{
closed = 1;
nodes = (
"181 683 LINE",
"181 545 LINE",
"213 544 OFFCURVE",
"282 543 OFFCURVE",
"307 543 CURVE SMOOTH",
"507 543 LINE",
"516 568 OFFCURVE",
"521 598 OFFCURVE",
"521 617 CURVE SMOOTH",
"521 636 OFFCURVE",
"520 658 OFFCURVE",
"515 683 CURVE"
);
},
{
closed = 1;
nodes = (
"313 137 LINE",
"263 137 OFFCURVE",
"226 134 OFFCURVE",
"181 132 CURVE",
"181 -3 LINE",
"431 -3 LINE SMOOTH",
"492 -3 OFFCURVE",
"529 25 OFFCURVE",
"538 78 CURVE SMOOTH",
"541 98 OFFCURVE",
"541 123 OFFCURVE",
"541 137 CURVE"
);
}
);
width = 574;
}
);
rightKerningGroup = E;
unicode = 0045;
},
{
glyphname = F;
lastChange = "2014-06-06 07:55:32 +0000";
layers = (
{
anchors = (
{
name = bottom_U;
position = "{135, -20}";
},
{
name = top_U;
position = "{299, 732}";
}
);
layerId = UUID0;
paths = (
{
closed = 1;
nodes = (
"172 479 LINE SMOOTH",
"172 528 OFFCURVE",
"171 578 OFFCURVE",
"171 627 CURVE SMOOTH",
"171 683 LINE",
"106 683 LINE",
"100 677 LINE",
"100 0 LINE",
"109 -2 OFFCURVE",
"122 -3 OFFCURVE",
"135 -3 CURVE SMOOTH",
"149 -3 OFFCURVE",
"162 -2 OFFCURVE",
"172 0 CURVE"
);
},
{
closed = 1;
nodes = (
"145 683 LINE",
"145 624 LINE",
"179 621 OFFCURVE",
"224 620 OFFCURVE",
"282 620 CURVE SMOOTH",
"443 620 LINE SMOOTH",
"473 620 OFFCURVE",
"487 630 OFFCURVE",
"487 653 CURVE SMOOTH",
"487 663 OFFCURVE",
"485 674 OFFCURVE",
"482 683 CURVE"
);
},
{
closed = 1;
nodes = (
"229 377 LINE SMOOTH",
"207 377 OFFCURVE",
"174 376 OFFCURVE",
"145 376 CURVE",
"145 316 LINE",
"174 316 OFFCURVE",
"207 315 OFFCURVE",
"229 315 CURVE SMOOTH",
"434 315 LINE",
"436 326 OFFCURVE",
"437 338 OFFCURVE",
"437 346 CURVE SMOOTH",
"437 354 OFFCURVE",
"436 366 OFFCURVE",
"434 377 CURVE"
);
}
);
width = 513;
},
{
anchors = (
{
name = bottom_U;
position = "{160, -20}";
},
{
name = top_U;
position = "{295, 732}";
}
);
layerId = UUID1;
paths = (
{
closed = 1;
nodes = (
"242 468 LINE SMOOTH",
"242 521 OFFCURVE",
"241 580 OFFCURVE",
"241 636 CURVE SMOOTH",
"241 683 LINE",
"81 683 LINE",
"74 677 LINE",
"74 0 LINE",
"103 -5 OFFCURVE",
"137 -6 OFFCURVE",
"160 -6 CURVE SMOOTH",
"183 -6 OFFCURVE",
"213 -5 OFFCURVE",
"242 0 CURVE"
);
},
{
closed = 1;
nodes = (
"172 683 LINE",
"172 542 LINE",
"217 542 OFFCURVE",
"260 541 OFFCURVE",
"309 541 CURVE SMOOTH",
"431 541 LINE SMOOTH",
"491 541 OFFCURVE",
"520 564 OFFCURVE",
"520 619 CURVE SMOOTH",
"520 638 OFFCURVE",
"518 665 OFFCURVE",
"513 683 CURVE"
);
},
{
closed = 1;
nodes = (
"258 408 LINE SMOOTH",
"229 408 OFFCURVE",
"197 407 OFFCURVE",
"178 406 CURVE",
"178 273 LINE",
"197 272 OFFCURVE",
"229 271 OFFCURVE",
"258 271 CURVE SMOOTH",
"451 271 LINE",
"457 291 OFFCURVE",
"460 321 OFFCURVE",
"460 340 CURVE SMOOTH",
"460 358 OFFCURVE",
"457 389 OFFCURVE",
"451 408 CURVE"
);
}
);
width = 537;
}
);
unicode = 0046;
},
{
glyphname = G;
lastChange = "2014-06-06 07:55:32 +0000";
layers = (
{
anchors = (
{
name = bottom_U;
position = "{335, -20}";
},
{
name = top_U;
position = "{341, 732}";
}
);
layerId = UUID0;
paths = (
{
closed = 1;
nodes = (
"509 667 OFFCURVE",
"421 695 OFFCURVE",
"341 695 CURVE SMOOTH",
"202 695 OFFCURVE",
"58 598 OFFCURVE",
"58 337 CURVE SMOOTH",
"58 168 OFFCURVE",
"121 -12 OFFCURVE",
"329 -12 CURVE SMOOTH",
"420 -12 OFFCURVE",
"504 7 OFFCURVE",
"565 32 CURVE",
"529 91 LINE",
"496 75 OFFCURVE",
"433 52 OFFCURVE",
"342 52 CURVE SMOOTH",
"204 52 OFFCURVE",
"134 149 OFFCURVE",
"134 336 CURVE SMOOTH",
"134 557 OFFCURVE",
"231 630 OFFCURVE",
"335 630 CURVE SMOOTH",
"410 630 OFFCURVE",
"475 604 OFFCURVE",
"525 564 CURVE",
"540 574 OFFCURVE",
"558 595 OFFCURVE",
"564 620 CURVE"
);
},
{
closed = 1;
nodes = (
"494 30 LINE",
"532 31 OFFCURVE",
"536 30 OFFCURVE",
"565 32 CURVE",
"565 291 LINE",
"501 314 LINE",
"496 292 OFFCURVE",
"494 262 OFFCURVE",
"494 216 CURVE"
);
},
{
closed = 1;
nodes = (
"356 341 LINE",
"353 332 OFFCURVE",
"350 318 OFFCURVE",
"350 310 CURVE SMOOTH",
"350 287 OFFCURVE",
"361 276 OFFCURVE",
"383 276 CURVE SMOOTH",
"434 276 OFFCURVE",
"508 277 OFFCURVE",
"565 278 CURVE",
"565 291 LINE SMOOTH",
"565 326 OFFCURVE",
"550 341 OFFCURVE",
"508 341 CURVE SMOOTH"
);
}
);
width = 636;
},
{
anchors = (
{
name = bottom_U;
position = "{345, -20}";
},
{
name = top_U;
position = "{351, 732}";
}
);
layerId = UUID1;
paths = (
{
closed = 1;
nodes = (
"535 669 OFFCURVE",
"449 698 OFFCURVE",
"351 698 CURVE SMOOTH",
"192 698 OFFCURVE",
"34 578 OFFCURVE",
"34 337 CURVE SMOOTH",
"34 117 OFFCURVE",
"135 -15 OFFCURVE",
"339 -15 CURVE SMOOTH",
"452 -15 OFFCURVE",
"548 7 OFFCURVE",
"606 26 CURVE",
"518 140 LINE",
"484 131 OFFCURVE",
"432 116 OFFCURVE",
"368 116 CURVE SMOOTH",
"264 116 OFFCURVE",
"205 183 OFFCURVE",
"205 336 CURVE SMOOTH",
"205 491 OFFCURVE",
"264 560 OFFCURVE",
"364 560 CURVE SMOOTH",
"419 560 OFFCURVE",
"481 539 OFFCURVE",
"530 507 CURVE",
"564 529 OFFCURVE",
"601 580 OFFCURVE",
"604 627 CURVE"
);
},
{
closed = 1;
nodes = (
"449 24 LINE",
"487 25 OFFCURVE",
"576 24 OFFCURVE",
"606 26 CURVE",
"606 289 LINE",
"464 336 LINE",
"451 289 OFFCURVE",
"449 230 OFFCURVE",
"449 183 CURVE"
);
},
{
closed = 1;
nodes = (
"339 392 LINE",
"332 372 OFFCURVE",
"327 345 OFFCURVE",
"327 323 CURVE SMOOTH",
"327 271 OFFCURVE",
"352 253 OFFCURVE",
"407 253 CURVE SMOOTH",
"446 253 OFFCURVE",
"543 254 OFFCURVE",
"606 255 CURVE",
"606 289 LINE SMOOTH",
"606 349 OFFCURVE",
"579 394 OFFCURVE",
"496 393 CURVE SMOOTH"
);
}
);
width = 656;
}
);
leftKerningGroup = C;
rightKerningGroup = G;
unicode = 0047;
},
{
glyphname = H;
lastChange = "2014-06-06 07:55:32 +0000";
layers = (
{
anchors = (
{
name = bottom_U;
position = "{333, -20}";
},
{
name = top_U;
position = "{333, 732}";
}
);
layerId = UUID0;
paths = (
{
closed = 1;
nodes = (
"435 321 LINE",
"441 321 OFFCURVE",
"489 322 OFFCURVE",
"496 322 CURVE SMOOTH",
"510 322 OFFCURVE",
"524 321 OFFCURVE",
"538 321 CURVE",
"538 385 LINE",
"524 385 OFFCURVE",
"510 384 OFFCURVE",
"496 384 CURVE SMOOTH",
"489 384 OFFCURVE",
"441 385 OFFCURVE",
"435 385 CURVE SMOOTH",
"232 385 LINE SMOOTH",
"226 385 OFFCURVE",
"178 384 OFFCURVE",
"171 384 CURVE SMOOTH",
"157 384 OFFCURVE",
"143 385 OFFCURVE",
"129 385 CURVE",
"129 321 LINE",
"143 321 OFFCURVE",
"157 322 OFFCURVE",
"171 322 CURVE SMOOTH",
"178 322 OFFCURVE",
"226 321 OFFCURVE",
"232 321 CURVE SMOOTH"
);
},
{
closed = 1;
nodes = (
"172 248 LINE SMOOTH",
"172 276 OFFCURVE",
"171 295 OFFCURVE",
"171 322 CURVE SMOOTH",
"171 384 LINE SMOOTH",
"171 411 OFFCURVE",
"172 430 OFFCURVE",
"172 458 CURVE SMOOTH",
"172 683 LINE",
"162 685 OFFCURVE",
"149 686 OFFCURVE",
"135 686 CURVE SMOOTH",
"122 686 OFFCURVE",
"109 685 OFFCURVE",
"100 683 CURVE",
"100 0 LINE",
"109 -2 OFFCURVE",
"122 -3 OFFCURVE",
"135 -3 CURVE SMOOTH",
"149 -3 OFFCURVE",
"162 -2 OFFCURVE",
"172 0 CURVE"
);
},
{
closed = 1;
nodes = (
"495 0 LINE",
"504 -2 OFFCURVE",
"517 -3 OFFCURVE",
"530 -3 CURVE SMOOTH",
"544 -3 OFFCURVE",
"557 -2 OFFCURVE",
"567 0 CURVE",
"567 683 LINE",
"557 685 OFFCURVE",
"544 686 OFFCURVE",
"530 686 CURVE SMOOTH",
"517 686 OFFCURVE",
"504 685 OFFCURVE",
"495 683 CURVE",
"495 458 LINE SMOOTH",
"495 430 OFFCURVE",
"496 411 OFFCURVE",
"496 384 CURVE SMOOTH",
"496 322 LINE SMOOTH",
"496 295 OFFCURVE",
"495 276 OFFCURVE",
"495 248 CURVE SMOOTH"
);
}
);
width = 667;
},
{
anchors = (
{
name = bottom_U;
position = "{344, -20}";
},
{
name = top_U;
position = "{344, 733}";
}
);
layerId = UUID1;
paths = (
{
closed = 1;
nodes = (
"398 282 LINE",
"413 282 OFFCURVE",
"432 283 OFFCURVE",
"447 283 CURVE SMOOTH",
"480 283 OFFCURVE",
"515 282 OFFCURVE",
"548 282 CURVE",
"548 422 LINE",
"515 422 OFFCURVE",
"480 421 OFFCURVE",
"447 421 CURVE SMOOTH",
"432 421 OFFCURVE",
"413 422 OFFCURVE",
"398 422 CURVE SMOOTH",
"290 422 LINE SMOOTH",
"275 422 OFFCURVE",
"256 421 OFFCURVE",
"241 421 CURVE SMOOTH",
"208 421 OFFCURVE",
"173 422 OFFCURVE",
"140 422 CURVE",
"140 282 LINE",
"173 282 OFFCURVE",
"208 283 OFFCURVE",
"241 283 CURVE SMOOTH",
"256 283 OFFCURVE",
"275 282 OFFCURVE",
"290 282 CURVE SMOOTH"
);
},
{
closed = 1;
nodes = (
"242 209 LINE SMOOTH",
"242 237 OFFCURVE",
"241 256 OFFCURVE",
"241 283 CURVE SMOOTH",
"241 421 LINE SMOOTH",
"241 448 OFFCURVE",
"242 467 OFFCURVE",
"242 495 CURVE SMOOTH",
"242 683 LINE",
"214 688 OFFCURVE",
"180 689 OFFCURVE",
"158 689 CURVE SMOOTH",
"138 689 OFFCURVE",
"101 688 OFFCURVE",
"74 683 CURVE",
"74 0 LINE",
"101 -5 OFFCURVE",
"138 -6 OFFCURVE",
"158 -6 CURVE SMOOTH",
"180 -6 OFFCURVE",
"214 -5 OFFCURVE",
"242 0 CURVE"
);
},
{
closed = 1;
nodes = (
"446 0 LINE",
"475 -5 OFFCURVE",
"509 -6 OFFCURVE",
"532 -6 CURVE SMOOTH",
"555 -6 OFFCURVE",
"585 -5 OFFCURVE",
"614 0 CURVE",
"614 683 LINE",
"587 688 OFFCURVE",
"550 689 OFFCURVE",
"530 689 CURVE SMOOTH",
"508 689 OFFCURVE",
"474 688 OFFCURVE",
"446 683 CURVE",
"446 495 LINE SMOOTH",
"446 467 OFFCURVE",
"447 448 OFFCURVE",
"447 421 CURVE SMOOTH",
"447 283 LINE SMOOTH",
"447 256 OFFCURVE",
"446 237 OFFCURVE",
"446 209 CURVE SMOOTH"
);
}
);
width = 688;
}
);
unicode = 0048;
},
{
glyphname = I;
lastChange = "2014-06-06 07:55:32 +0000";
layers = (
{
anchors = (
{
name = bottom_U;
position = "{139, -20}";
},
{
name = top_U;
position = "{140, 732}";
}
);
layerId = UUID0;
paths = (
{
closed = 1;
nodes = (
"104 0 LINE",
"113 -2 OFFCURVE",
"126 -3 OFFCURVE",
"139 -3 CURVE SMOOTH",
"153 -3 OFFCURVE",
"166 -2 OFFCURVE",
"176 0 CURVE",
"176 683 LINE",
"166 685 OFFCURVE",
"153 686 OFFCURVE",
"139 686 CURVE SMOOTH",
"126 686 OFFCURVE",
"113 685 OFFCURVE",
"104 683 CURVE"
);
}
);
width = 280;
},
{
anchors = (
{
name = bottom_U;
position = "{160, -20}";
},
{
name = top_U;
position = "{160, 733}";
}
);
layerId = UUID1;
paths = (
{
closed = 1;
nodes = (
"76 0 LINE",
"103 -5 OFFCURVE",
"140 -6 OFFCURVE",
"160 -6 CURVE SMOOTH",
"182 -6 OFFCURVE",
"216 -5 OFFCURVE",
"244 0 CURVE",
"244 683 LINE",
"216 688 OFFCURVE",
"182 689 OFFCURVE",
"160 689 CURVE SMOOTH",
"140 689 OFFCURVE",
"103 688 OFFCURVE",
"76 683 CURVE"
);
}
);
width = 320;
}
);
unicode = 0049;
},
{
glyphname = J;
lastChange = "2014-06-06 07:55:32 +0000";
layers = (
{
anchors = (
{
name = bottom_U;
position = "{191, -20}";
},
{
name = top_U;
position = "{313, 732}";
}
);
layerId = UUID0;
paths = (
{
closed = 1;
nodes = (
"25 71 OFFCURVE",
"15 53 OFFCURVE",
"10 31 CURVE",
"51 6 OFFCURVE",
"110 -10 OFFCURVE",
"161 -10 CURVE SMOOTH",
"325 -10 OFFCURVE",
"348 101 OFFCURVE",
"348 240 CURVE SMOOTH",
"348 683 LINE",
"339 685 OFFCURVE",
"326 686 OFFCURVE",
"313 686 CURVE SMOOTH",
"299 686 OFFCURVE",
"286 685 OFFCURVE",
"276 683 CURVE",
"276 225 LINE",
"276 100 OFFCURVE",
"246 52 OFFCURVE",
"158 52 CURVE SMOOTH",
"118 52 OFFCURVE",
"71 67 OFFCURVE",
"40 86 CURVE"
);
}
);
width = 434;
},
{
anchors = (
{
name = bottom_U;
position = "{217, -20}";
},
{
name = top_U;
position = "{326, 732}";
}
);
layerId = UUID1;
paths = (
{
closed = 1;
nodes = (
"37 124 OFFCURVE",
"16 76 OFFCURVE",
"10 34 CURVE",
"58 4 OFFCURVE",
"121 -10 OFFCURVE",
"174 -10 CURVE SMOOTH",
"364 -10 OFFCURVE",
"410 105 OFFCURVE",
"410 264 CURVE SMOOTH",
"410 683 LINE",
"382 688 OFFCURVE",
"348 689 OFFCURVE",
"326 689 CURVE SMOOTH",
"306 689 OFFCURVE",
"269 688 OFFCURVE",
"242 683 CURVE",
"242 249 LINE",
"242 174 OFFCURVE",
"226 128 OFFCURVE",
"155 128 CURVE SMOOTH",
"124 128 OFFCURVE",
"95 141 OFFCURVE",
"67 158 CURVE"
);
}
);
width = 474;
}
);
leftKerningGroup = J;
rightKerningGroup = U;
unicode = 004A;
},
{
glyphname = K;
lastChange = "2014-06-06 07:55:32 +0000";
layers = (
{
anchors = (
{
name = bottom_U;
position = "{303, -20}";
},
{
name = top_U;
position = "{300, 732}";
}
);
layerId = UUID0;
paths = (
{
closed = 1;
nodes = (
"100 0 LINE",
"109 -2 OFFCURVE",
"122 -3 OFFCURVE",
"135 -3 CURVE SMOOTH",
"149 -3 OFFCURVE",
"162 -2 OFFCURVE",
"172 0 CURVE",
"172 683 LINE",
"162 685 OFFCURVE",
"149 686 OFFCURVE",
"135 686 CURVE SMOOTH",
"122 686 OFFCURVE",
"109 685 OFFCURVE",
"100 683 CURVE"
);
},
{
closed = 1;
nodes = (
"544 31 OFFCURVE",
"531 47 OFFCURVE",
"518 79 CURVE SMOOTH",
"455 237 LINE SMOOTH",
"418 329 OFFCURVE",
"384 369 OFFCURVE",
"288 369 CURVE SMOOTH",
"134 369 LINE",
"134 317 LINE",
"201 320 OFFCURVE",
"240 320 OFFCURVE",
"255 320 CURVE SMOOTH",
"322 320 OFFCURVE",
"357 292 OFFCURVE",
"390 208 CURVE SMOOTH",
"455 43 LINE SMOOTH",
"467 12 OFFCURVE",
"476 -5 OFFCURVE",
"508 -5 CURVE SMOOTH",
"524 -5 OFFCURVE",
"548 4 OFFCURVE",
"558 20 CURVE"
);
},
{
closed = 1;
nodes = (
"281 408 LINE",
"271 392 OFFCURVE",
"264 384 OFFCURVE",
"247 384 CURVE SMOOTH",
"134 381 LINE",
"134 338 LINE",
"250 338 LINE SMOOTH",
"297 338 OFFCURVE",
"332 363 OFFCURVE",
"356 401 CURVE SMOOTH",
"527 675 LINE",
"521 683 LINE",
"507 684 OFFCURVE",
"496 685 OFFCURVE",
"483 685 CURVE SMOOTH",
"454 685 OFFCURVE",
"445 672 OFFCURVE",
"431 649 CURVE SMOOTH"
);
}
);
width = 581;
},
{
anchors = (
{
name = bottom_U;
position = "{331, -20}";
},
{
name = top_U;
position = "{327, 732}";
}
);
layerId = UUID1;
paths = (
{
closed = 1;
nodes = (
"74 0 LINE",
"101 -5 OFFCURVE",
"138 -6 OFFCURVE",
"158 -6 CURVE SMOOTH",
"180 -6 OFFCURVE",
"214 -5 OFFCURVE",
"242 0 CURVE",
"242 683 LINE",
"214 688 OFFCURVE",
"180 689 OFFCURVE",
"158 689 CURVE SMOOTH",
"138 689 OFFCURVE",
"101 688 OFFCURVE",
"74 683 CURVE"
);
},
{
closed = 1;
nodes = (
"584 73 OFFCURVE",
"578 102 OFFCURVE",
"566 138 CURVE SMOOTH",
"527 259 LINE SMOOTH",
"506 323 OFFCURVE",
"474 377 OFFCURVE",
"360 377 CURVE SMOOTH",
"157 377 LINE",
"157 275 LINE",
"206 280 OFFCURVE",
"251 284 OFFCURVE",
"282 284 CURVE SMOOTH",
"328 284 OFFCURVE",
"353 260 OFFCURVE",
"372 199 CURVE SMOOTH",
"407 86 LINE SMOOTH",
"427 22 OFFCURVE",
"448 -9 OFFCURVE",
"508 -9 CURVE SMOOTH",
"553 -9 OFFCURVE",
"597 9 OFFCURVE",
"619 41 CURVE"
);
},
{
closed = 1;
nodes = (
"309 458 LINE",
"295 430 OFFCURVE",
"289 423 OFFCURVE",
"263 423 CURVE SMOOTH",
"157 421 LINE",
"157 327 LINE",
"279 327 LINE SMOOTH",
"382 327 OFFCURVE",
"438 372 OFFCURVE",
"477 447 CURVE SMOOTH",
"594 673 LINE",
"585 684 LINE",
"552 687 OFFCURVE",
"511 689 OFFCURVE",
"484 689 CURVE SMOOTH",
"436 689 OFFCURVE",
"419 671 OFFCURVE",
"399 632 CURVE SMOOTH"
);
}
);
width = 624;
}
);
rightKerningGroup = K;
unicode = 004B;
},
{
glyphname = L;
lastChange = "2014-06-06 07:55:32 +0000";
layers = (
{
anchors = (
{
name = bottom_U;
position = "{289, -20}";
},
{
name = top_U;
position = "{135, 732}";
}
);
layerId = UUID0;
paths = (
{
closed = 1;
nodes = (
"172 639 LINE",
"172 670 OFFCURVE",
"167 686 OFFCURVE",
"135 686 CURVE SMOOTH",
"106 686 LINE",
"100 680 LINE",
"100 49 LINE SMOOTH",
"100 16 OFFCURVE",
"119 0 OFFCURVE",
"142 0 CURVE SMOOTH",
"172 0 LINE"
);
},
{
closed = 1;
nodes = (
"258 64 LINE",
"213 64 OFFCURVE",
"152 61 OFFCURVE",
"107 54 CURVE",
"142 0 LINE",
"425 0 LINE SMOOTH",
"450 0 OFFCURVE",
"467 10 OFFCURVE",
"471 33 CURVE SMOOTH",
"473 43 OFFCURVE",
"473 58 OFFCURVE",
"473 64 CURVE"
);
}
);
width = 505;
},
{
anchors = (
{
name = bottom_U;
position = "{285, -20}";
},
{
name = top_U;
position = "{156, 727}";
}
);
layerId = UUID1;
paths = (
{
closed = 1;
nodes = (
"241 584 LINE",
"241 659 OFFCURVE",
"205 690 OFFCURVE",
"141 690 CURVE SMOOTH",
"80 690 LINE",
"73 683 LINE",
"73 94 LINE SMOOTH",
"73 34 OFFCURVE",
"110 -3 OFFCURVE",
"170 -3 CURVE SMOOTH",
"241 -3 LINE"
);
},
{
closed = 1;
nodes = (
"335 141 LINE",
"262 141 OFFCURVE",
"171 134 OFFCURVE",
"80 118 CURVE",
"170 -3 LINE",
"391 -3 LINE SMOOTH",
"452 -3 OFFCURVE",
"492 26 OFFCURVE",
"501 79 CURVE SMOOTH",
"504 99 OFFCURVE",
"505 121 OFFCURVE",
"505 141 CURVE"
);
}
);
width = 524;
}
);
rightKerningGroup = L;
unicode = 004C;
},
{
glyphname = M;
lastChange = "2014-06-06 07:55:32 +0000";
layers = (
{
anchors = (
{
name = bottom_U;
position = "{395, -20}";
},
{
name = top_U;
position = "{395, 732}";
}
);
layerId = UUID0;
paths = (
{
closed = 1;
nodes = (
"86 1 LINE",
"95 -2 OFFCURVE",
"109 -4 OFFCURVE",
"121 -4 CURVE SMOOTH",
"133 -4 OFFCURVE",
"145 -3 OFFCURVE",
"156 -1 CURVE",
"185 421 LINE SMOOTH",
"188 465 OFFCURVE",
"190 551 OFFCURVE",
"193 607 CURVE",
"198 607 LINE",
"360 107 LINE",
"370 105 OFFCURVE",
"382 104 OFFCURVE",
"395 104 CURVE SMOOTH",
"407 104 OFFCURVE",
"420 105 OFFCURVE",
"431 107 CURVE",
"593 607 LINE",
"598 607 LINE",
"600 551 OFFCURVE",
"603 465 OFFCURVE",
"606 421 CURVE SMOOTH",
"635 -1 LINE",
"646 -3 OFFCURVE",
"656 -4 OFFCURVE",
"668 -4 CURVE SMOOTH",
"680 -4 OFFCURVE",
"695 -2 OFFCURVE",
"705 1 CURVE",
"652 683 LINE",
"632 686 OFFCURVE",
"612 686 OFFCURVE",
"603 686 CURVE SMOOTH",
"593 686 OFFCURVE",
"577 686 OFFCURVE",
"557 683 CURVE",
"439 326 LINE SMOOTH",
"427 291 OFFCURVE",
"400 195 OFFCURVE",
"398 182 CURVE",
"393 182 LINE",
"391 195 OFFCURVE",
"364 291 OFFCURVE",
"352 326 CURVE SMOOTH",
"234 683 LINE",
"217 686 OFFCURVE",
"198 686 OFFCURVE",
"188 686 CURVE SMOOTH",
"179 686 OFFCURVE",
"157 686 OFFCURVE",
"139 683 CURVE"
);
}
);
width = 791;
},
{
anchors = (
{
name = bottom_U;
position = "{419, -20}";
},
{
name = top_U;
position = "{419, 732}";
}
);
layerId = UUID1;
paths = (
{
closed = 1;
nodes = (
"52 2 LINE",
"76 -4 OFFCURVE",
"110 -6 OFFCURVE",
"137 -6 CURVE SMOOTH",
"162 -6 OFFCURVE",
"186 -5 OFFCURVE",
"210 -1 CURVE",
"224 265 LINE SMOOTH",
"228 338 OFFCURVE",
"232 433 OFFCURVE",
"232 499 CURVE",
"239 499 LINE",
"332 100 LINE",
"357 96 OFFCURVE",
"397 94 OFFCURVE",
"418 94 CURVE SMOOTH",
"441 94 OFFCURVE",
"480 96 OFFCURVE",
"505 100 CURVE",
"598 499 LINE",
"605 499 LINE",
"605 433 OFFCURVE",
"609 338 OFFCURVE",
"613 265 CURVE SMOOTH",
"627 -1 LINE",
"651 -5 OFFCURVE",
"675 -6 OFFCURVE",
"700 -6 CURVE SMOOTH",
"727 -6 OFFCURVE",
"761 -4 OFFCURVE",
"785 2 CURVE",
"732 682 LINE",
"697 688 OFFCURVE",
"650 690 OFFCURVE",
"619 690 CURVE SMOOTH",
"588 690 OFFCURVE",
"548 688 OFFCURVE",
"513 682 CURVE",
"459 447 LINE SMOOTH",
"454 424 OFFCURVE",
"431 316 OFFCURVE",
"422 262 CURVE",
"415 262 LINE",
"406 316 OFFCURVE",
"383 424 OFFCURVE",
"378 447 CURVE SMOOTH",
"324 682 LINE",
"289 688 OFFCURVE",
"249 690 OFFCURVE",
"218 690 CURVE SMOOTH",
"187 690 OFFCURVE",
"140 688 OFFCURVE",
"105 682 CURVE"
);
}
);
width = 837;
}
);
unicode = 004D;
},
{
glyphname = N;
lastChange = "2014-06-06 07:55:32 +0000";
layers = (
{
anchors = (
{
name = bottom_U;
position = "{332, -20}";
},
{
name = top_U;
position = "{337, 732}";
}
);
layerId = UUID0;
paths = (
{
closed = 1;
nodes = (
"100 0 LINE",
"112 -2 OFFCURVE",
"123 -3 OFFCURVE",
"133 -3 CURVE SMOOTH",
"143 -3 OFFCURVE",
"154 -2 OFFCURVE",
"167 0 CURVE",
"167 385 LINE SMOOTH",
"167 454 OFFCURVE",
"163 536 OFFCURVE",
"161 596 CURVE",
"168 596 LINE",
"188 683 LINE",
"176 685 OFFCURVE",
"153 686 OFFCURVE",
"143 686 CURVE SMOOTH",
"135 686 OFFCURVE",
"112 685 OFFCURVE",
"100 683 CURVE"
);
},
{
closed = 1;
nodes = (
"481 0 LINE",
"570 20 LINE",
"506 84 LINE",
"484 128 OFFCURVE",
"462 176 OFFCURVE",
"436 224 CURVE SMOOTH",
"188 683 LINE",
"100 673 LINE",
"164 596 LINE",
"186 551 OFFCURVE",
"207 507 OFFCURVE",
"233 459 CURVE SMOOTH"
);
},
{
closed = 1;
nodes = (
"564 686 LINE",
"540 686 LINE SMOOTH",
"508 686 OFFCURVE",
"503 670 OFFCURVE",
"503 639 CURVE SMOOTH",
"503 308 LINE SMOOTH",
"503 239 OFFCURVE",
"506 156 OFFCURVE",
"509 84 CURVE",
"502 84 LINE",
"481 0 LINE",
"493 -2 OFFCURVE",
"517 -3 OFFCURVE",
"526 -3 CURVE SMOOTH",
"535 -3 OFFCURVE",
"558 -2 OFFCURVE",
"570 0 CURVE",
"570 681 LINE"
);
}
);
width = 670;
},
{
anchors = (
{
name = bottom_U;
position = "{343, -20}";
},
{
name = top_U;
position = "{353, 732}";
}
);
layerId = UUID1;
paths = (
{
closed = 1;
nodes = (
"74 0 LINE",
"100 -5 OFFCURVE",
"134 -6 OFFCURVE",
"154 -6 CURVE SMOOTH",
"175 -6 OFFCURVE",
"203 -5 OFFCURVE",
"230 0 CURVE",
"230 183 LINE SMOOTH",
"230 267 OFFCURVE",
"225 402 OFFCURVE",
"217 489 CURVE",
"228 493 LINE",
"270 683 LINE",
"233 688 OFFCURVE",
"194 689 OFFCURVE",
"173 689 CURVE SMOOTH",
"152 689 OFFCURVE",
"100 686 OFFCURVE",
"74 680 CURVE"
);
},
{
closed = 1;
nodes = (
"426 0 LINE",
"624 23 LINE",
"478 182 LINE",
"464 218 OFFCURVE",
"441 275 OFFCURVE",
"416 335 CURVE SMOOTH",
"270 683 LINE",
"74 660 LINE",
"221 491 LINE",
"234 453 OFFCURVE",
"254 401 OFFCURVE",
"276 349 CURVE SMOOTH"
);
},
{
closed = 1;
nodes = (
"617 690 LINE",
"563 690 LINE SMOOTH",
"499 690 OFFCURVE",
"469 664 OFFCURVE",
"469 589 CURVE SMOOTH",
"469 485 LINE SMOOTH",
"469 416 OFFCURVE",
"473 279 OFFCURVE",
"482 184 CURVE",
"470 180 LINE",
"426 0 LINE",
"463 -5 OFFCURVE",
"502 -6 OFFCURVE",
"523 -6 CURVE SMOOTH",
"544 -6 OFFCURVE",
"597 -3 OFFCURVE",
"624 3 CURVE",
"624 683 LINE"
);
}
);
width = 698;
}
);
unicode = 004E;
},
{
glyphname = O;
lastChange = "2014-06-06 07:55:32 +0000";
layers = (
{
anchors = (
{
name = bottom_U;
position = "{326, -20}";
},
{
name = top_U;
position = "{326, 732}";
}
);
layerId = UUID0;
paths = (
{
closed = 1;
nodes = (
"134 473 OFFCURVE",
"171 634 OFFCURVE",
"326 634 CURVE SMOOTH",
"481 634 OFFCURVE",
"517 473 OFFCURVE",
"517 342 CURVE SMOOTH",
"517 211 OFFCURVE",
"481 49 OFFCURVE",
"326 49 CURVE SMOOTH",
"171 49 OFFCURVE",
"134 211 OFFCURVE",
"134 342 CURVE SMOOTH"
);
},
{
closed = 1;
nodes = (
"58 230 OFFCURVE",
"88 114 OFFCURVE",
"164 46 CURVE SMOOTH",
"203 11 OFFCURVE",
"252 -12 OFFCURVE",
"326 -12 CURVE SMOOTH",
"400 -12 OFFCURVE",
"449 11 OFFCURVE",
"488 46 CURVE SMOOTH",
"564 114 OFFCURVE",
"594 230 OFFCURVE",
"594 342 CURVE SMOOTH",
"594 452 OFFCURVE",
"564 569 OFFCURVE",
"488 637 CURVE SMOOTH",
"449 672 OFFCURVE",
"400 695 OFFCURVE",
"326 695 CURVE SMOOTH",
"252 695 OFFCURVE",
"203 672 OFFCURVE",
"164 637 CURVE SMOOTH",
"88 569 OFFCURVE",
"58 452 OFFCURVE",
"58 342 CURVE SMOOTH"
);
}
);
width = 652;
},
{
anchors = (
{
name = bottom_U;
position = "{334, -20}";
},
{
name = top_U;
position = "{334, 732}";
}
);
layerId = UUID1;
paths = (
{
closed = 1;
nodes = (
"209 445 OFFCURVE",
"222 570 OFFCURVE",
"334 570 CURVE SMOOTH",
"446 570 OFFCURVE",
"459 445 OFFCURVE",
"459 342 CURVE SMOOTH",
"459 239 OFFCURVE",
"446 113 OFFCURVE",
"334 113 CURVE SMOOTH",
"222 113 OFFCURVE",
"209 239 OFFCURVE",
"209 342 CURVE SMOOTH"
);
},
{
closed = 1;
nodes = (
"34 238 OFFCURVE",
"57 118 OFFCURVE",
"141 48 CURVE SMOOTH",
"187 11 OFFCURVE",
"243 -15 OFFCURVE",
"334 -15 CURVE SMOOTH",
"426 -15 OFFCURVE",
"481 11 OFFCURVE",
"527 48 CURVE SMOOTH",
"611 118 OFFCURVE",
"634 238 OFFCURVE",
"634 342 CURVE SMOOTH",
"634 447 OFFCURVE",
"611 565 OFFCURVE",
"527 635 CURVE SMOOTH",
"481 672 OFFCURVE",
"426 698 OFFCURVE",
"334 698 CURVE SMOOTH",
"243 698 OFFCURVE",
"187 672 OFFCURVE",
"141 635 CURVE SMOOTH",
"57 565 OFFCURVE",
"34 447 OFFCURVE",
"34 342 CURVE SMOOTH"
);
}
);
width = 668;
}
);
leftKerningGroup = C;
rightKerningGroup = O;
unicode = 004F;
},
{
glyphname = P;
lastChange = "2014-06-06 07:55:32 +0000";
layers = (
{
anchors = (
{
name = bottom_U;
position = "{135, -20}";
},
{
name = top_U;
position = "{288, 732}";
}
);
layerId = UUID0;
paths = (
{
closed = 1;
nodes = (
"514 614 OFFCURVE",
"422 686 OFFCURVE",
"295 686 CURVE SMOOTH",
"232 686 OFFCURVE",
"175 684 OFFCURVE",
"106 683 CURVE",
"100 677 LINE",
"100 0 LINE",
"109 -2 OFFCURVE",
"122 -3 OFFCURVE",
"135 -3 CURVE SMOOTH",
"149 -3 OFFCURVE",
"162 -2 OFFCURVE",
"172 0 CURVE",
"172 626 LINE",
"209 625 OFFCURVE",
"264 625 OFFCURVE",
"298 625 CURVE SMOOTH",
"410 625 OFFCURVE",
"437 543 OFFCURVE",
"437 473 CURVE SMOOTH",
"437 405 OFFCURVE",
"410 320 OFFCURVE",
"298 320 CURVE SMOOTH",
"264 320 OFFCURVE",
"179 320 OFFCURVE",
"142 319 CURVE",
"142 259 LINE",
"295 259 LINE",
"424 259 OFFCURVE",
"514 333 OFFCURVE",
"514 473 CURVE SMOOTH"
);
}
);
width = 554;
},
{
anchors = (
{
name = bottom_U;
position = "{158, -20}";
},
{
name = top_U;
position = "{301, 732}";
}
);
layerId = UUID1;
paths = (
{
closed = 1;
nodes = (
"564 613 OFFCURVE",
"460 689 OFFCURVE",
"317 689 CURVE SMOOTH",
"240 689 OFFCURVE",
"168 687 OFFCURVE",
"81 685 CURVE",
"74 678 LINE",
"74 0 LINE",
"101 -5 OFFCURVE",
"138 -6 OFFCURVE",
"158 -6 CURVE SMOOTH",
"180 -6 OFFCURVE",
"214 -5 OFFCURVE",
"242 0 CURVE",
"242 562 LINE",
"268 561 OFFCURVE",
"283 561 OFFCURVE",
"302 561 CURVE SMOOTH",
"379 561 OFFCURVE",
"393 494 OFFCURVE",
"393 449 CURVE SMOOTH",
"393 403 OFFCURVE",
"379 337 OFFCURVE",
"302 337 CURVE SMOOTH",
"283 337 OFFCURVE",
"197 334 OFFCURVE",
"171 332 CURVE",
"171 210 LINE",
"317 210 LINE",
"460 210 OFFCURVE",
"564 291 OFFCURVE",
"564 449 CURVE SMOOTH"
);
}
);
width = 592;
}
);
unicode = 0050;
},
{
glyphname = Q;
lastChange = "2014-06-06 07:55:32 +0000";
layers = (
{
anchors = (
{
name = bottom_U;
position = "{320, -20}";
},
{
name = top_U;
position = "{320, 732}";
}
);
layerId = UUID0;
paths = (
{
closed = 1;
nodes = (
"134 475 OFFCURVE",
"165 634 OFFCURVE",
"320 634 CURVE SMOOTH",
"475 634 OFFCURVE",
"505 475 OFFCURVE",
"505 342 CURVE SMOOTH",
"505 209 OFFCURVE",
"475 52 OFFCURVE",
"320 52 CURVE SMOOTH",
"165 52 OFFCURVE",
"134 209 OFFCURVE",
"134 342 CURVE SMOOTH"
);
},
{
closed = 1;
nodes = (
"58 233 OFFCURVE",
"83 112 OFFCURVE",
"159 44 CURVE SMOOTH",
"198 9 OFFCURVE",
"252 -12 OFFCURVE",
"326 -12 CURVE SMOOTH",
"358 -12 OFFCURVE",
"366 -4 OFFCURVE",
"383 4 CURVE SMOOTH",
"418 5 OFFCURVE",
"451 20 OFFCURVE",
"483 49 CURVE SMOOTH",
"559 117 OFFCURVE",
"582 233 OFFCURVE",
"582 342 CURVE SMOOTH",
"582 449 OFFCURVE",
"557 571 OFFCURVE",
"481 639 CURVE SMOOTH",
"442 674 OFFCURVE",
"394 695 OFFCURVE",
"320 695 CURVE SMOOTH",
"246 695 OFFCURVE",
"198 674 OFFCURVE",
"159 639 CURVE SMOOTH",
"83 571 OFFCURVE",
"58 449 OFFCURVE",
"58 342 CURVE SMOOTH"
);
},
{
closed = 1;
nodes = (
"464 -98 LINE",
"482 -110 OFFCURVE",
"499 -117 OFFCURVE",
"522 -117 CURVE SMOOTH",
"545 -117 OFFCURVE",
"572 -103 OFFCURVE",
"575 -63 CURVE",
"544 -62 OFFCURVE",
"518 -52 OFFCURVE",
"448 -2 CURVE SMOOTH",
"391 39 LINE",
"306 13 LINE"
);
}
);
width = 640;
},
{
anchors = (
{
name = bottom_U;
position = "{282, -18}";
},
{
name = top_U;
position = "{336, 732}";
}
);
layerId = UUID1;
paths = (
{
closed = 1;
nodes = (
"206 446 OFFCURVE",
"223 570 OFFCURVE",
"336 570 CURVE SMOOTH",
"449 570 OFFCURVE",
"465 446 OFFCURVE",
"465 342 CURVE SMOOTH",
"465 239 OFFCURVE",
"449 113 OFFCURVE",
"336 113 CURVE SMOOTH",
"223 113 OFFCURVE",
"206 239 OFFCURVE",
"206 342 CURVE SMOOTH"
);
},
{
closed = 1;
nodes = (
"34 238 OFFCURVE",
"59 119 OFFCURVE",
"143 48 CURVE SMOOTH",
"189 11 OFFCURVE",
"244 -15 OFFCURVE",
"335 -15 CURVE SMOOTH",
"369 -15 OFFCURVE",
"399 2 OFFCURVE",
"424 22 CURVE SMOOTH",
"476 22 OFFCURVE",
"523 38 OFFCURVE",
"562 84 CURVE SMOOTH",
"623 153 OFFCURVE",
"638 250 OFFCURVE",
"638 341 CURVE SMOOTH",
"638 447 OFFCURVE",
"612 565 OFFCURVE",
"529 635 CURVE SMOOTH",
"484 673 OFFCURVE",
"428 698 OFFCURVE",
"336 698 CURVE SMOOTH",
"245 698 OFFCURVE",
"188 673 OFFCURVE",
"143 635 CURVE SMOOTH",
"59 565 OFFCURVE",
"34 447 OFFCURVE",
"34 342 CURVE SMOOTH"
);
},
{
closed = 1;
nodes = (
"433 -105 LINE",
"461 -130 OFFCURVE",
"495 -147 OFFCURVE",
"544 -147 CURVE SMOOTH",
"600 -147 OFFCURVE",
"648 -101 OFFCURVE",
"649 -28 CURVE",
"607 -28 OFFCURVE",
"574 -18 OFFCURVE",
"523 18 CURVE SMOOTH",
"426 87 LINE",
"276 36 LINE"
);
}
);
width = 672;
}
);
leftKerningGroup = C;
rightKerningGroup = O;
unicode = 0051;
},
{
glyphname = R;
lastChange = "2014-06-06 07:55:32 +0000";
layers = (
{
anchors = (
{
name = bottom_U;
position = "{303, -20}";
},
{
name = top_U;
position = "{295, 732}";
}
);
layerId = UUID0;
paths = (
{
closed = 1;
nodes = (
"522 610 OFFCURVE",
"445 686 OFFCURVE",
"306 686 CURVE SMOOTH",
"243 686 OFFCURVE",
"175 684 OFFCURVE",
"106 683 CURVE",
"100 677 LINE",
"100 0 LINE",
"109 -2 OFFCURVE",
"122 -3 OFFCURVE",
"135 -3 CURVE SMOOTH",
"149 -3 OFFCURVE",
"162 -2 OFFCURVE",
"172 0 CURVE",
"172 626 LINE",
"209 625 OFFCURVE",
"272 625 OFFCURVE",
"306 625 CURVE SMOOTH",
"418 625 OFFCURVE",
"446 555 OFFCURVE",
"446 489 CURVE SMOOTH",
"446 425 OFFCURVE",
"418 353 OFFCURVE",
"306 353 CURVE SMOOTH",
"256 353 OFFCURVE",
"189 352 OFFCURVE",
"142 350 CURVE",
"142 290 LINE",
"279 290 LINE SMOOTH",
"347 290 OFFCURVE",
"371 250 OFFCURVE",
"391 197 CURVE SMOOTH",
"450 42 LINE SMOOTH",
"462 11 OFFCURVE",
"473 -6 OFFCURVE",
"502 -6 CURVE SMOOTH",
"518 -6 OFFCURVE",
"542 1 OFFCURVE",
"552 18 CURVE",
"529 36 OFFCURVE",
"520 64 OFFCURVE",
"510 89 CURVE SMOOTH",
"457 227 LINE SMOOTH",
"443 263 OFFCURVE",
"420 297 OFFCURVE",
"390 307 CURVE",
"472 331 OFFCURVE",
"522 399 OFFCURVE",
"522 489 CURVE SMOOTH"
);
}
);
width = 591;
},
{
anchors = (
{
name = bottom_U;
position = "{327, -20}";
},
{
name = top_U;
position = "{305, 732}";
}
);
layerId = UUID1;
paths = (
{
closed = 1;
nodes = (
"570 624 OFFCURVE",
"463 689 OFFCURVE",
"324 689 CURVE SMOOTH",
"247 689 OFFCURVE",
"168 687 OFFCURVE",
"81 685 CURVE",
"74 678 LINE",
"74 0 LINE",
"101 -5 OFFCURVE",
"137 -6 OFFCURVE",
"157 -6 CURVE SMOOTH",
"179 -6 OFFCURVE",
"212 -5 OFFCURVE",
"240 0 CURVE",
"240 564 LINE",
"268 563 OFFCURVE",
"290 563 OFFCURVE",
"309 563 CURVE SMOOTH",
"382 563 OFFCURVE",
"399 521 OFFCURVE",
"399 470 CURVE SMOOTH",
"399 421 OFFCURVE",
"382 377 OFFCURVE",
"309 377 CURVE SMOOTH",
"290 377 OFFCURVE",
"210 374 OFFCURVE",
"172 372 CURVE",
"172 247 LINE",
"276 247 LINE SMOOTH",
"328 247 OFFCURVE",
"347 220 OFFCURVE",
"358 187 CURVE SMOOTH",
"392 87 LINE SMOOTH",
"414 23 OFFCURVE",
"434 -9 OFFCURVE",
"494 -9 CURVE SMOOTH",
"539 -9 OFFCURVE",
"584 12 OFFCURVE",
"605 40 CURVE",
"583 57 OFFCURVE",
"565 84 OFFCURVE",
"555 114 CURVE SMOOTH",
"527 194 LINE SMOOTH",
"512 238 OFFCURVE",
"487 273 OFFCURVE",
"449 287 CURVE",
"504 309 OFFCURVE",
"570 373 OFFCURVE",
"570 470 CURVE SMOOTH"
);
}
);
width = 617;
}
);
rightKerningGroup = R;
unicode = 0052;
},
{
glyphname = S;
lastChange = "2014-06-06 07:55:32 +0000";
layers = (
{
anchors = (
{
name = bottom_U;
position = "{273, -20}";
},
{
name = top_U;
position = "{288, 732}";
}
);
layerId = UUID0;
paths = (
{
closed = 1;
nodes = (
"102 18 OFFCURVE",
"187 -12 OFFCURVE",
"271 -12 CURVE SMOOTH",
"430 -12 OFFCURVE",
"505 69 OFFCURVE",
"505 180 CURVE SMOOTH",
"505 272 OFFCURVE",
"434 326 OFFCURVE",
"356 360 CURVE SMOOTH",
"243 409 LINE SMOOTH",
"190 432 OFFCURVE",
"144 461 OFFCURVE",
"144 517 CURVE SMOOTH",
"144 586 OFFCURVE",
"204 633 OFFCURVE",
"289 633 CURVE SMOOTH",
"339 633 OFFCURVE",
"401 614 OFFCURVE",
"454 587 CURVE",
"471 601 OFFCURVE",
"483 626 OFFCURVE",
"483 647 CURVE",
"431 672 OFFCURVE",
"362 695 OFFCURVE",
"286 695 CURVE SMOOTH",
"153 695 OFFCURVE",
"71 610 OFFCURVE",
"71 511 CURVE SMOOTH",
"71 432 OFFCURVE",
"120 381 OFFCURVE",
"205 344 CURVE SMOOTH",
"322 293 LINE SMOOTH",
"382 267 OFFCURVE",
"432 227 OFFCURVE",
"431 164 CURVE SMOOTH",
"430 94 OFFCURVE",
"369 52 OFFCURVE",
"274 52 CURVE SMOOTH",
"207 52 OFFCURVE",
"133 80 OFFCURVE",
"74 121 CURVE",
"58 109 OFFCURVE",
"42 85 OFFCURVE",
"40 63 CURVE"
);
}
);
width = 555;
},
{
anchors = (
{
name = bottom_U;
position = "{270, -20}";
},
{
name = top_U;
position = "{285, 732}";
}
);
layerId = UUID1;
paths = (
{
closed = 1;
nodes = (
"88 11 OFFCURVE",
"187 -15 OFFCURVE",
"268 -15 CURVE SMOOTH",
"444 -15 OFFCURVE",
"533 79 OFFCURVE",
"533 201 CURVE SMOOTH",
"533 287 OFFCURVE",
"480 358 OFFCURVE",
"382 400 CURVE SMOOTH",
"261 451 LINE SMOOTH",
"218 469 OFFCURVE",
"206 487 OFFCURVE",
"206 510 CURVE SMOOTH",
"206 533 OFFCURVE",
"225 564 OFFCURVE",
"280 564 CURVE SMOOTH",
"334 564 OFFCURVE",
"411 539 OFFCURVE",
"462 515 CURVE",
"494 545 OFFCURVE",
"515 592 OFFCURVE",
"518 640 CURVE",
"466 667 OFFCURVE",
"376 698 OFFCURVE",
"280 698 CURVE SMOOTH",
"144 698 OFFCURVE",
"34 614 OFFCURVE",
"34 487 CURVE SMOOTH",
"34 390 OFFCURVE",
"96 337 OFFCURVE",
"178 301 CURVE SMOOTH",
"296 251 LINE SMOOTH",
"351 227 OFFCURVE",
"355 199 OFFCURVE",
"355 181 CURVE SMOOTH",
"355 152 OFFCURVE",
"335 119 OFFCURVE",
"280 119 CURVE SMOOTH",
"208 119 OFFCURVE",
"133 151 OFFCURVE",
"77 184 CURVE",
"45 156 OFFCURVE",
"17 106 OFFCURVE",
"13 59 CURVE"
);
}
);
width = 557;
}
);
leftKerningGroup = S;
rightKerningGroup = S;
unicode = 0053;
},
{
glyphname = T;
lastChange = "2014-06-06 07:55:32 +0000";
layers = (
{
anchors = (
{
name = bottom_U;
position = "{241, -20}";
},
{
name = top_U;
position = "{240, 732}";
}
);
layerId = UUID0;
paths = (
{
closed = 1;
nodes = (
"151 621 LINE SMOOTH",
"164 621 OFFCURVE",
"192 622 OFFCURVE",
"205 622 CURVE SMOOTH",
"277 622 LINE SMOOTH",
"290 622 OFFCURVE",
"319 621 OFFCURVE",
"331 621 CURVE SMOOTH",
"420 621 LINE SMOOTH",
"450 621 OFFCURVE",
"464 630 OFFCURVE",
"464 653 CURVE SMOOTH",
"464 663 OFFCURVE",
"462 674 OFFCURVE",
"459 683 CURVE",
"22 683 LINE",
"20 672 OFFCURVE",
"19 662 OFFCURVE",
"19 652 CURVE SMOOTH",
"19 642 OFFCURVE",
"20 631 OFFCURVE",
"22 621 CURVE"
);
},
{
closed = 1;
nodes = (
"205 0 LINE",
"215 -2 OFFCURVE",
"229 -3 OFFCURVE",
"241 -3 CURVE SMOOTH",
"253 -3 OFFCURVE",
"267 -2 OFFCURVE",
"277 0 CURVE",
"277 548 LINE SMOOTH",
"277 575 OFFCURVE",
"277 594 OFFCURVE",
"277 622 CURVE SMOOTH",
"277 652 LINE",
"205 652 LINE",
"205 622 LINE SMOOTH",
"205 594 OFFCURVE",
"205 575 OFFCURVE",
"205 548 CURVE SMOOTH"
);
}
);
width = 481;
},
{
anchors = (
{
name = bottom_U;
position = "{257, -20}";
},
{
name = top_U;
position = "{257, 732}";
}
);
layerId = UUID1;
paths = (
{
closed = 1;
nodes = (
"109 544 LINE SMOOTH",
"124 544 OFFCURVE",
"158 545 OFFCURVE",
"173 545 CURVE SMOOTH",
"341 545 LINE SMOOTH",
"356 545 OFFCURVE",
"390 544 OFFCURVE",
"405 544 CURVE SMOOTH",
"429 544 LINE SMOOTH",
"489 544 OFFCURVE",
"516 564 OFFCURVE",
"516 619 CURVE SMOOTH",
"516 640 OFFCURVE",
"513 666 OFFCURVE",
"508 683 CURVE",
"8 683 LINE",
"3 658 OFFCURVE",
"2 632 OFFCURVE",
"2 613 CURVE SMOOTH",
"2 594 OFFCURVE",
"3 569 OFFCURVE",
"8 544 CURVE"
);
},
{
closed = 1;
nodes = (
"173 0 LINE",
"202 -5 OFFCURVE",
"234 -6 OFFCURVE",
"257 -6 CURVE SMOOTH",
"280 -6 OFFCURVE",
"312 -5 OFFCURVE",
"341 0 CURVE",
"341 471 LINE SMOOTH",
"341 498 OFFCURVE",
"340 517 OFFCURVE",
"340 545 CURVE SMOOTH",
"340 614 LINE",
"174 614 LINE",
"174 545 LINE SMOOTH",
"174 517 OFFCURVE",
"173 498 OFFCURVE",
"173 471 CURVE SMOOTH"
);
}
);
width = 512;
}
);
leftKerningGroup = T;
rightKerningGroup = T;
unicode = 0054;
},
{
glyphname = U;
lastChange = "2014-06-06 07:55:32 +0000";
layers = (
{
anchors = (
{
name = bottom_U;
position = "{333, -20}";
},
{
name = top_U;
position = "{333, 732}";
}
);
layerId = UUID0;
paths = (
{
closed = 1;
nodes = (
"574 683 LINE",
"564 685 OFFCURVE",
"551 686 OFFCURVE",
"537 686 CURVE SMOOTH",
"524 686 OFFCURVE",
"511 685 OFFCURVE",
"502 683 CURVE",
"502 233 LINE",
"502 112 OFFCURVE",
"439 48 OFFCURVE",
"333 48 CURVE",
"227 48 OFFCURVE",
"164 112 OFFCURVE",
"164 233 CURVE SMOOTH",
"164 639 LINE SMOOTH",
"164 670 OFFCURVE",
"159 686 OFFCURVE",
"127 686 CURVE SMOOTH",
"98 686 LINE",
"92 680 LINE",
"92 232 LINE SMOOTH",
"92 69 OFFCURVE",
"193 -12 OFFCURVE",
"332 -12 CURVE",
"473 -12 OFFCURVE",
"574 69 OFFCURVE",
"574 232 CURVE"
);
}
);
width = 666;
},
{
anchors = (
{
name = bottom_U;
position = "{337, -20}";
},
{
name = top_U;
position = "{334, 732}";
}
);
layerId = UUID1;
paths = (
{
closed = 1;
nodes = (
"610 683 LINE",
"583 688 OFFCURVE",
"544 689 OFFCURVE",
"524 689 CURVE SMOOTH",
"502 689 OFFCURVE",
"470 688 OFFCURVE",
"442 683 CURVE",
"442 252 LINE",
"442 163 OFFCURVE",
"415 118 OFFCURVE",
"337 118 CURVE",
"259 118 OFFCURVE",
"232 163 OFFCURVE",
"232 252 CURVE SMOOTH",
"232 584 LINE SMOOTH",
"232 659 OFFCURVE",
"196 690 OFFCURVE",
"132 690 CURVE SMOOTH",
"71 690 LINE",
"64 683 LINE",
"64 254 LINE SMOOTH",
"64 84 OFFCURVE",
"161 -15 OFFCURVE",
"337 -15 CURVE",
"513 -15 OFFCURVE",
"610 84 OFFCURVE",
"610 254 CURVE"
);
}
);
width = 674;
}
);
leftKerningGroup = U;
rightKerningGroup = U;
unicode = 0055;
},
{
glyphname = V;
lastChange = "2014-06-06 07:55:32 +0000";
layers = (
{
anchors = (
{
name = bottom_U;
position = "{279, -20}";
},
{
name = top_U;
position = "{284, 732}";
}
);
layerId = UUID0;
paths = (
{
closed = 1;
nodes = (
"289 71 LINE",
"285 71 OFFCURVE",
"283 72 OFFCURVE",
"281 79 CURVE SMOOTH",
"267 128 OFFCURVE",
"247 202 OFFCURVE",
"234 245 CURVE SMOOTH",
"113 654 LINE SMOOTH",
"105 682 OFFCURVE",
"91 689 OFFCURVE",
"73 689 CURVE SMOOTH",
"58 689 OFFCURVE",
"42 684 OFFCURVE",
"28 677 CURVE",
"223 34 LINE SMOOTH",
"233 0 OFFCURVE",
"251 -4 OFFCURVE",
"274 -4 CURVE SMOOTH",
"293 -4 OFFCURVE",
"308 -3 OFFCURVE",
"327 -1 CURVE",
"532 676 LINE",
"529 682 LINE",
"521 684 OFFCURVE",
"509 686 OFFCURVE",
"496 686 CURVE SMOOTH",
"483 686 OFFCURVE",
"473 685 OFFCURVE",
"465 683 CURVE"
);
}
);
width = 554;
},
{
anchors = (
{
name = bottom_U;
position = "{304, -20}";
},
{
name = top_U;
position = "{307, 732}";
}
);
layerId = UUID1;
paths = (
{
closed = 1;
nodes = (
"319 139 LINE",
"313 139 OFFCURVE",
"310 141 OFFCURVE",
"308 152 CURVE SMOOTH",
"299 211 OFFCURVE",
"287 275 OFFCURVE",
"271 335 CURVE SMOOTH",
"198 609 LINE SMOOTH",
"183 666 OFFCURVE",
"158 692 OFFCURVE",
"108 692 CURVE SMOOTH",
"71 692 OFFCURVE",
"37 681 OFFCURVE",
"7 668 CURVE",
"171 69 LINE SMOOTH",
"189 5 OFFCURVE",
"228 -6 OFFCURVE",
"284 -6 CURVE SMOOTH",
"327 -6 OFFCURVE",
"379 -4 OFFCURVE",
"418 0 CURVE",
"604 669 LINE",
"597 678 LINE",
"574 686 OFFCURVE",
"540 689 OFFCURVE",
"520 689 CURVE SMOOTH",
"498 689 OFFCURVE",
"472 689 OFFCURVE",
"447 683 CURVE"
);
}
);
width = 611;
}
);
unicode = 0056;
},
{
glyphname = W;
lastChange = "2014-06-06 07:55:32 +0000";
layers = (
{
anchors = (
{
name = bottom_U;
position = "{412, -20}";
},
{
name = top_U;
position = "{412, 732}";
}
);
layerId = UUID0;
paths = (
{
closed = 1;
nodes = (
"170 36 LINE",
"177 2 OFFCURVE",
"199 -4 OFFCURVE",
"221 -4 CURVE SMOOTH",
"238 -4 OFFCURVE",
"267 -3 OFFCURVE",
"285 0 CURVE",
"357 336 LINE SMOOTH",
"370 395 OFFCURVE",
"389 492 OFFCURVE",
"408 592 CURVE",
"414 592 LINE",
"432 492 OFFCURVE",
"451 393 OFFCURVE",
"462 336 CURVE SMOOTH",
"519 35 LINE SMOOTH",
"525 2 OFFCURVE",
"542 -4 OFFCURVE",
"564 -4 CURVE SMOOTH",
"582 -4 OFFCURVE",
"614 -3 OFFCURVE",
"633 1 CURVE",
"783 677 LINE",
"779 682 LINE",
"768 685 OFFCURVE",
"755 686 OFFCURVE",
"744 686 CURVE SMOOTH",
"733 686 OFFCURVE",
"720 685 OFFCURVE",
"711 683 CURVE",
"621 260 LINE SMOOTH",
"612 217 OFFCURVE",
"593 124 OFFCURVE",
"582 59 CURVE",
"577 59 OFFCURVE",
"576 60 OFFCURVE",
"574 69 CURVE SMOOTH",
"459 668 LINE",
"449 670 OFFCURVE",
"425 671 OFFCURVE",
"412 671 CURVE SMOOTH",
"400 671 OFFCURVE",
"378 670 OFFCURVE",
"364 668 CURVE",
"238 59 LINE",
"233 59 OFFCURVE",
"232 59 OFFCURVE",
"230 69 CURVE SMOOTH",
"221 117 OFFCURVE",
"203 217 OFFCURVE",
"195 260 CURVE SMOOTH",
"119 651 LINE SMOOTH",
"114 678 OFFCURVE",
"104 689 OFFCURVE",
"82 689 CURVE SMOOTH",
"69 689 OFFCURVE",
"57 688 OFFCURVE",
"40 680 CURVE"
);
}
);
width = 816;
},
{
anchors = (
{
name = bottom_U;
position = "{456, -20}";
},
{
name = top_U;
position = "{456, 732}";
}
);
layerId = UUID1;
paths = (
{
closed = 1;
nodes = (
"130 69 LINE",
"143 2 OFFCURVE",
"182 -6 OFFCURVE",
"236 -6 CURVE SMOOTH",
"282 -6 OFFCURVE",
"336 -3 OFFCURVE",
"376 1 CURVE",
"419 278 LINE SMOOTH",
"432 359 OFFCURVE",
"444 448 OFFCURVE",
"450 508 CURVE",
"458 508 LINE",
"462 448 OFFCURVE",
"473 358 OFFCURVE",
"485 278 CURVE SMOOTH",
"517 69 LINE SMOOTH",
"527 2 OFFCURVE",
"569 -6 OFFCURVE",
"619 -6 CURVE SMOOTH",
"663 -6 OFFCURVE",
"723 -3 OFFCURVE",
"761 1 CURVE",
"892 668 LINE",
"884 678 LINE",
"862 685 OFFCURVE",
"831 689 OFFCURVE",
"805 689 CURVE SMOOTH",
"782 689 OFFCURVE",
"755 688 OFFCURVE",
"730 683 CURVE",
"676 355 LINE SMOOTH",
"664 285 OFFCURVE",
"652 194 OFFCURVE",
"647 140 CURVE",
"641 140 OFFCURVE",
"638 140 OFFCURVE",
"636 154 CURVE SMOOTH",
"563 670 LINE",
"531 676 OFFCURVE",
"490 678 OFFCURVE",
"456 678 CURVE SMOOTH",
"423 678 OFFCURVE",
"382 676 OFFCURVE",
"349 670 CURVE",
"270 140 LINE",
"263 140 OFFCURVE",
"261 141 OFFCURVE",
"260 154 CURVE SMOOTH",
"256 202 OFFCURVE",
"244 286 OFFCURVE",
"233 353 CURVE SMOOTH",
"194 600 LINE SMOOTH",
"183 672 OFFCURVE",
"160 692 OFFCURVE",
"101 692 CURVE SMOOTH",
"71 692 OFFCURVE",
"37 683 OFFCURVE",
"13 673 CURVE"
);
}
);
width = 911;
}
);
leftKerningGroup = W;
rightKerningGroup = W;
unicode = 0057;
},
{
glyphname = X;
lastChange = "2014-06-06 07:55:32 +0000";
layers = (
{
anchors = (
{
name = bottom_U;
position = "{284, -20}";
},
{
name = top_U;
position = "{290, 732}";
}
);
layerId = UUID0;
paths = (
{
closed = 1;
nodes = (
"451 24 LINE",
"465 2 OFFCURVE",
"481 -6 OFFCURVE",
"496 -6 CURVE SMOOTH",
"511 -6 OFFCURVE",
"529 -1 OFFCURVE",
"545 11 CURVE",
"147 659 LINE SMOOTH",
"133 681 OFFCURVE",
"117 689 OFFCURVE",
"102 689 CURVE SMOOTH",
"87 689 OFFCURVE",
"69 684 OFFCURVE",
"53 672 CURVE"
);
},
{
closed = 1;
nodes = (
"283 406 LINE",
"253 375 LINE",
"24 9 LINE",
"27 3 LINE",
"34 -1 OFFCURVE",
"49 -4 OFFCURVE",
"64 -4 CURVE SMOOTH",
"74 -4 OFFCURVE",
"91 -2 OFFCURVE",
"96 0 CURVE",
"290 318 LINE",
"320 348 LINE",
"523 674 LINE",
"520 680 LINE",
"513 684 OFFCURVE",
"498 687 OFFCURVE",
"483 687 CURVE SMOOTH",
"473 687 OFFCURVE",
"458 685 OFFCURVE",
"453 683 CURVE"
);
}
);
width = 569;
},
{
anchors = (
{
name = bottom_U;
position = "{305, -20}";
},
{
name = top_U;
position = "{314, 732}";
}
);
layerId = UUID1;
paths = (
{
closed = 1;
nodes = (
"396 56 LINE",
"428 6 OFFCURVE",
"456 -10 OFFCURVE",
"504 -10 CURVE SMOOTH",
"539 -10 OFFCURVE",
"580 4 OFFCURVE",
"613 26 CURVE",
"237 628 LINE SMOOTH",
"206 677 OFFCURVE",
"179 693 OFFCURVE",
"131 693 CURVE SMOOTH",
"96 693 OFFCURVE",
"55 679 OFFCURVE",
"22 657 CURVE"
);
},
{
closed = 1;
nodes = (
"309 475 LINE",
"241 399 LINE",
"7 17 LINE",
"11 8 LINE",
"35 0 OFFCURVE",
"69 -6 OFFCURVE",
"101 -6 CURVE SMOOTH",
"130 -6 OFFCURVE",
"153 -4 OFFCURVE",
"171 0 CURVE",
"311 237 LINE",
"379 314 LINE",
"593 667 LINE",
"589 675 LINE",
"567 683 OFFCURVE",
"533 689 OFFCURVE",
"501 689 CURVE SMOOTH",
"472 689 OFFCURVE",
"449 687 OFFCURVE",
"431 683 CURVE"
);
}
);
width = 620;
}
);
unicode = 0058;
},
{
glyphname = Y;
lastChange = "2014-06-06 07:55:32 +0000";
layers = (
{
anchors = (
{
name = bottom_U;
position = "{239, -20}";
},
{
name = top_U;
position = "{243, 732}";
}
);
layerId = UUID0;
paths = (
{
closed = 1;
nodes = (
"204 0 LINE",
"213 -2 OFFCURVE",
"226 -3 OFFCURVE",
"239 -3 CURVE SMOOTH",
"253 -3 OFFCURVE",
"266 -2 OFFCURVE",
"276 0 CURVE",
"276 269 LINE",
"204 269 LINE"
);
},
{
closed = 1;
nodes = (
"288 416 LINE SMOOTH",
"281 398 OFFCURVE",
"257 336 OFFCURVE",
"247 303 CURVE",
"242 303 LINE",
"232 335 OFFCURVE",
"215 385 OFFCURVE",
"202 416 CURVE SMOOTH",
"103 655 LINE SMOOTH",
"94 678 OFFCURVE",
"83 690 OFFCURVE",
"63 690 CURVE SMOOTH",
"51 690 OFFCURVE",
"37 687 OFFCURVE",
"16 675 CURVE",
"214 202 LINE",
"267 202 LINE",
"464 676 LINE",
"461 682 LINE",
"450 685 OFFCURVE",
"439 687 OFFCURVE",
"426 687 CURVE SMOOTH",
"416 687 OFFCURVE",
"404 686 OFFCURVE",
"394 683 CURVE"
);
}
);
width = 478;
},
{
anchors = (
{
name = bottom_U;
position = "{275, -20}";
},
{
name = top_U;
position = "{277, 732}";
}
);
layerId = UUID1;
paths = (
{
closed = 1;
nodes = (
"190 0 LINE",
"217 -5 OFFCURVE",
"255 -6 OFFCURVE",
"275 -6 CURVE SMOOTH",
"297 -6 OFFCURVE",
"330 -5 OFFCURVE",
"358 0 CURVE",
"358 309 LINE",
"190 309 LINE"
);
},
{
closed = 1;
nodes = (
"331 522 LINE SMOOTH",
"312 474 OFFCURVE",
"294 422 OFFCURVE",
"281 370 CURVE",
"275 370 LINE",
"261 426 OFFCURVE",
"246 473 OFFCURVE",
"229 516 CURVE SMOOTH",
"186 625 LINE SMOOTH",
"167 672 OFFCURVE",
"145 691 OFFCURVE",
"98 691 CURVE SMOOTH",
"62 691 OFFCURVE",
"24 679 OFFCURVE",
"-4 663 CURVE",
"200 190 LINE",
"350 190 LINE",
"552 668 LINE",
"545 677 LINE",
"523 685 OFFCURVE",
"491 689 OFFCURVE",
"463 689 CURVE SMOOTH",
"441 689 OFFCURVE",
"418 688 OFFCURVE",
"395 683 CURVE"
);
}
);
width = 548;
}
);
leftKerningGroup = Y;
rightKerningGroup = Y;
unicode = 0059;
},
{
glyphname = Z;
lastChange = "2014-06-06 07:55:32 +0000";
layers = (
{
anchors = (
{
name = bottom_U;
position = "{278, -20}";
},
{
name = top_U;
position = "{281, 732}";
}
);
layerId = UUID0;
paths = (
{
closed = 1;
nodes = (
"65 86 LINE",
"57 73 OFFCURVE",
"54 60 OFFCURVE",
"54 49 CURVE SMOOTH",
"54 40 OFFCURVE",
"55 31 OFFCURVE",
"65 0 CURVE",
"443 0 LINE SMOOTH",
"484 0 OFFCURVE",
"497 17 OFFCURVE",
"497 43 CURVE SMOOTH",
"497 56 OFFCURVE",
"494 69 OFFCURVE",
"490 81 CURVE",
"464 69 OFFCURVE",
"424 65 OFFCURVE",
"369 65 CURVE SMOOTH",
"234 65 LINE SMOOTH",
"210 65 OFFCURVE",
"174 64 OFFCURVE",
"132 60 CURVE",
"129 63 LINE",
"155 101 OFFCURVE",
"185 143 OFFCURVE",
"208 179 CURVE SMOOTH",
"477 599 LINE SMOOTH",
"485 612 OFFCURVE",
"489 623 OFFCURVE",
"489 633 CURVE SMOOTH",
"489 642 OFFCURVE",
"487 653 OFFCURVE",
"478 683 CURVE",
"85 683 LINE",
"81 670 OFFCURVE",
"79 657 OFFCURVE",
"79 644 CURVE SMOOTH",
"79 636 OFFCURVE",
"80 627 OFFCURVE",
"82 619 CURVE",
"254 619 LINE",
"278 619 OFFCURVE",
"388 621 OFFCURVE",
"411 626 CURVE",
"414 623 LINE",
"384 580 OFFCURVE",
"359 546 OFFCURVE",
"337 512 CURVE SMOOTH"
);
}
);
width = 551;
},
{
anchors = (
{
name = bottom_U;
position = "{286, -20}";
},
{
name = top_U;
position = "{289, 732}";
}
);
layerId = UUID1;
paths = (
{
closed = 1;
nodes = (
"56 161 LINE",
"43 143 OFFCURVE",
"36 120 OFFCURVE",
"36 100 CURVE SMOOTH",
"36 86 OFFCURVE",
"38 74 OFFCURVE",
"54 0 CURVE",
"437 0 LINE SMOOTH",
"500 0 OFFCURVE",
"546 28 OFFCURVE",
"546 88 CURVE SMOOTH",
"546 114 OFFCURVE",
"541 143 OFFCURVE",
"535 163 CURVE",
"508 150 OFFCURVE",
"471 139 OFFCURVE",
"423 139 CURVE SMOOTH",
"374 139 LINE SMOOTH",
"330 139 OFFCURVE",
"263 135 OFFCURVE",
"220 132 CURVE",
"217 135 LINE",
"243 161 OFFCURVE",
"276 201 OFFCURVE",
"295 227 CURVE SMOOTH",
"514 523 LINE SMOOTH",
"528 543 OFFCURVE",
"532 562 OFFCURVE",
"532 581 CURVE SMOOTH",
"532 593 OFFCURVE",
"531 604 OFFCURVE",
"509 683 CURVE",
"62 683 LINE",
"55 655 OFFCURVE",
"51 632 OFFCURVE",
"51 603 CURVE SMOOTH",
"51 585 OFFCURVE",
"52 567 OFFCURVE",
"57 547 CURVE",
"198 547 LINE",
"240 547 OFFCURVE",
"303 550 OFFCURVE",
"352 556 CURVE",
"355 553 LINE",
"330 527 OFFCURVE",
"293 482 OFFCURVE",
"274 456 CURVE SMOOTH"
);
}
);
width = 582;
}
);
leftKerningGroup = Z;
rightKerningGroup = Z;
unicode = 005A;
},
{
glyphname = a;
lastChange = "2014-06-06 07:55:32 +0000";
layers = (
{
anchors = (
{
name = bottom;
position = "{246, -20}";
},
{
name = top;
position = "{241, 542}";
}
);
layerId = UUID0;
paths = (
{
closed = 1;
nodes = (
"52 62 OFFCURVE",
"99 -12 OFFCURVE",
"196 -12 CURVE SMOOTH",
"282 -12 OFFCURVE",
"348 55 OFFCURVE",
"382 95 CURVE",
"370 161 LINE",
"327 85 OFFCURVE",
"258 48 OFFCURVE",
"204 48 CURVE SMOOTH",
"151 48 OFFCURVE",
"123 88 OFFCURVE",
"123 138 CURVE SMOOTH",
"123 203 OFFCURVE",
"168 240 OFFCURVE",
"239 240 CURVE SMOOTH",
"285 240 OFFCURVE",
"335 237 OFFCURVE",
"375 228 CURVE",
"375 278 LINE",
"332 289 OFFCURVE",
"281 293 OFFCURVE",
"239 293 CURVE SMOOTH",
"127 293 OFFCURVE",
"52 243 OFFCURVE",
"52 133 CURVE SMOOTH"
);
},
{
closed = 1;
nodes = (
"421 53 OFFCURVE",
"418 85 OFFCURVE",
"418 128 CURVE SMOOTH",
"418 334 LINE SMOOTH",
"418 441 OFFCURVE",
"369 500 OFFCURVE",
"264 500 CURVE SMOOTH",
"194 500 OFFCURVE",
"119 475 OFFCURVE",
"70 453 CURVE",
"70 434 OFFCURVE",
"82 409 OFFCURVE",
"95 398 CURVE",
"148 422 OFFCURVE",
"204 440 OFFCURVE",
"259 440 CURVE SMOOTH",
"315 440 OFFCURVE",
"351 412 OFFCURVE",
"351 336 CURVE SMOOTH",
"351 103 LINE",
"351 51 OFFCURVE",
"366 12 OFFCURVE",
"413 -7 CURVE",
"428 0 OFFCURVE",
"441 16 OFFCURVE",
"446 29 CURVE"
);
}
);
width = 503;
},
{
anchors = (
{
name = bottom;
position = "{256, -20}";
},
{
name = top;
position = "{251, 542}";
}
);
layerId = UUID1;
paths = (
{
closed = 1;
nodes = (
"28 65 OFFCURVE",
"77 -15 OFFCURVE",
"181 -15 CURVE SMOOTH",
"271 -15 OFFCURVE",
"322 34 OFFCURVE",
"362 81 CURVE",
"339 183 LINE",
"312 135 OFFCURVE",
"269 105 OFFCURVE",
"230 105 CURVE SMOOTH",
"204 105 OFFCURVE",
"187 123 OFFCURVE",
"187 148 CURVE SMOOTH",
"187 183 OFFCURVE",
"203 208 OFFCURVE",
"245 208 CURVE SMOOTH",
"270 208 OFFCURVE",
"316 208 OFFCURVE",
"344 202 CURVE",
"344 305 LINE",
"308 312 OFFCURVE",
"256 312 OFFCURVE",
"227 312 CURVE SMOOTH",
"125 312 OFFCURVE",
"28 258 OFFCURVE",
"28 137 CURVE SMOOTH"
);
},
{
closed = 1;
nodes = (
"468 89 OFFCURVE",
"459 110 OFFCURVE",
"459 138 CURVE SMOOTH",
"459 341 LINE SMOOTH",
"459 469 OFFCURVE",
"365 512 OFFCURVE",
"279 512 CURVE SMOOTH",
"215 512 OFFCURVE",
"116 496 OFFCURVE",
"47 468 CURVE",
"51 428 OFFCURVE",
"63 382 OFFCURVE",
"86 355 CURVE",
"138 370 OFFCURVE",
"190 386 OFFCURVE",
"232 386 CURVE SMOOTH",
"276 386 OFFCURVE",
"295 365 OFFCURVE",
"295 326 CURVE SMOOTH",
"295 114 LINE",
"305 61 OFFCURVE",
"346 -8 OFFCURVE",
"438 -8 CURVE",
"458 8 OFFCURVE",
"481 47 OFFCURVE",
"487 76 CURVE"
);
}
);
width = 514;
}
);
leftKerningGroup = a;
rightKerningGroup = a;
unicode = 0061;
},
{
glyphname = b;
lastChange = "2014-06-06 07:55:32 +0000";
layers = (
{
anchors = (
{
name = bottom;
position = "{261, -20}";
},
{
name = top;
position = "{261, 542}";
}
);
layerId = UUID0;
paths = (
{
closed = 1;
nodes = (
"158 687 LINE",
"158 718 OFFCURVE",
"153 735 OFFCURVE",
"121 735 CURVE SMOOTH",
"96 735 LINE",
"90 729 LINE",
"90 25 LINE",
"158 25 LINE"
);
},
{
closed = 1;
nodes = (
"471 396 OFFCURVE",
"413 498 OFFCURVE",
"301 498 CURVE SMOOTH",
"216 498 OFFCURVE",
"153 438 OFFCURVE",
"129 400 CURVE",
"140 337 LINE",
"169 391 OFFCURVE",
"230 437 OFFCURVE",
"292 437 CURVE SMOOTH",
"349 437 OFFCURVE",
"401 383 OFFCURVE",
"401 251 CURVE SMOOTH",
"401 111 OFFCURVE",
"336 47 OFFCURVE",
"262 47 CURVE SMOOTH",
"208 47 OFFCURVE",
"170 57 OFFCURVE",
"126 82 CURVE",
"90 25 LINE",
"147 4 OFFCURVE",
"204 -7 OFFCURVE",
"263 -7 CURVE SMOOTH",
"366 -7 OFFCURVE",
"471 68 OFFCURVE",
"471 251 CURVE SMOOTH"
);
}
);
width = 523;
},
{
anchors = (
{
name = bottom;
position = "{261, -20}";
},
{
name = top;
position = "{261, 542}";
}
);
layerId = UUID1;
paths = (
{
closed = 1;
nodes = (
"217 638 LINE",
"217 711 OFFCURVE",
"190 736 OFFCURVE",
"126 736 CURVE SMOOTH",
"64 736 LINE",
"57 729 LINE",
"57 25 LINE",
"217 25 LINE"
);
},
{
closed = 1;
nodes = (
"508 403 OFFCURVE",
"449 510 OFFCURVE",
"330 510 CURVE SMOOTH",
"261 510 OFFCURVE",
"213 482 OFFCURVE",
"171 442 CURVE",
"194 319 LINE",
"218 364 OFFCURVE",
"254 380 OFFCURVE",
"280 379 CURVE SMOOTH",
"322 378 OFFCURVE",
"340 341 OFFCURVE",
"340 254 CURVE SMOOTH",
"340 165 OFFCURVE",
"318 108 OFFCURVE",
"258 108 CURVE SMOOTH",
"213 108 OFFCURVE",
"171 121 OFFCURVE",
"134 145 CURVE",
"57 25 LINE",
"110 4 OFFCURVE",
"181 -9 OFFCURVE",
"255 -9 CURVE SMOOTH",
"412 -9 OFFCURVE",
"509 96 OFFCURVE",
"508 257 CURVE SMOOTH"
);
}
);
width = 536;
}
);
unicode = 0062;
},
{
glyphname = c;
lastChange = "2014-06-06 07:55:32 +0000";
layers = (
{
anchors = (
{
name = bottom;
position = "{247, -20}";
},
{
name = top;
position = "{251, 542}";
}
);
layerId = UUID0;
paths = (
{
closed = 1;
nodes = (
"369 317 OFFCURVE",
"378 316 OFFCURVE",
"388 316 CURVE SMOOTH",
"420 316 OFFCURVE",
"425 337 OFFCURVE",
"425 361 CURVE SMOOTH",
"425 411 OFFCURVE",
"381 502 OFFCURVE",
"253 502 CURVE SMOOTH",
"150 502 OFFCURVE",
"53 421 OFFCURVE",
"53 241 CURVE SMOOTH",
"53 117 OFFCURVE",
"104 -12 OFFCURVE",
"247 -12 CURVE SMOOTH",
"317 -12 OFFCURVE",
"373 17 OFFCURVE",
"419 60 CURVE",
"415 77 OFFCURVE",
"399 96 OFFCURVE",
"385 105 CURVE",
"348 77 OFFCURVE",
"306 49 OFFCURVE",
"256 49 CURVE SMOOTH",
"175 49 OFFCURVE",
"126 112 OFFCURVE",
"126 241 CURVE SMOOTH",
"126 375 OFFCURVE",
"177 446 OFFCURVE",
"251 446 CURVE SMOOTH",
"337 446 OFFCURVE",
"362 376 OFFCURVE",
"358 319 CURVE"
);
}
);
width = 469;
},
{
anchors = (
{
name = bottom;
position = "{251, -20}";
},
{
name = top;
position = "{252, 542}";
}
);
layerId = UUID1;
paths = (
{
closed = 1;
nodes = (
"325 270 OFFCURVE",
"343 268 OFFCURVE",
"371 268 CURVE SMOOTH",
"416 268 OFFCURVE",
"451 292 OFFCURVE",
"451 347 CURVE SMOOTH",
"451 450 OFFCURVE",
"365 515 OFFCURVE",
"254 515 CURVE SMOOTH",
"144 515 OFFCURVE",
"28 444 OFFCURVE",
"28 249 CURVE SMOOTH",
"28 86 OFFCURVE",
"107 -15 OFFCURVE",
"251 -15 CURVE SMOOTH",
"325 -15 OFFCURVE",
"403 15 OFFCURVE",
"447 62 CURVE",
"440 94 OFFCURVE",
"412 138 OFFCURVE",
"386 153 CURVE",
"355 131 OFFCURVE",
"316 112 OFFCURVE",
"278 112 CURVE SMOOTH",
"223 112 OFFCURVE",
"195 145 OFFCURVE",
"195 249 CURVE SMOOTH",
"195 351 OFFCURVE",
"207 394 OFFCURVE",
"251 394 CURVE SMOOTH",
"300 394 OFFCURVE",
"305 353 OFFCURVE",
"305 274 CURVE"
);
}
);
width = 475;
}
);
leftKerningGroup = c;
rightKerningGroup = c;
unicode = 0063;
},
{
glyphname = d;
lastChange = "2014-06-06 07:55:32 +0000";
layers = (
{
anchors = (
{
name = bottom;
position = "{262, -20}";
},
{
name = top;
position = "{262, 542}";
}
);
layerId = UUID0;
paths = (
{
closed = 1;
nodes = (
"433 687 LINE",
"433 718 OFFCURVE",
"428 735 OFFCURVE",
"396 735 CURVE SMOOTH",
"371 735 LINE",
"365 729 LINE",
"365 113 LINE SMOOTH",
"365 61 OFFCURVE",
"377 13 OFFCURVE",
"428 -7 CURVE",
"443 0 OFFCURVE",
"456 16 OFFCURVE",
"461 29 CURVE",
"436 53 OFFCURVE",
"433 95 OFFCURVE",
"433 138 CURVE SMOOTH"
);
},
{
closed = 1;
nodes = (
"52 90 OFFCURVE",
"110 -12 OFFCURVE",
"219 -12 CURVE SMOOTH",
"310 -12 OFFCURVE",
"377 52 OFFCURVE",
"402 111 CURVE",
"390 180 LINE",
"365 100 OFFCURVE",
"294 49 OFFCURVE",
"232 49 CURVE SMOOTH",
"175 49 OFFCURVE",
"122 103 OFFCURVE",
"122 239 CURVE SMOOTH",
"122 380 OFFCURVE",
"183 437 OFFCURVE",
"244 437 CURVE SMOOTH",
"305 437 OFFCURVE",
"358 398 OFFCURVE",
"396 369 CURVE",
"399 432 LINE",
"351 470 OFFCURVE",
"298 498 OFFCURVE",
"238 498 CURVE SMOOTH",
"152 498 OFFCURVE",
"52 422 OFFCURVE",
"52 239 CURVE SMOOTH"
);
}
);
width = 524;
},
{
anchors = (
{
name = bottom;
position = "{264, -20}";
},
{
name = top;
position = "{262, 542}";
}
);
layerId = UUID1;
paths = (
{
closed = 1;
nodes = (
"481 638 LINE",
"481 711 OFFCURVE",
"456 736 OFFCURVE",
"392 736 CURVE SMOOTH",
"328 736 LINE",
"321 729 LINE",
"321 145 LINE SMOOTH",
"321 59 OFFCURVE",
"369 -8 OFFCURVE",
"460 -8 CURVE",
"480 8 OFFCURVE",
"503 47 OFFCURVE",
"509 76 CURVE",
"493 87 OFFCURVE",
"481 114 OFFCURVE",
"481 145 CURVE SMOOTH"
);
},
{
closed = 1;
nodes = (
"30 92 OFFCURVE",
"88 -15 OFFCURVE",
"211 -15 CURVE SMOOTH",
"310 -15 OFFCURVE",
"391 69 OFFCURVE",
"399 152 CURVE",
"362 242 LINE",
"335 134 OFFCURVE",
"283 116 OFFCURVE",
"254 116 CURVE SMOOTH",
"221 116 OFFCURVE",
"198 154 OFFCURVE",
"198 243 CURVE SMOOTH",
"198 331 OFFCURVE",
"214 389 OFFCURVE",
"261 389 CURVE SMOOTH",
"291 389 OFFCURVE",
"332 364 OFFCURVE",
"371 332 CURVE",
"398 447 LINE",
"354 473 OFFCURVE",
"302 510 OFFCURVE",
"232 510 CURVE SMOOTH",
"120 510 OFFCURVE",
"30 415 OFFCURVE",
"30 244 CURVE SMOOTH"
);
}
);
width = 540;
}
);
leftKerningGroup = d;
unicode = 0064;
},
{
glyphname = e;
lastChange = "2014-06-06 07:55:32 +0000";
layers = (
{
anchors = (
{
name = bottom;
position = "{253, -20}";
},
{
name = top;
position = "{255, 542}";
}
);
layerId = UUID0;
paths = (
{
closed = 1;
nodes = (
"440 224 LINE",
"443 248 OFFCURVE",
"444 264 OFFCURVE",
"444 288 CURVE SMOOTH",
"444 406 OFFCURVE",
"380 502 OFFCURVE",
"252 502 CURVE SMOOTH",
"126 502 OFFCURVE",
"53 394 OFFCURVE",
"53 246 CURVE SMOOTH",
"53 109 OFFCURVE",
"101 -12 OFFCURVE",
"249 -12 CURVE SMOOTH",
"317 -12 OFFCURVE",
"384 12 OFFCURVE",
"430 44 CURVE",
"428 59 OFFCURVE",
"417 81 OFFCURVE",
"404 93 CURVE",
"360 68 OFFCURVE",
"312 50 OFFCURVE",
"258 50 CURVE SMOOTH",
"159 50 OFFCURVE",
"127 129 OFFCURVE",
"127 240 CURVE SMOOTH",
"127 262 LINE SMOOTH",
"127 373 OFFCURVE",
"171 448 OFFCURVE",
"252 448 CURVE SMOOTH",
"339 448 OFFCURVE",
"373 377 OFFCURVE",
"373 292 CURVE SMOOTH",
"373 278 LINE",
"95 278 LINE",
"95 224 LINE"
);
}
);
width = 503;
},
{
anchors = (
{
name = bottom;
position = "{254, -20}";
},
{
name = top;
position = "{255, 542}";
}
);
layerId = UUID1;
paths = (
{
closed = 1;
nodes = (
"450 197 LINE",
"460 231 OFFCURVE",
"464 257 OFFCURVE",
"464 303 CURVE SMOOTH",
"464 424 OFFCURVE",
"386 515 OFFCURVE",
"254 515 CURVE SMOOTH",
"92 515 OFFCURVE",
"28 397 OFFCURVE",
"28 246 CURVE SMOOTH",
"28 114 OFFCURVE",
"75 -15 OFFCURVE",
"253 -15 CURVE SMOOTH",
"324 -15 OFFCURVE",
"400 5 OFFCURVE",
"451 42 CURVE",
"446 74 OFFCURVE",
"432 114 OFFCURVE",
"408 138 CURVE",
"368 122 OFFCURVE",
"324 109 OFFCURVE",
"280 109 CURVE SMOOTH",
"201 109 OFFCURVE",
"192 168 OFFCURVE",
"192 233 CURVE SMOOTH",
"192 282 LINE SMOOTH",
"192 363 OFFCURVE",
"207 399 OFFCURVE",
"253 399 CURVE SMOOTH",
"297 399 OFFCURVE",
"314 363 OFFCURVE",
"314 320 CURVE SMOOTH",
"314 309 LINE",
"133 309 LINE",
"133 197 LINE"
);
}
);
width = 496;
}
);
leftKerningGroup = c;
rightKerningGroup = e;
unicode = 0065;
},
{
glyphname = f;
lastChange = "2014-06-06 07:55:32 +0000";
layers = (
{
anchors = (
{
name = bottom;
position = "{143, -20}";
},
{
name = top;
position = "{160, 542}";
}
);
layerId = UUID0;
paths = (
{
closed = 1;
nodes = (
"23 491 LINE",
"21 481 OFFCURVE",
"20 474 OFFCURVE",
"20 464 CURVE SMOOTH",
"20 454 OFFCURVE",
"21 446 OFFCURVE",
"23 437 CURVE",
"142 439 LINE",
"320 437 LINE",
"322 446 OFFCURVE",
"323 454 OFFCURVE",
"323 464 CURVE SMOOTH",
"323 474 OFFCURVE",
"322 481 OFFCURVE",
"320 491 CURVE",
"141 489 LINE"
);
},
{
closed = 1;
nodes = (
"109 0 LINE",
"119 -2 OFFCURVE",
"132 -3 OFFCURVE",
"143 -3 CURVE SMOOTH",
"154 -3 OFFCURVE",
"167 -2 OFFCURVE",
"177 0 CURVE",
"177 457 LINE",
"170 507 OFFCURVE",
"164 551 OFFCURVE",
"164 592 CURVE SMOOTH",
"164 652 OFFCURVE",
"194 686 OFFCURVE",
"243 686 CURVE SMOOTH",
"272 686 OFFCURVE",
"305 679 OFFCURVE",
"335 670 CURVE",
"346 682 OFFCURVE",
"352 701 OFFCURVE",
"352 718 CURVE",
"324 729 OFFCURVE",
"275 739 OFFCURVE",
"241 739 CURVE SMOOTH",
"147 739 OFFCURVE",
"99 676 OFFCURVE",
"99 595 CURVE SMOOTH",
"99 557 OFFCURVE",
"105 509 OFFCURVE",
"109 459 CURVE"
);
}
);
width = 318;
},
{
anchors = (
{
name = bottom;
position = "{165, -20}";
},
{
name = top;
position = "{168, 542}";
}
);
layerId = UUID1;
paths = (
{
closed = 1;
nodes = (
"0 501 LINE",
"-4 483 OFFCURVE",
"-6 462 OFFCURVE",
"-6 444 CURVE SMOOTH",
"-6 426 OFFCURVE",
"-4 403 OFFCURVE",
"0 385 CURVE",
"164 388 LINE",
"364 385 LINE",
"368 403 OFFCURVE",
"370 426 OFFCURVE",
"370 444 CURVE SMOOTH",
"370 462 OFFCURVE",
"368 483 OFFCURVE",
"364 501 CURVE",
"166 499 LINE"
);
},
{
closed = 1;
nodes = (
"86 0 LINE",
"111 -4 OFFCURVE",
"139 -6 OFFCURVE",
"165 -6 CURVE SMOOTH",
"192 -6 OFFCURVE",
"221 -4 OFFCURVE",
"246 0 CURVE",
"246 431 LINE",
"241 467 OFFCURVE",
"230 514 OFFCURVE",
"230 551 CURVE SMOOTH",
"230 595 OFFCURVE",
"254 617 OFFCURVE",
"296 617 CURVE SMOOTH",
"323 617 OFFCURVE",
"353 609 OFFCURVE",
"372 604 CURVE",
"393 626 OFFCURVE",
"408 675 OFFCURVE",
"407 712 CURVE",
"372 725 OFFCURVE",
"315 740 OFFCURVE",
"250 740 CURVE SMOOTH",
"145 740 OFFCURVE",
"73 664 OFFCURVE",
"73 563 CURVE SMOOTH",
"73 517 OFFCURVE",
"82 475 OFFCURVE",
"86 432 CURVE"
);
}
);
width = 361;
}
);
leftKerningGroup = f;
unicode = 0066;
},
{
glyphname = g;
lastChange = "2014-06-06 07:55:32 +0000";
layers = (
{
anchors = (
{
name = bottom;
position = "{255, -232}";
},
{
name = top;
position = "{257, 542}";
}
);
layerId = UUID0;
paths = (
{
closed = 1;
nodes = (
"457 474 OFFCURVE",
"444 490 OFFCURVE",
"429 497 CURVE",
"378 477 OFFCURVE",
"368 429 OFFCURVE",
"368 377 CURVE",
"368 0 LINE SMOOTH",
"368 -86 OFFCURVE",
"351 -163 OFFCURVE",
"231 -163 CURVE SMOOTH",
"195 -163 OFFCURVE",
"135 -151 OFFCURVE",
"94 -131 CURVE",
"83 -144 OFFCURVE",
"75 -167 OFFCURVE",
"74 -186 CURVE",
"116 -204 OFFCURVE",
"177 -220 OFFCURVE",
"238 -220 CURVE SMOOTH",
"310 -220 OFFCURVE",
"362 -191 OFFCURVE",
"389 -158 CURVE SMOOTH",
"421 -119 OFFCURVE",
"434 -64 OFFCURVE",
"434 35 CURVE SMOOTH",
"434 352 LINE SMOOTH",
"434 395 OFFCURVE",
"437 437 OFFCURVE",
"462 461 CURVE"
);
},
{
closed = 1;
nodes = (
"52 92 OFFCURVE",
"110 -8 OFFCURVE",
"222 -8 CURVE SMOOTH",
"307 -8 OFFCURVE",
"370 54 OFFCURVE",
"394 92 CURVE",
"383 153 LINE",
"354 99 OFFCURVE",
"293 53 OFFCURVE",
"231 53 CURVE SMOOTH",
"172 53 OFFCURVE",
"122 108 OFFCURVE",
"122 244 CURVE SMOOTH",
"122 384 OFFCURVE",
"181 441 OFFCURVE",
"246 441 CURVE SMOOTH",
"305 441 OFFCURVE",
"365 403 OFFCURVE",
"398 360 CURVE",
"405 423 LINE",
"366 464 OFFCURVE",
"318 502 OFFCURVE",
"237 502 CURVE SMOOTH",
"152 502 OFFCURVE",
"52 425 OFFCURVE",
"52 244 CURVE SMOOTH"
);
}
);
width = 523;
},
{
anchors = (
{
name = bottom;
position = "{264, -232}";
},
{
name = top;
position = "{274, 542}";
}
);
layerId = UUID1;
paths = (
{
closed = 1;
nodes = (
"506 453 OFFCURVE",
"481 492 OFFCURVE",
"461 508 CURVE",
"370 508 OFFCURVE",
"322 441 OFFCURVE",
"322 355 CURVE",
"322 -4 LINE SMOOTH",
"322 -63 OFFCURVE",
"293 -100 OFFCURVE",
"224 -100 CURVE SMOOTH",
"179 -100 OFFCURVE",
"132 -89 OFFCURVE",
"89 -70 CURVE",
"66 -97 OFFCURVE",
"49 -150 OFFCURVE",
"49 -188 CURVE",
"102 -208 OFFCURVE",
"176 -221 OFFCURVE",
"239 -221 CURVE SMOOTH",
"320 -221 OFFCURVE",
"389 -199 OFFCURVE",
"430 -147 CURVE SMOOTH",
"461 -107 OFFCURVE",
"482 -48 OFFCURVE",
"482 96 CURVE SMOOTH",
"482 355 LINE SMOOTH",
"482 386 OFFCURVE",
"494 413 OFFCURVE",
"510 424 CURVE"
);
},
{
closed = 1;
nodes = (
"30 97 OFFCURVE",
"88 -10 OFFCURVE",
"211 -10 CURVE SMOOTH",
"280 -10 OFFCURVE",
"345 30 OFFCURVE",
"379 88 CURVE",
"356 201 LINE",
"330 147 OFFCURVE",
"291 121 OFFCURVE",
"253 121 CURVE SMOOTH",
"221 121 OFFCURVE",
"198 159 OFFCURVE",
"198 248 CURVE SMOOTH",
"198 337 OFFCURVE",
"214 394 OFFCURVE",
"261 394 CURVE SMOOTH",
"295 394 OFFCURVE",
"342 355 OFFCURVE",
"381 280 CURVE",
"408 413 LINE",
"384 457 OFFCURVE",
"331 515 OFFCURVE",
"232 515 CURVE SMOOTH",
"121 515 OFFCURVE",
"30 420 OFFCURVE",
"30 249 CURVE SMOOTH"
);
}
);
width = 537;
}
);
leftKerningGroup = d;
unicode = 0067;
},
{
glyphname = h;
lastChange = "2014-06-06 07:55:32 +0000";
layers = (
{
anchors = (
{
name = bottom;
position = "{275, -20}";
},
{
name = top;
position = "{122, 782}";
}
);
layerId = UUID0;
paths = (
{
closed = 1;
nodes = (
"158 687 LINE",
"158 718 OFFCURVE",
"153 735 OFFCURVE",
"121 735 CURVE SMOOTH",
"96 735 LINE",
"90 729 LINE",
"90 0 LINE",
"99 -2 OFFCURVE",
"110 -3 OFFCURVE",
"124 -3 CURVE SMOOTH",
"137 -3 OFFCURVE",
"149 -2 OFFCURVE",
"158 0 CURVE"
);
},
{
closed = 1;
nodes = (
"460 343 LINE",
"460 427 OFFCURVE",
"427 498 OFFCURVE",
"332 498 CURVE SMOOTH",
"259 498 OFFCURVE",
"182 459 OFFCURVE",
"139 404 CURVE",
"139 329 LINE",
"172 387 OFFCURVE",
"253 435 OFFCURVE",
"316 435 CURVE SMOOTH",
"375 435 OFFCURVE",
"391 401 OFFCURVE",
"391 320 CURVE SMOOTH",
"391 40 LINE SMOOTH",
"391 9 OFFCURVE",
"401 -6 OFFCURVE",
"427 -6 CURVE SMOOTH",
"443 -6 OFFCURVE",
"461 0 OFFCURVE",
"471 9 CURVE",
"462 31 OFFCURVE",
"460 61 OFFCURVE",
"460 93 CURVE SMOOTH"
);
}
);
width = 544;
},
{
anchors = (
{
name = bottom;
position = "{278, -20}";
},
{
name = top;
position = "{132, 771}";
}
);
layerId = UUID1;
paths = (
{
closed = 1;
nodes = (
"217 638 LINE",
"217 711 OFFCURVE",
"192 736 OFFCURVE",
"128 736 CURVE SMOOTH",
"64 736 LINE",
"57 729 LINE",
"57 0 LINE",
"82 -4 OFFCURVE",
"110 -6 OFFCURVE",
"136 -6 CURVE SMOOTH",
"165 -6 OFFCURVE",
"194 -4 OFFCURVE",
"217 0 CURVE"
);
},
{
closed = 1;
nodes = (
"488 329 LINE",
"488 435 OFFCURVE",
"438 509 OFFCURVE",
"347 509 CURVE SMOOTH",
"276 509 OFFCURVE",
"225 465 OFFCURVE",
"178 420 CURVE",
"178 278 LINE",
"208 341 OFFCURVE",
"256 362 OFFCURVE",
"284 362 CURVE SMOOTH",
"315 362 OFFCURVE",
"324 342 OFFCURVE",
"324 300 CURVE SMOOTH",
"324 93 LINE SMOOTH",
"324 28 OFFCURVE",
"346 -8 OFFCURVE",
"412 -8 CURVE SMOOTH",
"453 -8 OFFCURVE",
"490 7 OFFCURVE",
"514 27 CURVE",
"495 53 OFFCURVE",
"488 88 OFFCURVE",
"488 128 CURVE SMOOTH"
);
}
);
width = 543;
}
);
rightKerningGroup = h;
unicode = 0068;
},
{
glyphname = k;
lastChange = "2014-06-06 07:55:32 +0000";
layers = (
{
anchors = (
{
name = bottom;
position = "{265, -20}";
},
{
name = top;
position = "{244, 542}";
}
);
layerId = UUID0;
paths = (
{
closed = 1;
nodes = (
"158 687 LINE",
"158 718 OFFCURVE",
"153 735 OFFCURVE",
"121 735 CURVE SMOOTH",
"96 735 LINE",
"90 729 LINE",
"90 0 LINE",
"99 -2 OFFCURVE",
"110 -3 OFFCURVE",
"124 -3 CURVE SMOOTH",
"137 -3 OFFCURVE",
"149 -2 OFFCURVE",
"158 0 CURVE"
);
},
{
closed = 1;
nodes = (
"377 178 LINE",
"346 246 OFFCURVE",
"314 273 OFFCURVE",
"242 273 CURVE SMOOTH",
"123 273 LINE",
"123 219 LINE",
"156 222 LINE SMOOTH",
"180 224 OFFCURVE",
"200 225 OFFCURVE",
"213 225 CURVE SMOOTH",
"271 225 OFFCURVE",
"290 208 OFFCURVE",
"316 150 CURVE SMOOTH",
"363 45 LINE SMOOTH",
"377 14 OFFCURVE",
"387 -6 OFFCURVE",
"419 -6 CURVE SMOOTH",
"437 -6 OFFCURVE",
"457 4 OFFCURVE",
"465 15 CURVE",
"448 27 OFFCURVE",
"432 55 OFFCURVE",
"417 89 CURVE SMOOTH"
);
},
{
closed = 1;
nodes = (
"430 484 LINE",
"424 492 LINE",
"411 493 OFFCURVE",
"403 493 OFFCURVE",
"390 493 CURVE SMOOTH",
"360 493 OFFCURVE",
"350 480 OFFCURVE",
"335 458 CURVE SMOOTH",
"225 296 LINE SMOOTH",
"219 288 OFFCURVE",
"212 283 OFFCURVE",
"203 283 CURVE SMOOTH",
"128 279 LINE",
"128 247 LINE",
"209 247 LINE SMOOTH",
"247 247 OFFCURVE",
"275 259 OFFCURVE",
"300 296 CURVE SMOOTH"
);
}
);
width = 488;
},
{
anchors = (
{
name = bottom;
position = "{274, -20}";
},
{
name = top;
position = "{244, 542}";
}
);
layerId = UUID1;
paths = (
{
closed = 1;
nodes = (
"217 638 LINE",
"217 711 OFFCURVE",
"192 736 OFFCURVE",
"128 736 CURVE SMOOTH",
"64 736 LINE",
"57 729 LINE",
"57 0 LINE",
"81 -4 OFFCURVE",
"109 -6 OFFCURVE",
"136 -6 CURVE SMOOTH",
"164 -6 OFFCURVE",
"194 -4 OFFCURVE",
"217 0 CURVE"
);
},
{
closed = 1;
nodes = (
"449 201 LINE",
"426 270 OFFCURVE",
"367 299 OFFCURVE",
"294 299 CURVE SMOOTH",
"134 299 LINE",
"134 187 LINE",
"175 192 LINE SMOOTH",
"197 195 OFFCURVE",
"216 198 OFFCURVE",
"246 198 CURVE SMOOTH",
"271 198 OFFCURVE",
"287 189 OFFCURVE",
"300 148 CURVE SMOOTH",
"328 63 LINE SMOOTH",
"345 11 OFFCURVE",
"364 -8 OFFCURVE",
"410 -8 CURVE SMOOTH",
"452 -8 OFFCURVE",
"494 14 OFFCURVE",
"520 43 CURVE",
"491 64 OFFCURVE",
"483 94 OFFCURVE",
"472 129 CURVE SMOOTH"
);
},
{
closed = 1;
nodes = (
"494 494 LINE",
"488 502 LINE",
"458 503 OFFCURVE",
"431 504 OFFCURVE",
"396 504 CURVE SMOOTH",
"353 504 OFFCURVE",
"325 484 OFFCURVE",
"306 445 CURVE SMOOTH",
"259 350 LINE SMOOTH",
"251 335 OFFCURVE",
"245 332 OFFCURVE",
"230 332 CURVE SMOOTH",
"154 331 LINE",
"154 256 LINE",
"241 256 LINE SMOOTH",
"332 256 OFFCURVE",
"391 287 OFFCURVE",
"422 348 CURVE SMOOTH"
);
}
);
width = 526;
}
);
rightKerningGroup = k;
unicode = 006B;
},
{
glyphname = l;
lastChange = "2014-06-06 07:55:32 +0000";
layers = (
{
anchors = (
{
name = bottom;
position = "{164, -20}";
},
{
name = top;
position = "{119, 782}";
}
);
layerId = UUID0;
paths = (
{
closed = 1;
nodes = (
"193 54 LINE",
"169 54 OFFCURVE",
"156 68 OFFCURVE",
"156 96 CURVE SMOOTH",
"156 687 LINE SMOOTH",
"156 718 OFFCURVE",
"151 735 OFFCURVE",
"119 735 CURVE SMOOTH",
"94 735 LINE",
"88 729 LINE",
"88 76 LINE SMOOTH",
"88 24 OFFCURVE",
"122 -4 OFFCURVE",
"170 -4 CURVE SMOOTH",
"190 -4 OFFCURVE",
"222 -1 OFFCURVE",
"241 2 CURVE",
"242 6 OFFCURVE",
"242 11 OFFCURVE",
"242 16 CURVE SMOOTH",
"242 30 OFFCURVE",
"240 44 OFFCURVE",
"236 54 CURVE"
);
}
);
width = 281;
},
{
anchors = (
{
name = bottom;
position = "{180, -20}";
},
{
name = top;
position = "{132, 771}";
}
);
layerId = UUID1;
paths = (
{
closed = 1;
nodes = (
"260 119 LINE",
"228 119 OFFCURVE",
"216 136 OFFCURVE",
"216 167 CURVE SMOOTH",
"216 638 LINE SMOOTH",
"216 711 OFFCURVE",
"191 736 OFFCURVE",
"127 736 CURVE SMOOTH",
"63 736 LINE",
"56 729 LINE",
"56 139 LINE SMOOTH",
"56 40 OFFCURVE",
"90 -5 OFFCURVE",
"184 -5 CURVE SMOOTH",
"224 -5 OFFCURVE",
"264 0 OFFCURVE",
"295 5 CURVE",
"298 16 OFFCURVE",
"299 30 OFFCURVE",
"299 42 CURVE SMOOTH",
"299 68 OFFCURVE",
"294 96 OFFCURVE",
"286 119 CURVE"
);
}
);
width = 316;
}
);
leftKerningGroup = l;
rightKerningGroup = l;
unicode = 006C;
},
{
glyphname = m;
lastChange = "2014-06-06 07:55:32 +0000";
layers = (
{
anchors = (
{
name = bottom;
position = "{398, -20}";
},
{
name = top;
position = "{395, 542}";
}
);
layerId = UUID0;
paths = (
{
closed = 1;
nodes = (
"96 493 LINE",
"90 486 LINE",
"90 0 LINE",
"99 -2 OFFCURVE",
"111 -3 OFFCURVE",
"125 -3 CURVE SMOOTH",
"138 -3 OFFCURVE",
"150 -2 OFFCURVE",
"159 0 CURVE",
"159 445 LINE SMOOTH",
"159 476 OFFCURVE",
"154 493 OFFCURVE",
"122 493 CURVE SMOOTH"
);
},
{
closed = 1;
nodes = (
"363 0 LINE",
"372 -2 OFFCURVE",
"384 -3 OFFCURVE",
"398 -3 CURVE SMOOTH",
"411 -3 OFFCURVE",
"423 -2 OFFCURVE",
"432 0 CURVE",
"432 345 LINE SMOOTH",
"432 429 OFFCURVE",
"394 499 OFFCURVE",
"307 499 CURVE SMOOTH",
"243 499 OFFCURVE",
"175 459 OFFCURVE",
"134 392 CURVE",
"134 313 LINE",
"167 388 OFFCURVE",
"240 436 OFFCURVE",
"294 436 CURVE SMOOTH",
"345 436 OFFCURVE",
"363 402 OFFCURVE",
"363 321 CURVE"
);
},
{
closed = 1;
nodes = (
"637 40 LINE SMOOTH",
"637 9 OFFCURVE",
"647 -6 OFFCURVE",
"673 -6 CURVE SMOOTH",
"689 -6 OFFCURVE",
"707 0 OFFCURVE",
"717 9 CURVE",
"708 31 OFFCURVE",
"706 61 OFFCURVE",
"706 93 CURVE SMOOTH",
"706 345 LINE SMOOTH",
"706 429 OFFCURVE",
"668 499 OFFCURVE",
"581 499 CURVE SMOOTH",
"517 499 OFFCURVE",
"457 463 OFFCURVE",
"405 409 CURVE",
"405 313 LINE",
"444 393 OFFCURVE",
"515 436 OFFCURVE",
"568 436 CURVE SMOOTH",
"619 436 OFFCURVE",
"637 403 OFFCURVE",
"637 322 CURVE"
);
}
);
width = 790;
},
{
anchors = (
{
name = bottom;
position = "{406, -20}";
},
{
name = top;
position = "{397, 542}";
}
);
layerId = UUID1;
paths = (
{
closed = 1;
nodes = (
"64 507 LINE",
"57 500 LINE",
"57 0 LINE",
"81 -4 OFFCURVE",
"112 -6 OFFCURVE",
"139 -6 CURVE SMOOTH",
"167 -6 OFFCURVE",
"198 -4 OFFCURVE",
"221 0 CURVE",
"221 388 LINE SMOOTH",
"221 461 OFFCURVE",
"187 507 OFFCURVE",
"125 507 CURVE SMOOTH"
);
},
{
closed = 1;
nodes = (
"324 0 LINE",
"348 -4 OFFCURVE",
"379 -6 OFFCURVE",
"406 -6 CURVE SMOOTH",
"434 -6 OFFCURVE",
"465 -4 OFFCURVE",
"488 0 CURVE",
"488 351 LINE SMOOTH",
"488 443 OFFCURVE",
"437 509 OFFCURVE",
"350 509 CURVE SMOOTH",
"277 509 OFFCURVE",
"216 451 OFFCURVE",
"168 399 CURVE",
"168 259 LINE",
"184 303 OFFCURVE",
"239 361 OFFCURVE",
"281 362 CURVE SMOOTH",
"300 362 OFFCURVE",
"324 350 OFFCURVE",
"324 299 CURVE"
);
},
{
closed = 1;
nodes = (
"591 93 LINE SMOOTH",
"591 28 OFFCURVE",
"613 -8 OFFCURVE",
"679 -8 CURVE SMOOTH",
"720 -8 OFFCURVE",
"757 7 OFFCURVE",
"781 27 CURVE",
"762 53 OFFCURVE",
"755 88 OFFCURVE",
"755 128 CURVE SMOOTH",
"755 349 LINE SMOOTH",
"755 441 OFFCURVE",
"709 509 OFFCURVE",
"621 509 CURVE SMOOTH",
"550 509 OFFCURVE",
"475 456 OFFCURVE",
"431 402 CURVE",
"431 253 LINE",
"453 302 OFFCURVE",
"508 362 OFFCURVE",
"546 362 CURVE SMOOTH",
"565 362 OFFCURVE",
"591 351 OFFCURVE",
"591 300 CURVE"
);
}
);
width = 810;
}
);
leftKerningGroup = m;
rightKerningGroup = h;
unicode = 006D;
},
{
glyphname = n;
lastChange = "2014-06-06 07:55:32 +0000";
layers = (
{
anchors = (
{
name = bottom;
position = "{276, -20}";
},
{
name = top;
position = "{277, 542}";
}
);
layerId = UUID0;
paths = (
{
closed = 1;
nodes = (
"96 493 LINE",
"90 487 LINE",
"90 0 LINE",
"99 -2 OFFCURVE",
"111 -3 OFFCURVE",
"125 -3 CURVE SMOOTH",
"138 -3 OFFCURVE",
"150 -2 OFFCURVE",
"159 0 CURVE",
"159 445 LINE SMOOTH",
"159 476 OFFCURVE",
"154 493 OFFCURVE",
"122 493 CURVE SMOOTH"
);
},
{
closed = 1;
nodes = (
"461 344 LINE",
"461 428 OFFCURVE",
"428 499 OFFCURVE",
"333 499 CURVE SMOOTH",
"260 499 OFFCURVE",
"183 460 OFFCURVE",
"140 405 CURVE",
"140 330 LINE",
"173 388 OFFCURVE",
"254 436 OFFCURVE",
"317 436 CURVE SMOOTH",
"376 436 OFFCURVE",
"392 402 OFFCURVE",
"392 321 CURVE SMOOTH",
"392 40 LINE SMOOTH",
"392 9 OFFCURVE",
"402 -6 OFFCURVE",
"428 -6 CURVE SMOOTH",
"444 -6 OFFCURVE",
"462 0 OFFCURVE",
"472 9 CURVE",
"463 31 OFFCURVE",
"461 61 OFFCURVE",
"461 93 CURVE SMOOTH"
);
}
);
width = 545;
},
{
anchors = (
{
name = bottom;
position = "{282, -20}";
},
{
name = top;
position = "{281, 542}";
}
);
layerId = UUID1;
paths = (
{
closed = 1;
nodes = (
"64 507 LINE",
"57 500 LINE",
"57 0 LINE",
"81 -4 OFFCURVE",
"112 -6 OFFCURVE",
"139 -6 CURVE SMOOTH",
"167 -6 OFFCURVE",
"198 -4 OFFCURVE",
"221 0 CURVE",
"221 388 LINE SMOOTH",
"221 461 OFFCURVE",
"188 507 OFFCURVE",
"126 507 CURVE SMOOTH"
);
},
{
closed = 1;
nodes = (
"492 329 LINE",
"492 435 OFFCURVE",
"442 509 OFFCURVE",
"351 509 CURVE SMOOTH",
"280 509 OFFCURVE",
"229 465 OFFCURVE",
"182 420 CURVE",
"182 278 LINE",
"212 341 OFFCURVE",
"260 362 OFFCURVE",
"288 362 CURVE SMOOTH",
"319 362 OFFCURVE",
"328 342 OFFCURVE",
"328 300 CURVE SMOOTH",
"328 93 LINE SMOOTH",
"328 28 OFFCURVE",
"350 -8 OFFCURVE",
"416 -8 CURVE SMOOTH",
"457 -8 OFFCURVE",
"494 7 OFFCURVE",
"518 27 CURVE",
"499 53 OFFCURVE",
"492 88 OFFCURVE",
"492 128 CURVE SMOOTH"
);
}
);
width = 547;
}
);
leftKerningGroup = m;
rightKerningGroup = h;
unicode = 006E;
},
{
glyphname = o;
lastChange = "2014-06-06 07:55:32 +0000";
layers = (
{
anchors = (
{
name = bottom;
position = "{259, -20}";
},
{
name = top;
position = "{259, 542}";
}
);
layerId = UUID0;
paths = (
{
closed = 1;
nodes = (
"466 324 OFFCURVE",
"448 396 OFFCURVE",
"396 449 CURVE SMOOTH",
"361 484 OFFCURVE",
"316 502 OFFCURVE",
"259 502 CURVE SMOOTH",
"203 502 OFFCURVE",
"158 484 OFFCURVE",
"123 449 CURVE SMOOTH",
"71 396 OFFCURVE",
"53 324 OFFCURVE",
"53 245 CURVE SMOOTH",
"53 165 OFFCURVE",
"71 94 OFFCURVE",
"123 41 CURVE SMOOTH",
"158 6 OFFCURVE",
"203 -12 OFFCURVE",
"259 -12 CURVE SMOOTH",
"316 -12 OFFCURVE",
"361 6 OFFCURVE",
"396 41 CURVE SMOOTH",
"448 94 OFFCURVE",
"466 165 OFFCURVE",
"466 245 CURVE SMOOTH"
);
},
{
closed = 1;
nodes = (
"125 344 OFFCURVE",
"158 448 OFFCURVE",
"260 448 CURVE SMOOTH",
"361 448 OFFCURVE",
"394 344 OFFCURVE",
"394 245 CURVE SMOOTH",
"394 145 OFFCURVE",
"361 43 OFFCURVE",
"260 43 CURVE SMOOTH",
"158 43 OFFCURVE",
"125 145 OFFCURVE",
"125 245 CURVE SMOOTH"
);
}
);
width = 519;
},
{
anchors = (
{
name = bottom;
position = "{261, -20}";
},
{
name = top;
position = "{261, 542}";
}
);
layerId = UUID1;
paths = (
{
closed = 1;
nodes = (
"494 338 OFFCURVE",
"475 403 OFFCURVE",
"422 456 CURVE SMOOTH",
"380 497 OFFCURVE",
"324 515 OFFCURVE",
"261 515 CURVE SMOOTH",
"198 515 OFFCURVE",
"142 497 OFFCURVE",
"100 456 CURVE SMOOTH",
"47 403 OFFCURVE",
"28 338 OFFCURVE",
"28 250 CURVE SMOOTH",
"28 162 OFFCURVE",
"47 97 OFFCURVE",
"100 44 CURVE SMOOTH",
"142 3 OFFCURVE",
"198 -15 OFFCURVE",
"261 -15 CURVE SMOOTH",
"324 -15 OFFCURVE",
"380 3 OFFCURVE",
"422 44 CURVE SMOOTH",
"475 97 OFFCURVE",
"494 162 OFFCURVE",
"494 250 CURVE SMOOTH"
);
},
{
closed = 1;
nodes = (
"196 331 OFFCURVE",
"203 393 OFFCURVE",
"261 393 CURVE SMOOTH",
"319 393 OFFCURVE",
"326 331 OFFCURVE",
"326 250 CURVE SMOOTH",
"326 169 OFFCURVE",
"319 107 OFFCURVE",
"261 107 CURVE SMOOTH",
"203 107 OFFCURVE",
"196 169 OFFCURVE",
"196 250 CURVE SMOOTH"
);
}
);
width = 522;
}
);
leftKerningGroup = c;
rightKerningGroup = o;
unicode = 006F;
},
{
glyphname = p;
lastChange = "2014-06-06 07:55:32 +0000";
layers = (
{
anchors = (
{
name = bottom;
position = "{262, -20}";
},
{
name = top;
position = "{262, 542}";
}
);
layerId = UUID0;
paths = (
{
closed = 1;
nodes = (
"96 493 LINE",
"90 487 LINE",
"90 -209 LINE",
"96 -215 LINE",
"121 -215 LINE SMOOTH",
"153 -215 OFFCURVE",
"158 -198 OFFCURVE",
"158 -167 CURVE SMOOTH",
"158 445 LINE SMOOTH",
"158 476 OFFCURVE",
"153 493 OFFCURVE",
"121 493 CURVE SMOOTH"
);
},
{
closed = 1;
nodes = (
"473 400 OFFCURVE",
"415 502 OFFCURVE",
"306 502 CURVE SMOOTH",
"215 502 OFFCURVE",
"148 438 OFFCURVE",
"123 379 CURVE",
"135 310 LINE",
"160 390 OFFCURVE",
"231 441 OFFCURVE",
"293 441 CURVE SMOOTH",
"350 441 OFFCURVE",
"403 387 OFFCURVE",
"403 251 CURVE SMOOTH",
"403 110 OFFCURVE",
"342 53 OFFCURVE",
"281 53 CURVE SMOOTH",
"220 53 OFFCURVE",
"167 92 OFFCURVE",
"129 121 CURVE",
"126 58 LINE",
"174 20 OFFCURVE",
"227 -8 OFFCURVE",
"287 -8 CURVE SMOOTH",
"373 -8 OFFCURVE",
"473 68 OFFCURVE",
"473 251 CURVE SMOOTH"
);
}
);
width = 525;
},
{
anchors = (
{
name = bottom;
position = "{262, -20}";
},
{
name = top;
position = "{262, 542}";
}
);
layerId = UUID1;
paths = (
{
closed = 1;
nodes = (
"64 507 LINE",
"57 500 LINE",
"57 -209 LINE",
"64 -216 LINE",
"128 -216 LINE SMOOTH",
"192 -216 OFFCURVE",
"218 -191 OFFCURVE",
"218 -118 CURVE SMOOTH",
"218 368 LINE SMOOTH",
"218 454 OFFCURVE",
"173 507 OFFCURVE",
"107 507 CURVE SMOOTH"
);
},
{
closed = 1;
nodes = (
"509 408 OFFCURVE",
"451 515 OFFCURVE",
"328 515 CURVE SMOOTH",
"229 515 OFFCURVE",
"148 431 OFFCURVE",
"140 348 CURVE",
"177 258 LINE",
"204 366 OFFCURVE",
"256 384 OFFCURVE",
"285 384 CURVE SMOOTH",
"318 384 OFFCURVE",
"341 346 OFFCURVE",
"341 257 CURVE SMOOTH",
"341 169 OFFCURVE",
"325 111 OFFCURVE",
"278 111 CURVE SMOOTH",
"248 111 OFFCURVE",
"207 136 OFFCURVE",
"168 168 CURVE",
"141 53 LINE",
"185 27 OFFCURVE",
"237 -10 OFFCURVE",
"307 -10 CURVE SMOOTH",
"419 -10 OFFCURVE",
"509 85 OFFCURVE",
"509 256 CURVE SMOOTH"
);
}
);
width = 539;
}
);
leftKerningGroup = m;
unicode = 0070;
},
{
glyphname = q;
lastChange = "2014-06-06 07:55:32 +0000";
layers = (
{
anchors = (
{
name = bottom;
position = "{261, -20}";
},
{
name = top;
position = "{261, 542}";
}
);
layerId = UUID0;
paths = (
{
closed = 1;
nodes = (
"52 92 OFFCURVE",
"110 -8 OFFCURVE",
"222 -8 CURVE SMOOTH",
"307 -8 OFFCURVE",
"370 52 OFFCURVE",
"394 90 CURVE",
"383 153 LINE",
"354 99 OFFCURVE",
"293 53 OFFCURVE",
"231 53 CURVE SMOOTH",
"174 53 OFFCURVE",
"122 108 OFFCURVE",
"122 244 CURVE SMOOTH",
"122 384 OFFCURVE",
"183 441 OFFCURVE",
"246 441 CURVE SMOOTH",
"305 441 OFFCURVE",
"365 403 OFFCURVE",
"398 360 CURVE",
"405 425 LINE",
"366 466 OFFCURVE",
"318 502 OFFCURVE",
"237 502 CURVE SMOOTH",
"152 502 OFFCURVE",
"52 425 OFFCURVE",
"52 244 CURVE SMOOTH"
);
},
{
closed = 1;
nodes = (
"366 -167 LINE",
"366 -198 OFFCURVE",
"371 -215 OFFCURVE",
"403 -215 CURVE SMOOTH",
"428 -215 LINE",
"434 -209 LINE",
"434 352 LINE SMOOTH",
"434 395 OFFCURVE",
"437 437 OFFCURVE",
"462 461 CURVE",
"457 474 OFFCURVE",
"444 490 OFFCURVE",
"429 497 CURVE",
"378 477 OFFCURVE",
"366 429 OFFCURVE",
"366 377 CURVE SMOOTH"
);
}
);
width = 523;
},
{
anchors = (
{
name = bottom;
position = "{261, -20}";
},
{
name = top;
position = "{261, 542}";
}
);
layerId = UUID1;
paths = (
{
closed = 1;
nodes = (
"30 97 OFFCURVE",
"88 -10 OFFCURVE",
"211 -10 CURVE SMOOTH",
"280 -10 OFFCURVE",
"345 30 OFFCURVE",
"379 88 CURVE",
"356 201 LINE",
"330 147 OFFCURVE",
"291 121 OFFCURVE",
"253 121 CURVE SMOOTH",
"221 121 OFFCURVE",
"198 159 OFFCURVE",
"198 248 CURVE SMOOTH",
"198 337 OFFCURVE",
"214 394 OFFCURVE",
"261 394 CURVE SMOOTH",
"295 394 OFFCURVE",
"342 355 OFFCURVE",
"381 280 CURVE",
"408 413 LINE",
"384 457 OFFCURVE",
"331 515 OFFCURVE",
"232 515 CURVE SMOOTH",
"121 515 OFFCURVE",
"30 420 OFFCURVE",
"30 249 CURVE SMOOTH"
);
},
{
closed = 1;
nodes = (
"321 -118 LINE",
"321 -191 OFFCURVE",
"346 -216 OFFCURVE",
"410 -216 CURVE SMOOTH",
"474 -216 LINE",
"481 -209 LINE",
"481 355 LINE SMOOTH",
"481 386 OFFCURVE",
"493 413 OFFCURVE",
"509 424 CURVE",
"503 453 OFFCURVE",
"480 492 OFFCURVE",
"460 508 CURVE",
"369 508 OFFCURVE",
"321 441 OFFCURVE",
"321 355 CURVE SMOOTH"
);
}
);
width = 540;
}
);
leftKerningGroup = d;
unicode = 0071;
},
{
glyphname = r;
lastChange = "2014-06-06 07:55:32 +0000";
layers = (
{
anchors = (
{
name = bottom;
position = "{134, -20}";
},
{
name = top;
position = "{197, 542}";
}
);
layerId = UUID0;
paths = (
{
closed = 1;
nodes = (
"323 496 OFFCURVE",
"307 497 OFFCURVE",
"297 497 CURVE SMOOTH",
"185 497 OFFCURVE",
"140 389 OFFCURVE",
"140 305 CURVE",
"153 289 LINE",
"165 338 OFFCURVE",
"201 428 OFFCURVE",
"292 428 CURVE",
"303 428 OFFCURVE",
"315 428 OFFCURVE",
"326 427 CURVE",
"338 445 OFFCURVE",
"342 471 OFFCURVE",
"342 493 CURVE"
);
},
{
closed = 1;
nodes = (
"81 440 OFFCURVE",
"99 405 OFFCURVE",
"99 356 CURVE SMOOTH",
"99 0 LINE",
"108 -2 OFFCURVE",
"120 -3 OFFCURVE",
"134 -3 CURVE SMOOTH",
"147 -3 OFFCURVE",
"159 -2 OFFCURVE",
"168 0 CURVE",
"168 363 LINE",
"166 429 OFFCURVE",
"144 478 OFFCURVE",
"94 497 CURVE",
"80 489 OFFCURVE",
"67 471 OFFCURVE",
"63 458 CURVE"
);
}
);
width = 350;
},
{
anchors = (
{
name = bottom;
position = "{147, -20}";
},
{
name = top;
position = "{210, 542}";
}
);
layerId = UUID1;
paths = (
{
closed = 1;
nodes = (
"381 503 OFFCURVE",
"365 507 OFFCURVE",
"333 507 CURVE SMOOTH",
"215 507 OFFCURVE",
"188 385 OFFCURVE",
"180 273 CURVE",
"198 249 LINE",
"228 321 OFFCURVE",
"257 356 OFFCURVE",
"307 356 CURVE",
"325 354 OFFCURVE",
"342 352 OFFCURVE",
"360 345 CURVE",
"387 391 OFFCURVE",
"401 460 OFFCURVE",
"401 498 CURVE"
);
},
{
closed = 1;
nodes = (
"43 413 OFFCURVE",
"65 380 OFFCURVE",
"65 320 CURVE SMOOTH",
"65 0 LINE",
"89 -4 OFFCURVE",
"120 -6 OFFCURVE",
"147 -6 CURVE SMOOTH",
"175 -6 OFFCURVE",
"206 -4 OFFCURVE",
"229 0 CURVE",
"229 332 LINE",
"219 435 OFFCURVE",
"172 502 OFFCURVE",
"76 508 CURVE",
"56 492 OFFCURVE",
"33 453 OFFCURVE",
"27 424 CURVE"
);
}
);
width = 401;
}
);
leftKerningGroup = r;
rightKerningGroup = r;
unicode = 0072;
},
{
glyphname = s;
lastChange = "2014-06-06 07:55:32 +0000";
layers = (
{
anchors = (
{
name = bottom;
position = "{208, -20}";
},
{
name = top;
position = "{218, 542}";
}
);
layerId = UUID0;
paths = (
{
closed = 1;
nodes = (
"79 12 OFFCURVE",
"136 -12 OFFCURVE",
"206 -12 CURVE SMOOTH",
"312 -12 OFFCURVE",
"389 40 OFFCURVE",
"389 128 CURVE SMOOTH",
"389 200 OFFCURVE",
"340 243 OFFCURVE",
"266 272 CURVE SMOOTH",
"207 295 LINE SMOOTH",
"156 315 OFFCURVE",
"130 335 OFFCURVE",
"130 370 CURVE SMOOTH",
"130 416 OFFCURVE",
"168 445 OFFCURVE",
"222 445 CURVE SMOOTH",
"273 445 OFFCURVE",
"321 429 OFFCURVE",
"352 415 CURVE",
"366 429 OFFCURVE",
"374 451 OFFCURVE",
"374 470 CURVE",
"334 488 OFFCURVE",
"273 502 OFFCURVE",
"224 502 CURVE SMOOTH",
"134 502 OFFCURVE",
"58 451 OFFCURVE",
"58 366 CURVE SMOOTH",
"58 293 OFFCURVE",
"118 254 OFFCURVE",
"186 228 CURVE SMOOTH",
"243 206 LINE SMOOTH",
"290 188 OFFCURVE",
"317 157 OFFCURVE",
"317 123 CURVE",
"316 76 OFFCURVE",
"273 43 OFFCURVE",
"208 43 CURVE SMOOTH",
"157 43 OFFCURVE",
"107 66 OFFCURVE",
"66 89 CURVE",
"52 78 OFFCURVE",
"39 55 OFFCURVE",
"38 38 CURVE"
);
}
);
width = 434;
},
{
anchors = (
{
name = bottom;
position = "{221, -20}";
},
{
name = top;
position = "{223, 542}";
}
);
layerId = UUID1;
paths = (
{
closed = 1;
nodes = (
"65 8 OFFCURVE",
"141 -15 OFFCURVE",
"220 -15 CURVE SMOOTH",
"343 -15 OFFCURVE",
"424 49 OFFCURVE",
"424 150 CURVE SMOOTH",
"424 236 OFFCURVE",
"366 285 OFFCURVE",
"290 312 CURVE SMOOTH",
"228 334 LINE SMOOTH",
"203 343 OFFCURVE",
"193 353 OFFCURVE",
"193 369 CURVE SMOOTH",
"193 384 OFFCURVE",
"205 397 OFFCURVE",
"230 397 CURVE SMOOTH",
"277 397 OFFCURVE",
"328 378 OFFCURVE",
"370 359 CURVE",
"396 378 OFFCURVE",
"417 434 OFFCURVE",
"415 472 CURVE",
"371 494 OFFCURVE",
"289 515 OFFCURVE",
"228 515 CURVE SMOOTH",
"108 515 OFFCURVE",
"32 450 OFFCURVE",
"32 347 CURVE SMOOTH",
"32 266 OFFCURVE",
"86 222 OFFCURVE",
"157 196 CURVE SMOOTH",
"212 176 LINE SMOOTH",
"243 165 OFFCURVE",
"255 152 OFFCURVE",
"255 134 CURVE",
"255 116 OFFCURVE",
"237 103 OFFCURVE",
"201 103 CURVE SMOOTH",
"162 103 OFFCURVE",
"107 121 OFFCURVE",
"63 144 CURVE",
"39 119 OFFCURVE",
"19 69 OFFCURVE",
"18 34 CURVE"
);
}
);
width = 444;
}
);
leftKerningGroup = s;
rightKerningGroup = s;
unicode = 0073;
},
{
glyphname = t;
lastChange = "2014-06-06 07:55:32 +0000";
layers = (
{
anchors = (
{
name = bottom;
position = "{192, -20}";
},
{
name = top;
position = "{176, 542}";
}
);
layerId = UUID0;
paths = (
{
closed = 1;
nodes = (
"107 76 LINE",
"107 24 OFFCURVE",
"142 -4 OFFCURVE",
"196 -4 CURVE SMOOTH",
"235 -4 OFFCURVE",
"265 -2 OFFCURVE",
"296 2 CURVE",
"297 6 OFFCURVE",
"297 11 OFFCURVE",
"297 16 CURVE SMOOTH",
"297 30 OFFCURVE",
"295 44 OFFCURVE",
"291 54 CURVE",
"214 54 LINE SMOOTH",
"185 54 OFFCURVE",
"175 71 OFFCURVE",
"175 95 CURVE SMOOTH",
"175 639 LINE",
"169 645 LINE",
"144 645 LINE SMOOTH",
"112 645 OFFCURVE",
"107 628 OFFCURVE",
"107 597 CURVE SMOOTH"
);
},
{
closed = 1;
nodes = (
"152 489 LINE",
"37 491 LINE",
"35 481 OFFCURVE",
"34 474 OFFCURVE",
"34 464 CURVE SMOOTH",
"34 454 OFFCURVE",
"35 446 OFFCURVE",
"37 437 CURVE",
"153 439 LINE",
"302 437 LINE",
"304 446 OFFCURVE",
"305 454 OFFCURVE",
"305 464 CURVE SMOOTH",
"305 474 OFFCURVE",
"304 481 OFFCURVE",
"302 491 CURVE"
);
}
);
width = 335;
},
{
anchors = (
{
name = bottom;
position = "{209, -20}";
},
{
name = top;
position = "{170, 542}";
}
);
layerId = UUID1;
paths = (
{
closed = 1;
nodes = (
"78 139 LINE",
"78 40 OFFCURVE",
"120 -5 OFFCURVE",
"214 -5 CURVE SMOOTH",
"254 -5 OFFCURVE",
"309 0 OFFCURVE",
"346 5 CURVE",
"349 16 OFFCURVE",
"350 30 OFFCURVE",
"350 42 CURVE SMOOTH",
"350 67 OFFCURVE",
"345 96 OFFCURVE",
"337 119 CURVE",
"283 119 LINE SMOOTH",
"251 119 OFFCURVE",
"238 136 OFFCURVE",
"238 167 CURVE SMOOTH",
"238 643 LINE",
"231 650 LINE",
"167 650 LINE SMOOTH",
"103 650 OFFCURVE",
"78 625 OFFCURVE",
"78 552 CURVE SMOOTH"
);
},
{
closed = 1;
nodes = (
"171 498 LINE",
"-1 501 LINE",
"-6 481 OFFCURVE",
"-8 462 OFFCURVE",
"-8 444 CURVE SMOOTH",
"-8 424 OFFCURVE",
"-6 404 OFFCURVE",
"-1 385 CURVE",
"166 388 LINE",
"356 385 LINE",
"361 404 OFFCURVE",
"363 424 OFFCURVE",
"363 444 CURVE SMOOTH",
"363 462 OFFCURVE",
"361 481 OFFCURVE",
"356 501 CURVE"
);
}
);
width = 378;
}
);
leftKerningGroup = t;
rightKerningGroup = t;
unicode = 0074;
},
{
glyphname = u;
lastChange = "2014-06-06 07:55:32 +0000";
layers = (
{
anchors = (
{
name = bottom;
position = "{268, -20}";
},
{
name = top;
position = "{269, 542}";
}
);
layerId = UUID0;
paths = (
{
closed = 1;
nodes = (
"455 490 LINE",
"446 492 OFFCURVE",
"434 493 OFFCURVE",
"420 493 CURVE SMOOTH",
"407 493 OFFCURVE",
"395 492 OFFCURVE",
"386 490 CURVE",
"386 113 LINE SMOOTH",
"386 61 OFFCURVE",
"399 13 OFFCURVE",
"450 -7 CURVE",
"465 0 OFFCURVE",
"478 16 OFFCURVE",
"483 29 CURVE",
"458 53 OFFCURVE",
"455 95 OFFCURVE",
"455 138 CURVE SMOOTH"
);
},
{
closed = 1;
nodes = (
"84 146 LINE",
"84 62 OFFCURVE",
"117 -9 OFFCURVE",
"212 -9 CURVE SMOOTH",
"285 -9 OFFCURVE",
"362 30 OFFCURVE",
"405 85 CURVE",
"405 160 LINE",
"372 102 OFFCURVE",
"291 54 OFFCURVE",
"228 54 CURVE SMOOTH",
"169 54 OFFCURVE",
"153 88 OFFCURVE",
"153 169 CURVE SMOOTH",
"153 450 LINE SMOOTH",
"153 481 OFFCURVE",
"143 496 OFFCURVE",
"117 496 CURVE SMOOTH",
"101 496 OFFCURVE",
"83 490 OFFCURVE",
"73 481 CURVE",
"82 459 OFFCURVE",
"84 429 OFFCURVE",
"84 397 CURVE SMOOTH"
);
}
);
width = 546;
},
{
anchors = (
{
name = bottom;
position = "{270, -20}";
},
{
name = top;
position = "{265, 542}";
}
);
layerId = UUID1;
paths = (
{
closed = 1;
nodes = (
"490 500 LINE",
"466 504 OFFCURVE",
"435 506 OFFCURVE",
"408 506 CURVE SMOOTH",
"380 506 OFFCURVE",
"349 504 OFFCURVE",
"326 500 CURVE",
"326 147 LINE SMOOTH",
"326 61 OFFCURVE",
"377 -8 OFFCURVE",
"469 -8 CURVE",
"489 8 OFFCURVE",
"512 45 OFFCURVE",
"518 74 CURVE",
"502 85 OFFCURVE",
"490 112 OFFCURVE",
"490 143 CURVE SMOOTH"
);
},
{
closed = 1;
nodes = (
"55 171 LINE",
"55 65 OFFCURVE",
"105 -9 OFFCURVE",
"196 -9 CURVE SMOOTH",
"267 -9 OFFCURVE",
"318 35 OFFCURVE",
"365 80 CURVE",
"365 222 LINE",
"335 159 OFFCURVE",
"287 138 OFFCURVE",
"259 138 CURVE SMOOTH",
"228 138 OFFCURVE",
"219 158 OFFCURVE",
"219 200 CURVE SMOOTH",
"219 407 LINE SMOOTH",
"219 472 OFFCURVE",
"197 508 OFFCURVE",
"131 508 CURVE SMOOTH",
"90 508 OFFCURVE",
"53 493 OFFCURVE",
"29 473 CURVE",
"48 447 OFFCURVE",
"55 412 OFFCURVE",
"55 372 CURVE SMOOTH"
);
}
);
width = 549;
}
);
leftKerningGroup = u;
rightKerningGroup = u;
unicode = 0075;
},
{
glyphname = v;
lastChange = "2014-06-06 07:55:32 +0000";
layers = (
{
anchors = (
{
name = bottom;
position = "{222, -20}";
},
{
name = top;
position = "{220, 542}";
}
);
layerId = UUID0;
paths = (
{
closed = 1;
nodes = (
"228 61 LINE",
"222 61 OFFCURVE",
"221 62 OFFCURVE",
"219 69 CURVE SMOOTH",
"211 100 OFFCURVE",
"189 173 OFFCURVE",
"170 230 CURVE SMOOTH",
"89 471 LINE SMOOTH",
"83 490 OFFCURVE",
"71 497 OFFCURVE",
"55 497 CURVE SMOOTH",
"43 497 OFFCURVE",
"32 495 OFFCURVE",
"12 485 CURVE",
"163 42 LINE SMOOTH",
"177 0 OFFCURVE",
"187 -5 OFFCURVE",
"216 -5 CURVE SMOOTH",
"231 -5 OFFCURVE",
"249 -4 OFFCURVE",
"264 0 CURVE",
"302 106 OFFCURVE",
"378 327 OFFCURVE",
"429 486 CURVE",
"427 489 LINE",
"416 492 OFFCURVE",
"406 494 OFFCURVE",
"393 494 CURVE SMOOTH",
"385 494 OFFCURVE",
"376 494 OFFCURVE",
"365 491 CURVE"
);
}
);
width = 440;
},
{
anchors = (
{
name = bottom;
position = "{244, -20}";
},
{
name = top;
position = "{241, 542}";
}
);
layerId = UUID1;
paths = (
{
closed = 1;
nodes = (
"251 124 LINE",
"245 124 OFFCURVE",
"242 124 OFFCURVE",
"241 132 CURVE SMOOTH",
"236 162 OFFCURVE",
"230 213 OFFCURVE",
"221 250 CURVE SMOOTH",
"179 432 LINE SMOOTH",
"166 489 OFFCURVE",
"136 509 OFFCURVE",
"84 509 CURVE SMOOTH",
"57 509 OFFCURVE",
"22 499 OFFCURVE",
"-6 487 CURVE",
"111 71 LINE SMOOTH",
"129 8 OFFCURVE",
"162 -6 OFFCURVE",
"224 -6 CURVE SMOOTH",
"266 -6 OFFCURVE",
"311 -4 OFFCURVE",
"347 0 CURVE",
"383 116 OFFCURVE",
"444 341 OFFCURVE",
"483 485 CURVE",
"478 492 LINE",
"453 502 OFFCURVE",
"421 505 OFFCURVE",
"393 505 CURVE SMOOTH",
"373 505 OFFCURVE",
"353 503 OFFCURVE",
"334 499 CURVE"
);
}
);
width = 483;
}
);
leftKerningGroup = v;
unicode = 0076;
},
{
glyphname = w;
lastChange = "2014-06-06 07:55:32 +0000";
layers = (
{
anchors = (
{
name = bottom;
position = "{354, -20}";
},
{
name = top;
position = "{354, 542}";
}
);
layerId = UUID0;
paths = (
{
closed = 1;
nodes = (
"142 42 LINE",
"152 1 OFFCURVE",
"172 -4 OFFCURVE",
"192 -4 CURVE SMOOTH",
"210 -4 OFFCURVE",
"236 -3 OFFCURVE",
"252 0 CURVE",
"301 201 LINE SMOOTH",
"314 256 OFFCURVE",
"335 348 OFFCURVE",
"351 421 CURVE",
"355 421 LINE",
"372 348 OFFCURVE",
"390 256 OFFCURVE",
"402 201 CURVE SMOOTH",
"438 42 LINE SMOOTH",
"447 1 OFFCURVE",
"467 -4 OFFCURVE",
"493 -4 CURVE SMOOTH",
"510 -4 OFFCURVE",
"534 -3 OFFCURVE",
"547 -1 CURVE",
"672 486 LINE",
"670 489 LINE",
"662 492 OFFCURVE",
"651 494 OFFCURVE",
"638 494 CURVE SMOOTH",
"625 494 OFFCURVE",
"612 493 OFFCURVE",
"604 491 CURVE",
"543 233 LINE SMOOTH",
"529 175 OFFCURVE",
"516 118 OFFCURVE",
"501 52 CURVE",
"496 52 OFFCURVE",
"495 53 OFFCURVE",
"493 61 CURVE SMOOTH",
"396 490 LINE",
"387 492 OFFCURVE",
"366 493 OFFCURVE",
"354 493 CURVE SMOOTH",
"343 493 OFFCURVE",
"321 492 OFFCURVE",
"311 490 CURVE",
"208 52 LINE",
"204 52 OFFCURVE",
"202 53 OFFCURVE",
"200 61 CURVE SMOOTH",
"191 101 OFFCURVE",
"177 172 OFFCURVE",
"163 233 CURVE SMOOTH",
"109 470 LINE SMOOTH",
"104 493 OFFCURVE",
"90 497 OFFCURVE",
"77 497 CURVE SMOOTH",
"66 497 OFFCURVE",
"53 495 OFFCURVE",
"34 486 CURVE"
);
}
);
width = 701;
},
{
anchors = (
{
name = bottom;
position = "{379, -20}";
},
{
name = top;
position = "{379, 542}";
}
);
layerId = UUID1;
paths = (
{
closed = 1;
nodes = (
"98 69 LINE",
"112 8 OFFCURVE",
"141 -6 OFFCURVE",
"203 -6 CURVE SMOOTH",
"242 -6 OFFCURVE",
"292 -4 OFFCURVE",
"326 0 CURVE",
"352 172 LINE SMOOTH",
"359 221 OFFCURVE",
"369 288 OFFCURVE",
"376 356 CURVE",
"382 356 LINE",
"389 287 OFFCURVE",
"399 219 OFFCURVE",
"406 170 CURVE SMOOTH",
"421 67 LINE SMOOTH",
"430 4 OFFCURVE",
"460 -6 OFFCURVE",
"523 -6 CURVE SMOOTH",
"561 -6 OFFCURVE",
"610 -5 OFFCURVE",
"643 0 CURVE",
"759 482 LINE",
"754 492 LINE",
"731 504 OFFCURVE",
"689 506 OFFCURVE",
"667 506 CURVE SMOOTH",
"648 506 OFFCURVE",
"623 504 OFFCURVE",
"605 499 CURVE",
"562 284 LINE SMOOTH",
"550 222 OFFCURVE",
"542 165 OFFCURVE",
"536 121 CURVE",
"530 121 OFFCURVE",
"529 123 OFFCURVE",
"528 129 CURVE SMOOTH",
"475 494 LINE",
"450 500 OFFCURVE",
"399 502 OFFCURVE",
"378 502 CURVE SMOOTH",
"358 502 OFFCURVE",
"310 500 OFFCURVE",
"284 494 CURVE",
"233 121 LINE",
"227 121 OFFCURVE",
"226 123 OFFCURVE",
"225 129 CURVE SMOOTH",
"222 163 OFFCURVE",
"213 219 OFFCURVE",
"200 284 CURVE SMOOTH",
"171 439 LINE SMOOTH",
"162 483 OFFCURVE",
"146 509 OFFCURVE",
"93 509 CURVE SMOOTH",
"64 509 OFFCURVE",
"33 502 OFFCURVE",
"2 490 CURVE"
);
}
);
width = 761;
}
);
leftKerningGroup = w;
rightKerningGroup = w;
unicode = 0077;
},
{
glyphname = x;
lastChange = "2014-06-06 07:55:32 +0000";
layers = (
{
anchors = (
{
name = bottom;
position = "{221, -20}";
},
{
name = top;
position = "{223, 542}";
}
);
layerId = UUID0;
paths = (
{
closed = 1;
nodes = (
"340 14 LINE",
"349 1 OFFCURVE",
"358 -7 OFFCURVE",
"375 -7 CURVE SMOOTH",
"391 -7 OFFCURVE",
"411 2 OFFCURVE",
"424 10 CURVE",
"120 477 LINE SMOOTH",
"111 490 OFFCURVE",
"102 498 OFFCURVE",
"85 498 CURVE SMOOTH",
"69 498 OFFCURVE",
"49 489 OFFCURVE",
"37 481 CURVE"
);
},
{
closed = 1;
nodes = (
"217 299 LINE",
"192 271 LINE",
"23 8 LINE",
"26 2 LINE",
"33 -2 OFFCURVE",
"46 -5 OFFCURVE",
"59 -5 CURVE SMOOTH",
"69 -5 OFFCURVE",
"86 -3 OFFCURVE",
"91 -1 CURVE",
"231 223 LINE",
"253 247 LINE",
"402 482 LINE",
"399 488 LINE",
"393 491 OFFCURVE",
"380 494 OFFCURVE",
"365 494 CURVE SMOOTH",
"355 494 OFFCURVE",
"340 492 OFFCURVE",
"335 490 CURVE"
);
}
);
width = 447;
},
{
anchors = (
{
name = bottom;
position = "{242, -20}";
},
{
name = top;
position = "{245, 542}";
}
);
layerId = UUID1;
paths = (
{
closed = 1;
nodes = (
"291 40 LINE",
"312 7 OFFCURVE",
"336 -9 OFFCURVE",
"377 -9 CURVE SMOOTH",
"414 -9 OFFCURVE",
"456 5 OFFCURVE",
"488 27 CURVE",
"205 459 LINE SMOOTH",
"183 493 OFFCURVE",
"163 510 OFFCURVE",
"122 510 CURVE SMOOTH",
"88 510 OFFCURVE",
"47 500 OFFCURVE",
"11 474 CURVE"
);
},
{
closed = 1;
nodes = (
"222 333 LINE",
"181 297 LINE",
"0 16 LINE",
"5 6 LINE",
"30 -3 OFFCURVE",
"60 -6 OFFCURVE",
"92 -6 CURVE SMOOTH",
"116 -6 OFFCURVE",
"138 -5 OFFCURVE",
"155 0 CURVE",
"264 186 LINE",
"302 223 LINE",
"472 484 LINE",
"468 495 LINE",
"443 502 OFFCURVE",
"417 506 OFFCURVE",
"387 506 CURVE SMOOTH",
"364 506 OFFCURVE",
"341 504 OFFCURVE",
"323 500 CURVE"
);
}
);
width = 484;
}
);
unicode = 0078;
},
{
glyphname = y;
lastChange = "2014-06-06 07:55:32 +0000";
layers = (
{
anchors = (
{
name = bottom;
position = "{219, -232}";
},
{
name = top;
position = "{224, 542}";
}
);
layerId = UUID0;
paths = (
{
closed = 1;
nodes = (
"433 486 LINE",
"431 489 LINE",
"422 492 OFFCURVE",
"410 494 OFFCURVE",
"397 494 CURVE SMOOTH",
"386 494 OFFCURVE",
"374 493 OFFCURVE",
"364 491 CURVE",
"240 46 LINE",
"235 46 OFFCURVE",
"232 47 OFFCURVE",
"230 53 CURVE SMOOTH",
"218 94 OFFCURVE",
"200 156 OFFCURVE",
"183 210 CURVE SMOOTH",
"102 464 LINE SMOOTH",
"94 490 OFFCURVE",
"81 497 OFFCURVE",
"65 497 CURVE SMOOTH",
"54 497 OFFCURVE",
"42 493 OFFCURVE",
"24 485 CURVE",
"165 44 LINE SMOOTH",
"177 8 OFFCURVE",
"192 -2 OFFCURVE",
"225 -4 CURVE",
"222 -14 LINE SMOOTH",
"194 -106 OFFCURVE",
"166 -165 OFFCURVE",
"88 -165 CURVE SMOOTH",
"66 -165 OFFCURVE",
"37 -160 OFFCURVE",
"24 -155 CURVE",
"15 -166 OFFCURVE",
"7 -188 OFFCURVE",
"8 -205 CURVE SMOOTH",
"25 -211 OFFCURVE",
"61 -218 OFFCURVE",
"87 -218 CURVE SMOOTH",
"205 -218 OFFCURVE",
"247 -145 OFFCURVE",
"295 17 CURVE SMOOTH"
);
}
);
width = 449;
},
{
anchors = (
{
name = bottom;
position = "{224, -232}";
},
{
name = top;
position = "{249, 542}";
}
);
layerId = UUID1;
paths = (
{
closed = 1;
nodes = (
"497 483 LINE",
"491 494 LINE",
"461 504 OFFCURVE",
"431 506 OFFCURVE",
"403 506 CURVE SMOOTH",
"383 506 OFFCURVE",
"357 504 OFFCURVE",
"339 499 CURVE",
"255 116 LINE",
"250 116 OFFCURVE",
"248 117 OFFCURVE",
"247 123 CURVE SMOOTH",
"243 155 OFFCURVE",
"235 220 OFFCURVE",
"227 252 CURVE SMOOTH",
"183 439 LINE SMOOTH",
"170 493 OFFCURVE",
"144 509 OFFCURVE",
"104 509 CURVE SMOOTH",
"77 509 OFFCURVE",
"36 502 OFFCURVE",
"3 487 CURVE",
"117 57 LINE SMOOTH",
"130 9 OFFCURVE",
"169 -7 OFFCURVE",
"225 -7 CURVE",
"221 -22 LINE SMOOTH",
"207 -69 OFFCURVE",
"174 -97 OFFCURVE",
"126 -97 CURVE SMOOTH",
"92 -97 OFFCURVE",
"56 -88 OFFCURVE",
"34 -81 CURVE",
"12 -106 OFFCURVE",
"-3 -161 OFFCURVE",
"1 -198 CURVE SMOOTH",
"29 -208 OFFCURVE",
"85 -219 OFFCURVE",
"126 -219 CURVE SMOOTH",
"285 -219 OFFCURVE",
"340 -121 OFFCURVE",
"375 13 CURVE SMOOTH"
);
}
);
width = 501;
}
);
leftKerningGroup = y;
rightKerningGroup = y;
unicode = 0079;
},
{
glyphname = z;
lastChange = "2014-06-06 07:55:32 +0000";
layers = (
{
anchors = (
{
name = bottom;
position = "{224, -20}";
},
{
name = top;
position = "{224, 542}";
}
);
layerId = UUID0;
paths = (
{
closed = 1;
nodes = (
"54 74 LINE",
"45 61 OFFCURVE",
"42 52 OFFCURVE",
"42 44 CURVE SMOOTH",
"42 33 OFFCURVE",
"45 25 OFFCURVE",
"54 0 CURVE",
"350 0 LINE SMOOTH",
"391 0 OFFCURVE",
"403 13 OFFCURVE",
"403 36 CURVE SMOOTH",
"403 47 OFFCURVE",
"401 60 OFFCURVE",
"397 70 CURVE",
"374 61 OFFCURVE",
"335 58 OFFCURVE",
"280 58 CURVE SMOOTH",
"224 58 LINE SMOOTH",
"200 58 OFFCURVE",
"158 57 OFFCURVE",
"123 55 CURVE",
"120 58 LINE",
"143 88 OFFCURVE",
"176 128 OFFCURVE",
"199 160 CURVE SMOOTH",
"387 417 LINE SMOOTH",
"395 428 OFFCURVE",
"399 437 OFFCURVE",
"399 445 CURVE SMOOTH",
"399 455 OFFCURVE",
"396 466 OFFCURVE",
"387 490 CURVE",
"62 490 LINE",
"59 478 OFFCURVE",
"58 463 OFFCURVE",
"58 457 CURVE SMOOTH",
"58 452 OFFCURVE",
"58 441 OFFCURVE",
"60 433 CURVE",
"183 433 LINE",
"227 433 OFFCURVE",
"298 435 OFFCURVE",
"321 438 CURVE",
"324 435 LINE",
"298 402 OFFCURVE",
"268 367 OFFCURVE",
"246 337 CURVE SMOOTH"
);
}
);
width = 444;
},
{
anchors = (
{
name = bottom;
position = "{225, -20}";
},
{
name = top;
position = "{225, 542}";
}
);
layerId = UUID1;
paths = (
{
closed = 1;
nodes = (
"46 139 LINE",
"29 117 OFFCURVE",
"23 97 OFFCURVE",
"23 79 CURVE SMOOTH",
"23 60 OFFCURVE",
"28 38 OFFCURVE",
"41 0 CURVE",
"343 0 LINE SMOOTH",
"407 0 OFFCURVE",
"429 29 OFFCURVE",
"429 72 CURVE SMOOTH",
"429 94 OFFCURVE",
"424 109 OFFCURVE",
"412 137 CURVE",
"384 123 OFFCURVE",
"349 120 OFFCURVE",
"321 120 CURVE SMOOTH",
"288 120 LINE SMOOTH",
"263 120 OFFCURVE",
"239 118 OFFCURVE",
"211 114 CURVE",
"208 119 LINE",
"234 145 OFFCURVE",
"261 179 OFFCURVE",
"283 208 CURVE SMOOTH",
"400 363 LINE SMOOTH",
"410 377 OFFCURVE",
"415 396 OFFCURVE",
"415 411 CURVE SMOOTH",
"415 434 OFFCURVE",
"407 461 OFFCURVE",
"394 500 CURVE",
"43 500 LINE",
"38 478 OFFCURVE",
"34 454 OFFCURVE",
"34 429 CURVE SMOOTH",
"34 413 OFFCURVE",
"36 395 OFFCURVE",
"40 379 CURVE",
"113 379 LINE",
"149 379 OFFCURVE",
"198 383 OFFCURVE",
"236 387 CURVE",
"239 382 LINE",
"217 358 OFFCURVE",
"182 320 OFFCURVE",
"158 288 CURVE SMOOTH"
);
}
);
width = 450;
}
);
leftKerningGroup = z;
rightKerningGroup = z;
unicode = 007A;
},
{
glyphname = a.smcp;
lastChange = "2014-06-06 08:29:36 +0000";
layers = (
{
anchors = (
{
name = bottom;
position = "{262, -20}";
},
{
name = top;
position = "{262, 594}";
}
);
layerId = UUID0;
paths = (
{
closed = 1;
nodes = (
"19 4 LINE",
"21 1 LINE",
"29 -2 OFFCURVE",
"41 -4 OFFCURVE",
"54 -4 CURVE SMOOTH",
"64 -4 OFFCURVE",
"76 -3 OFFCURVE",
"85 -1 CURVE",
"219 363 LINE SMOOTH",
"228 387 OFFCURVE",
"245 438 OFFCURVE",
"256 477 CURVE",
"260 477 LINE",
"273 436 OFFCURVE",
"296 370 OFFCURVE",
"310 332 CURVE SMOOTH",
"421 31 LINE SMOOTH",
"432 2 OFFCURVE",
"440 -6 OFFCURVE",
"463 -6 CURVE SMOOTH",
"480 -6 OFFCURVE",
"494 -3 OFFCURVE",
"505 3 CURVE",
"302 542 LINE",
"296 544 OFFCURVE",
"274 546 OFFCURVE",
"263 546 CURVE SMOOTH",
"251 546 OFFCURVE",
"228 544 OFFCURVE",
"221 542 CURVE"
);
},
{
closed = 1;
nodes = (
"320 137 LINE SMOOTH",
"326 137 OFFCURVE",
"379 138 OFFCURVE",
"385 138 CURVE",
"414 138 LINE",
"391 197 LINE",
"365 197 LINE",
"358 197 OFFCURVE",
"317 198 OFFCURVE",
"311 198 CURVE SMOOTH",
"213 198 LINE SMOOTH",
"207 198 OFFCURVE",
"160 197 OFFCURVE",
"153 197 CURVE",
"128 197 LINE",
"104 138 LINE",
"132 138 LINE",
"139 138 OFFCURVE",
"197 137 OFFCURVE",
"203 137 CURVE SMOOTH"
);
}
);
width = 524;
},
{
anchors = (
{
name = bottom;
position = "{290, -20}";
},
{
name = top;
position = "{296, 594}";
}
);
layerId = UUID1;
paths = (
{
closed = 1;
nodes = (
"3 14 LINE",
"9 5 LINE",
"27 -3 OFFCURVE",
"58 -7 OFFCURVE",
"86 -7 CURVE SMOOTH",
"112 -7 OFFCURVE",
"136 -5 OFFCURVE",
"156 0 CURVE",
"233 245 LINE SMOOTH",
"250 300 OFFCURVE",
"268 374 OFFCURVE",
"282 426 CURVE",
"288 426 LINE",
"301 372 OFFCURVE",
"316 301 OFFCURVE",
"332 247 CURVE SMOOTH",
"389 59 LINE SMOOTH",
"407 -3 OFFCURVE",
"447 -9 OFFCURVE",
"485 -9 CURVE SMOOTH",
"507 -9 OFFCURVE",
"552 -3 OFFCURVE",
"577 8 CURVE",
"389 552 LINE",
"350 557 OFFCURVE",
"322 558 OFFCURVE",
"296 558 CURVE SMOOTH",
"268 558 OFFCURVE",
"234 557 OFFCURVE",
"197 552 CURVE"
);
},
{
closed = 1;
nodes = (
"350 93 LINE SMOOTH",
"365 93 OFFCURVE",
"373 94 OFFCURVE",
"388 94 CURVE",
"465 94 LINE",
"420 222 LINE",
"351 222 LINE",
"336 222 OFFCURVE",
"329 223 OFFCURVE",
"314 223 CURVE SMOOTH",
"255 223 LINE SMOOTH",
"240 223 OFFCURVE",
"230 222 OFFCURVE",
"216 222 CURVE",
"152 222 LINE",
"101 94 LINE",
"175 94 LINE",
"190 94 OFFCURVE",
"198 93 OFFCURVE",
"213 93 CURVE SMOOTH"
);
}
);
width = 580;
}
);
leftKerningGroup = a.smcp;
rightKerningGroup = a.smcp;
},
{
glyphname = b.smcp;
lastChange = "2014-06-06 08:29:36 +0000";
layers = (
{
anchors = (
{
name = bottom;
position = "{262, -20}";
},
{
name = top;
position = "{253, 594}";
}
);
layerId = UUID0;
paths = (
{
closed = 1;
nodes = (
"92 537 LINE",
"92 5 LINE",
"97 0 LINE",
"161 -1 OFFCURVE",
"203 -3 OFFCURVE",
"278 -3 CURVE SMOOTH",
"433 -3 OFFCURVE",
"487 70 OFFCURVE",
"487 151 CURVE SMOOTH",
"487 234 OFFCURVE",
"410 295 OFFCURVE",
"335 295 CURVE",
"335 284 LINE",
"409 290 OFFCURVE",
"457 342 OFFCURVE",
"457 403 CURVE SMOOTH",
"457 489 OFFCURVE",
"404 545 OFFCURVE",
"267 545 CURVE SMOOTH",
"210 545 OFFCURVE",
"160 543 OFFCURVE",
"97 542 CURVE"
);
},
{
closed = 1;
nodes = (
"163 488 LINE",
"195 487 OFFCURVE",
"239 487 OFFCURVE",
"268 487 CURVE SMOOTH",
"364 487 OFFCURVE",
"384 444 OFFCURVE",
"384 402 CURVE SMOOTH",
"384 362 OFFCURVE",
"363 316 OFFCURVE",
"266 316 CURVE SMOOTH",
"134 316 LINE",
"134 257 LINE",
"274 257 LINE SMOOTH",
"383 257 OFFCURVE",
"413 197 OFFCURVE",
"413 155 CURVE SMOOTH",
"413 113 OFFCURVE",
"392 55 OFFCURVE",
"283 55 CURVE SMOOTH",
"241 55 OFFCURVE",
"205 54 OFFCURVE",
"163 54 CURVE"
);
}
);
width = 538;
},
{
anchors = (
{
name = bottom;
position = "{275, -20}";
},
{
name = top;
position = "{269, 594}";
}
);
layerId = UUID1;
paths = (
{
closed = 1;
nodes = (
"70 547 LINE",
"70 4 LINE",
"76 -1 LINE",
"158 -3 OFFCURVE",
"234 -4 OFFCURVE",
"302 -4 CURVE SMOOTH",
"434 -4 OFFCURVE",
"535 30 OFFCURVE",
"535 162 CURVE SMOOTH",
"535 234 OFFCURVE",
"473 305 OFFCURVE",
"398 305 CURVE",
"398 292 LINE",
"463 292 OFFCURVE",
"506 352 OFFCURVE",
"506 410 CURVE SMOOTH",
"506 520 OFFCURVE",
"411 557 OFFCURVE",
"289 557 CURVE SMOOTH",
"223 557 OFFCURVE",
"127 555 OFFCURVE",
"76 553 CURVE"
);
},
{
closed = 1;
nodes = (
"230 446 LINE",
"248 445 OFFCURVE",
"270 445 OFFCURVE",
"281 445 CURVE SMOOTH",
"330 445 OFFCURVE",
"345 420 OFFCURVE",
"345 395 CURVE SMOOTH",
"345 369 OFFCURVE",
"330 344 OFFCURVE",
"280 344 CURVE SMOOTH",
"163 344 LINE",
"163 232 LINE",
"291 232 LINE SMOOTH",
"350 232 OFFCURVE",
"369 200 OFFCURVE",
"369 169 CURVE SMOOTH",
"369 141 OFFCURVE",
"355 109 OFFCURVE",
"299 109 CURVE SMOOTH",
"280 109 OFFCURVE",
"255 109 OFFCURVE",
"230 108 CURVE"
);
}
);
width = 567;
}
);
leftKerningGroup = b.smcp;
},
{
glyphname = c.smcp;
lastChange = "2014-06-06 08:29:36 +0000";
layers = (
{
anchors = (
{
name = bottom;
position = "{276, -20}";
},
{
name = top;
position = "{284, 594}";
}
);
layerId = UUID0;
paths = (
{
closed = 1;
nodes = (
"433 348 OFFCURVE",
"441 346 OFFCURVE",
"453 346 CURVE SMOOTH",
"486 346 OFFCURVE",
"491 368 OFFCURVE",
"491 389 CURVE SMOOTH",
"491 463 OFFCURVE",
"427 554 OFFCURVE",
"284 554 CURVE SMOOTH",
"157 554 OFFCURVE",
"46 469 OFFCURVE",
"46 270 CURVE SMOOTH",
"46 126 OFFCURVE",
"109 -12 OFFCURVE",
"273 -12 CURVE SMOOTH",
"362 -12 OFFCURVE",
"437 23 OFFCURVE",
"485 67 CURVE",
"480 83 OFFCURVE",
"464 103 OFFCURVE",
"447 114 CURVE",
"390 71 OFFCURVE",
"336 50 OFFCURVE",
"283 50 CURVE SMOOTH",
"183 50 OFFCURVE",
"121 131 OFFCURVE",
"121 270 CURVE SMOOTH",
"121 419 OFFCURVE",
"180 495 OFFCURVE",
"283 495 CURVE SMOOTH",
"390 495 OFFCURVE",
"421 420 OFFCURVE",
"422 351 CURVE"
);
}
);
width = 530;
},
{
anchors = (
{
name = bottom;
position = "{288, -20}";
},
{
name = top;
position = "{298, 594}";
}
);
layerId = UUID1;
paths = (
{
closed = 1;
nodes = (
"392 295 OFFCURVE",
"411 293 OFFCURVE",
"427 293 CURVE SMOOTH",
"493 293 OFFCURVE",
"528 320 OFFCURVE",
"528 382 CURVE SMOOTH",
"528 472 OFFCURVE",
"455 567 OFFCURVE",
"298 567 CURVE SMOOTH",
"158 567 OFFCURVE",
"30 479 OFFCURVE",
"30 273 CURVE SMOOTH",
"30 137 OFFCURVE",
"87 -15 OFFCURVE",
"282 -15 CURVE SMOOTH",
"384 -15 OFFCURVE",
"464 23 OFFCURVE",
"520 71 CURVE",
"513 105 OFFCURVE",
"479 158 OFFCURVE",
"446 175 CURVE",
"408 147 OFFCURVE",
"356 121 OFFCURVE",
"307 121 CURVE SMOOTH",
"254 121 OFFCURVE",
"199 148 OFFCURVE",
"199 272 CURVE SMOOTH",
"199 379 OFFCURVE",
"224 438 OFFCURVE",
"292 438 CURVE SMOOTH",
"358 438 OFFCURVE",
"373 383 OFFCURVE",
"373 297 CURVE"
);
}
);
width = 548;
}
);
leftKerningGroup = c.smcp;
},
{
glyphname = d.smcp;
lastChange = "2014-06-06 08:29:36 +0000";
layers = (
{
anchors = (
{
name = bottom;
position = "{277, -20}";
},
{
name = top;
position = "{269, 594}";
}
);
layerId = UUID0;
paths = (
{
closed = 1;
nodes = (
"520 363 OFFCURVE",
"506 445 OFFCURVE",
"428 504 CURVE SMOOTH",
"390 533 OFFCURVE",
"319 545 OFFCURVE",
"272 545 CURVE",
"201 545 OFFCURVE",
"173 544 OFFCURVE",
"97 542 CURVE",
"92 537 LINE",
"92 5 LINE",
"97 0 LINE",
"172 -2 OFFCURVE",
"201 -3 OFFCURVE",
"272 -3 CURVE",
"319 -3 OFFCURVE",
"390 8 OFFCURVE",
"428 37 CURVE SMOOTH",
"507 96 OFFCURVE",
"520 177 OFFCURVE",
"520 270 CURVE SMOOTH"
);
},
{
closed = 1;
nodes = (
"445 170 OFFCURVE",
"421 55 OFFCURVE",
"271 55 CURVE SMOOTH",
"230 55 OFFCURVE",
"199 54 OFFCURVE",
"163 54 CURVE",
"163 487 LINE",
"199 487 OFFCURVE",
"230 486 OFFCURVE",
"271 486 CURVE SMOOTH",
"421 486 OFFCURVE",
"445 371 OFFCURVE",
"445 270 CURVE"
);
}
);
width = 569;
},
{
anchors = (
{
name = bottom;
position = "{297, -20}";
},
{
name = top;
position = "{294, 594}";
}
);
layerId = UUID1;
paths = (
{
closed = 1;
nodes = (
"579 368 OFFCURVE",
"563 456 OFFCURVE",
"475 515 CURVE SMOOTH",
"433 544 OFFCURVE",
"357 557 OFFCURVE",
"305 557 CURVE",
"225 557 OFFCURVE",
"155 555 OFFCURVE",
"76 553 CURVE",
"70 547 LINE",
"70 5 LINE",
"76 -1 LINE",
"155 -3 OFFCURVE",
"225 -4 OFFCURVE",
"305 -4 CURVE",
"357 -4 OFFCURVE",
"433 7 OFFCURVE",
"475 35 CURVE SMOOTH",
"564 95 OFFCURVE",
"579 182 OFFCURVE",
"579 275 CURVE SMOOTH"
);
},
{
closed = 1;
nodes = (
"411 206 OFFCURVE",
"397 122 OFFCURVE",
"305 122 CURVE SMOOTH",
"277 122 OFFCURVE",
"262 121 OFFCURVE",
"234 121 CURVE",
"234 431 LINE",
"261 430 OFFCURVE",
"277 430 OFFCURVE",
"305 430 CURVE SMOOTH",
"397 430 OFFCURVE",
"411 345 OFFCURVE",
"411 275 CURVE"
);
}
);
width = 610;
}
);
leftKerningGroup = b.smcp;
rightKerningGroup = d.smcp;
},
{
glyphname = e.smcp;
lastChange = "2014-06-06 08:29:36 +0000";
layers = (
{
anchors = (
{
name = bottom;
position = "{271, -20}";
},
{
name = top;
position = "{270, 594}";
}
);
layerId = UUID0;
paths = (
{
closed = 1;
nodes = (
"92 45 LINE",
"92 17 OFFCURVE",
"108 0 OFFCURVE",
"133 0 CURVE SMOOTH",
"161 0 LINE",
"161 59 LINE SMOOTH",
"161 65 OFFCURVE",
"162 82 OFFCURVE",
"162 94 CURVE SMOOTH",
"162 432 LINE SMOOTH",
"162 453 OFFCURVE",
"161 472 OFFCURVE",
"161 484 CURVE SMOOTH",
"161 542 LINE",
"97 542 LINE",
"92 537 LINE"
);
},
{
closed = 1;
nodes = (
"215 306 LINE SMOOTH",
"195 306 OFFCURVE",
"163 305 OFFCURVE",
"137 305 CURVE",
"137 247 LINE",
"163 246 OFFCURVE",
"195 246 OFFCURVE",
"215 246 CURVE SMOOTH",
"391 246 LINE",
"394 256 OFFCURVE",
"394 268 OFFCURVE",
"394 276 CURVE SMOOTH",
"394 283 OFFCURVE",
"394 296 OFFCURVE",
"391 306 CURVE"
);
},
{
closed = 1;
nodes = (
"137 542 LINE",
"137 483 LINE",
"163 482 OFFCURVE",
"195 482 OFFCURVE",
"215 482 CURVE SMOOTH",
"435 482 LINE",
"439 493 OFFCURVE",
"440 506 OFFCURVE",
"440 514 CURVE SMOOTH",
"440 522 OFFCURVE",
"440 532 OFFCURVE",
"438 542 CURVE"
);
},
{
closed = 1;
nodes = (
"216 61 LINE SMOOTH",
"179 61 OFFCURVE",
"158 60 OFFCURVE",
"138 58 CURVE",
"138 0 LINE",
"406 0 LINE SMOOTH",
"431 0 OFFCURVE",
"447 11 OFFCURVE",
"451 33 CURVE SMOOTH",
"453 42 OFFCURVE",
"453 55 OFFCURVE",
"453 61 CURVE"
);
}
);
width = 500;
},
{
anchors = (
{
name = bottom;
position = "{278, -20}";
},
{
name = top;
position = "{278, 594}";
}
);
layerId = UUID1;
paths = (
{
closed = 1;
nodes = (
"70 91 LINE",
"70 34 OFFCURVE",
"107 -2 OFFCURVE",
"166 -2 CURVE SMOOTH",
"233 -2 LINE",
"233 129 LINE SMOOTH",
"233 155 OFFCURVE",
"234 166 OFFCURVE",
"234 192 CURVE SMOOTH",
"234 366 LINE SMOOTH",
"234 387 OFFCURVE",
"233 398 OFFCURVE",
"233 420 CURVE SMOOTH",
"233 552 LINE",
"76 552 LINE",
"70 546 LINE"
);
},
{
closed = 1;
nodes = (
"297 342 LINE SMOOTH",
"274 342 OFFCURVE",
"205 341 OFFCURVE",
"176 340 CURVE",
"176 215 LINE",
"205 214 OFFCURVE",
"274 214 OFFCURVE",
"297 214 CURVE SMOOTH",
"421 214 LINE",
"428 233 OFFCURVE",
"430 260 OFFCURVE",
"430 279 CURVE SMOOTH",
"430 296 OFFCURVE",
"428 323 OFFCURVE",
"421 342 CURVE"
);
},
{
closed = 1;
nodes = (
"176 552 LINE",
"176 421 LINE",
"205 420 OFFCURVE",
"274 419 OFFCURVE",
"297 419 CURVE SMOOTH",
"468 419 LINE",
"477 443 OFFCURVE",
"481 468 OFFCURVE",
"481 487 CURVE SMOOTH",
"481 506 OFFCURVE",
"481 528 OFFCURVE",
"476 552 CURVE"
);
},
{
closed = 1;
nodes = (
"303 131 LINE SMOOTH",
"256 131 OFFCURVE",
"240 127 OFFCURVE",
"178 125 CURVE",
"178 -2 LINE",
"393 -2 LINE SMOOTH",
"453 -2 OFFCURVE",
"483 25 OFFCURVE",
"492 77 CURVE SMOOTH",
"495 96 OFFCURVE",
"495 117 OFFCURVE",
"495 131 CURVE"
);
}
);
width = 531;
}
);
leftKerningGroup = b.smcp;
rightKerningGroup = e.smcp;
},
{
glyphname = f.smcp;
lastChange = "2014-06-06 08:29:36 +0000";
layers = (
{
anchors = (
{
name = bottom;
position = "{128, -20}";
},
{
name = top;
position = "{265, 594}";
}
);
layerId = UUID0;
paths = (
{
closed = 1;
nodes = (
"163 379 LINE SMOOTH",
"163 418 OFFCURVE",
"162 459 OFFCURVE",
"162 499 CURVE SMOOTH",
"162 542 LINE",
"97 542 LINE",
"92 538 LINE",
"92 0 LINE",
"101 -2 OFFCURVE",
"114 -3 OFFCURVE",
"127 -3 CURVE SMOOTH",
"140 -3 OFFCURVE",
"153 -2 OFFCURVE",
"163 0 CURVE"
);
},
{
closed = 1;
nodes = (
"136 542 LINE",
"136 484 LINE",
"167 482 OFFCURVE",
"208 481 OFFCURVE",
"259 481 CURVE SMOOTH",
"395 481 LINE SMOOTH",
"428 481 OFFCURVE",
"436 493 OFFCURVE",
"436 514 CURVE SMOOTH",
"436 522 OFFCURVE",
"434 534 OFFCURVE",
"431 542 CURVE"
);
},
{
closed = 1;
nodes = (
"212 303 LINE SMOOTH",
"192 303 OFFCURVE",
"162 302 OFFCURVE",
"136 302 CURVE",
"136 245 LINE",
"162 245 OFFCURVE",
"192 244 OFFCURVE",
"212 244 CURVE SMOOTH",
"387 244 LINE",
"389 254 OFFCURVE",
"390 265 OFFCURVE",
"390 273 CURVE SMOOTH",
"390 281 OFFCURVE",
"389 293 OFFCURVE",
"387 303 CURVE"
);
}
);
width = 456;
},
{
anchors = (
{
name = bottom;
position = "{152, -20}";
},
{
name = top;
position = "{270, 594}";
}
);
layerId = UUID1;
paths = (
{
closed = 1;
nodes = (
"236 379 LINE SMOOTH",
"236 423 OFFCURVE",
"235 471 OFFCURVE",
"235 518 CURVE SMOOTH",
"235 552 LINE",
"76 552 LINE",
"70 547 LINE",
"70 0 LINE",
"99 -5 OFFCURVE",
"131 -6 OFFCURVE",
"153 -6 CURVE SMOOTH",
"175 -6 OFFCURVE",
"207 -5 OFFCURVE",
"236 0 CURVE"
);
},
{
closed = 1;
nodes = (
"165 552 LINE",
"165 417 LINE",
"208 417 OFFCURVE",
"247 416 OFFCURVE",
"290 416 CURVE SMOOTH",
"394 416 LINE SMOOTH",
"452 416 OFFCURVE",
"475 444 OFFCURVE",
"475 491 CURVE SMOOTH",
"475 506 OFFCURVE",
"473 533 OFFCURVE",
"468 552 CURVE"
);
},
{
closed = 1;
nodes = (
"244 329 LINE SMOOTH",
"217 329 OFFCURVE",
"187 328 OFFCURVE",
"172 327 CURVE",
"172 202 LINE",
"187 201 OFFCURVE",
"217 200 OFFCURVE",
"244 200 CURVE SMOOTH",
"410 200 LINE",
"416 219 OFFCURVE",
"418 248 OFFCURVE",
"418 267 CURVE SMOOTH",
"418 284 OFFCURVE",
"416 311 OFFCURVE",
"410 329 CURVE"
);
}
);
width = 490;
}
);
leftKerningGroup = b.smcp;
},
{
glyphname = g.smcp;
lastChange = "2014-06-06 08:29:36 +0000";
layers = (
{
anchors = (
{
name = bottom;
position = "{291, -20}";
},
{
name = top;
position = "{296, 594}";
}
);
layerId = UUID0;
paths = (
{
closed = 1;
nodes = (
"438 532 OFFCURVE",
"363 554 OFFCURVE",
"294 554 CURVE SMOOTH",
"172 554 OFFCURVE",
"48 480 OFFCURVE",
"48 269 CURVE SMOOTH",
"48 131 OFFCURVE",
"103 -12 OFFCURVE",
"282 -12 CURVE SMOOTH",
"358 -12 OFFCURVE",
"434 5 OFFCURVE",
"488 24 CURVE",
"452 78 LINE",
"424 67 OFFCURVE",
"371 48 OFFCURVE",
"296 48 CURVE SMOOTH",
"181 48 OFFCURVE",
"123 123 OFFCURVE",
"123 268 CURVE SMOOTH",
"123 436 OFFCURVE",
"202 492 OFFCURVE",
"290 492 CURVE SMOOTH",
"352 492 OFFCURVE",
"407 473 OFFCURVE",
"449 442 CURVE",
"464 452 OFFCURVE",
"481 473 OFFCURVE",
"487 495 CURVE"
);
},
{
closed = 1;
nodes = (
"418 22 LINE",
"453 23 OFFCURVE",
"462 22 OFFCURVE",
"488 24 CURVE",
"488 231 LINE",
"432 264 LINE",
"421 239 OFFCURVE",
"418 194 OFFCURVE",
"418 167 CURVE SMOOTH"
);
},
{
closed = 1;
nodes = (
"292 269 OFFCURVE",
"290 256 OFFCURVE",
"290 249 CURVE SMOOTH",
"290 226 OFFCURVE",
"302 216 OFFCURVE",
"324 216 CURVE SMOOTH",
"371 216 OFFCURVE",
"436 216 OFFCURVE",
"488 219 CURVE",
"488 233 LINE SMOOTH",
"488 264 OFFCURVE",
"474 279 OFFCURVE",
"422 279 CURVE SMOOTH",
"378 279 OFFCURVE",
"337 278 OFFCURVE",
"295 277 CURVE"
);
}
);
width = 549;
},
{
anchors = (
{
name = bottom;
position = "{319, -20}";
},
{
name = top;
position = "{319, 594}";
}
);
layerId = UUID1;
paths = (
{
closed = 1;
nodes = (
"479 546 OFFCURVE",
"400 567 OFFCURVE",
"319 567 CURVE SMOOTH",
"164 567 OFFCURVE",
"30 475 OFFCURVE",
"30 273 CURVE SMOOTH",
"30 101 OFFCURVE",
"110 -15 OFFCURVE",
"307 -15 CURVE SMOOTH",
"395 -15 OFFCURVE",
"501 2 OFFCURVE",
"546 17 CURVE",
"461 124 LINE",
"429 117 OFFCURVE",
"383 107 OFFCURVE",
"336 107 CURVE SMOOTH",
"241 107 OFFCURVE",
"199 161 OFFCURVE",
"199 272 CURVE SMOOTH",
"199 376 OFFCURVE",
"244 435 OFFCURVE",
"329 435 CURVE SMOOTH",
"378 435 OFFCURVE",
"425 422 OFFCURVE",
"474 398 CURVE",
"505 419 OFFCURVE",
"533 476 OFFCURVE",
"536 519 CURVE"
);
},
{
closed = 1;
nodes = (
"394 15 LINE",
"428 16 OFFCURVE",
"519 15 OFFCURVE",
"546 17 CURVE",
"546 238 LINE",
"406 280 LINE",
"394 236 OFFCURVE",
"394 96 OFFCURVE",
"394 144 CURVE SMOOTH"
);
},
{
closed = 1;
nodes = (
"293 309 OFFCURVE",
"290 283 OFFCURVE",
"290 259 CURVE SMOOTH",
"290 214 OFFCURVE",
"316 194 OFFCURVE",
"364 194 CURVE SMOOTH",
"420 194 OFFCURVE",
"489 194 OFFCURVE",
"546 195 CURVE",
"546 239 LINE SMOOTH",
"546 295 OFFCURVE",
"522 327 OFFCURVE",
"443 327 CURVE SMOOTH",
"394 327 OFFCURVE",
"347 327 OFFCURVE",
"298 325 CURVE"
);
}
);
width = 592;
}
);
leftKerningGroup = c.smcp;
},
{
glyphname = h.smcp;
lastChange = "2014-06-06 08:29:36 +0000";
layers = (
{
anchors = (
{
name = bottom;
position = "{302, -20}";
},
{
name = top;
position = "{302, 594}";
}
);
layerId = UUID0;
paths = (
{
closed = 1;
nodes = (
"388 252 LINE SMOOTH",
"394 252 OFFCURVE",
"435 253 OFFCURVE",
"442 253 CURVE SMOOTH",
"456 253 OFFCURVE",
"470 252 OFFCURVE",
"484 252 CURVE",
"484 313 LINE",
"470 313 OFFCURVE",
"456 312 OFFCURVE",
"442 312 CURVE SMOOTH",
"435 312 OFFCURVE",
"394 313 OFFCURVE",
"388 313 CURVE SMOOTH",
"216 313 LINE SMOOTH",
"210 313 OFFCURVE",
"169 312 OFFCURVE",
"162 312 CURVE SMOOTH",
"148 312 OFFCURVE",
"134 313 OFFCURVE",
"121 313 CURVE",
"121 252 LINE",
"134 252 OFFCURVE",
"148 253 OFFCURVE",
"162 253 CURVE SMOOTH",
"169 253 OFFCURVE",
"210 252 OFFCURVE",
"216 252 CURVE SMOOTH"
);
},
{
closed = 1;
nodes = (
"163 193 LINE SMOOTH",
"163 216 OFFCURVE",
"162 231 OFFCURVE",
"162 253 CURVE SMOOTH",
"162 312 LINE SMOOTH",
"162 333 OFFCURVE",
"163 348 OFFCURVE",
"163 371 CURVE SMOOTH",
"163 542 LINE",
"153 544 OFFCURVE",
"140 545 OFFCURVE",
"127 545 CURVE SMOOTH",
"115 545 OFFCURVE",
"101 544 OFFCURVE",
"92 542 CURVE",
"92 0 LINE",
"101 -2 OFFCURVE",
"115 -3 OFFCURVE",
"127 -3 CURVE SMOOTH",
"140 -3 OFFCURVE",
"153 -2 OFFCURVE",
"163 0 CURVE"
);
},
{
closed = 1;
nodes = (
"441 0 LINE",
"450 -2 OFFCURVE",
"463 -3 OFFCURVE",
"476 -3 CURVE",
"489 -3 OFFCURVE",
"502 -2 OFFCURVE",
"512 0 CURVE",
"512 542 LINE",
"502 544 OFFCURVE",
"489 545 OFFCURVE",
"476 545 CURVE SMOOTH",
"463 545 OFFCURVE",
"450 544 OFFCURVE",
"441 542 CURVE",
"441 371 LINE SMOOTH",
"441 348 OFFCURVE",
"442 333 OFFCURVE",
"442 312 CURVE SMOOTH",
"442 253 LINE SMOOTH",
"442 231 OFFCURVE",
"441 216 OFFCURVE",
"441 193 CURVE SMOOTH"
);
}
);
width = 604;
},
{
anchors = (
{
name = bottom;
position = "{317, -20}";
},
{
name = top;
position = "{317, 594}";
}
);
layerId = UUID1;
paths = (
{
closed = 1;
nodes = (
"358 219 LINE SMOOTH",
"373 219 OFFCURVE",
"385 220 OFFCURVE",
"400 220 CURVE SMOOTH",
"433 220 OFFCURVE",
"464 219 OFFCURVE",
"497 219 CURVE",
"497 353 LINE",
"464 353 OFFCURVE",
"433 352 OFFCURVE",
"400 352 CURVE SMOOTH",
"385 352 OFFCURVE",
"373 353 OFFCURVE",
"358 353 CURVE SMOOTH",
"278 353 LINE SMOOTH",
"263 353 OFFCURVE",
"250 352 OFFCURVE",
"235 352 CURVE SMOOTH",
"203 352 OFFCURVE",
"169 353 OFFCURVE",
"136 353 CURVE",
"136 219 LINE",
"169 219 OFFCURVE",
"203 220 OFFCURVE",
"235 220 CURVE SMOOTH",
"250 220 OFFCURVE",
"263 219 OFFCURVE",
"278 219 CURVE SMOOTH"
);
},
{
closed = 1;
nodes = (
"236 161 LINE SMOOTH",
"236 184 OFFCURVE",
"235 199 OFFCURVE",
"235 220 CURVE SMOOTH",
"235 352 LINE SMOOTH",
"235 373 OFFCURVE",
"236 389 OFFCURVE",
"236 411 CURVE SMOOTH",
"236 552 LINE",
"208 558 OFFCURVE",
"176 559 OFFCURVE",
"155 559 CURVE SMOOTH",
"136 559 OFFCURVE",
"97 558 OFFCURVE",
"70 552 CURVE",
"70 0 LINE",
"97 -5 OFFCURVE",
"136 -6 OFFCURVE",
"155 -6 CURVE SMOOTH",
"176 -6 OFFCURVE",
"208 -5 OFFCURVE",
"236 0 CURVE"
);
},
{
closed = 1;
nodes = (
"399 0 LINE",
"428 -5 OFFCURVE",
"460 -6 OFFCURVE",
"482 -6 CURVE",
"504 -6 OFFCURVE",
"536 -5 OFFCURVE",
"565 0 CURVE",
"565 552 LINE",
"538 558 OFFCURVE",
"499 559 OFFCURVE",
"480 559 CURVE SMOOTH",
"459 559 OFFCURVE",
"427 558 OFFCURVE",
"399 552 CURVE",
"399 411 LINE SMOOTH",
"399 389 OFFCURVE",
"400 373 OFFCURVE",
"400 352 CURVE SMOOTH",
"400 220 LINE SMOOTH",
"400 199 OFFCURVE",
"399 184 OFFCURVE",
"399 161 CURVE SMOOTH"
);
}
);
width = 635;
}
);
leftKerningGroup = b.smcp;
rightKerningGroup = h.smcp;
},
{
glyphname = i.smcp;
lastChange = "2014-06-06 08:29:36 +0000";
layers = (
{
anchors = (
{
name = bottom;
position = "{131, -20}";
},
{
name = top;
position = "{131, 594}";
}
);
layerId = UUID0;
paths = (
{
closed = 1;
nodes = (
"96 0 LINE",
"105 -2 OFFCURVE",
"119 -3 OFFCURVE",
"131 -3 CURVE SMOOTH",
"144 -3 OFFCURVE",
"157 -2 OFFCURVE",
"167 0 CURVE",
"167 542 LINE",
"157 544 OFFCURVE",
"144 545 OFFCURVE",
"131 545 CURVE SMOOTH",
"119 545 OFFCURVE",
"105 544 OFFCURVE",
"96 542 CURVE"
);
}
);
width = 263;
},
{
anchors = (
{
name = bottom;
position = "{157, -20}";
},
{
name = top;
position = "{157, 594}";
}
);
layerId = UUID1;
paths = (
{
closed = 1;
nodes = (
"72 0 LINE",
"99 -5 OFFCURVE",
"138 -6 OFFCURVE",
"157 -6 CURVE SMOOTH",
"178 -6 OFFCURVE",
"210 -5 OFFCURVE",
"238 0 CURVE",
"238 552 LINE",
"210 557 OFFCURVE",
"178 558 OFFCURVE",
"157 558 CURVE SMOOTH",
"138 558 OFFCURVE",
"99 557 OFFCURVE",
"72 552 CURVE"
);
}
);
width = 310;
}
);
leftKerningGroup = b.smcp;
rightKerningGroup = h.smcp;
},
{
glyphname = j.smcp;
lastChange = "2014-06-06 08:29:36 +0000";
layers = (
{
anchors = (
{
name = bottom;
position = "{172, -20}";
},
{
name = top;
position = "{266, 594}";
}
);
layerId = UUID0;
paths = (
{
closed = 1;
nodes = (
"16 65 OFFCURVE",
"6 44 OFFCURVE",
"4 25 CURVE",
"36 7 OFFCURVE",
"84 -10 OFFCURVE",
"137 -10 CURVE SMOOTH",
"250 -10 OFFCURVE",
"302 50 OFFCURVE",
"302 181 CURVE SMOOTH",
"302 542 LINE",
"293 544 OFFCURVE",
"280 545 OFFCURVE",
"267 545 CURVE SMOOTH",
"254 545 OFFCURVE",
"241 544 OFFCURVE",
"231 542 CURVE",
"231 182 LINE",
"231 91 OFFCURVE",
"206 49 OFFCURVE",
"133 49 CURVE SMOOTH",
"98 49 OFFCURVE",
"54 64 OFFCURVE",
"30 78 CURVE"
);
}
);
width = 380;
},
{
anchors = (
{
name = bottom;
position = "{193, -20}";
},
{
name = top;
position = "{292, 594}";
}
);
layerId = UUID1;
paths = (
{
closed = 1;
nodes = (
"27 114 OFFCURVE",
"8 70 OFFCURVE",
"1 30 CURVE",
"33 5 OFFCURVE",
"101 -15 OFFCURVE",
"160 -15 CURVE SMOOTH",
"319 -15 OFFCURVE",
"375 69 OFFCURVE",
"375 217 CURVE SMOOTH",
"375 552 LINE",
"347 558 OFFCURVE",
"313 558 OFFCURVE",
"292 558 CURVE SMOOTH",
"273 558 OFFCURVE",
"236 557 OFFCURVE",
"209 552 CURVE",
"209 210 LINE",
"209 149 OFFCURVE",
"187 116 OFFCURVE",
"138 116 CURVE SMOOTH",
"114 116 OFFCURVE",
"84 126 OFFCURVE",
"56 144 CURVE"
);
}
);
width = 434;
}
);
leftKerningGroup = j.smcp;
rightKerningGroup = u.smcp;
},
{
glyphname = k.smcp;
lastChange = "2014-06-06 08:29:36 +0000";
layers = (
{
anchors = (
{
name = bottom;
position = "{270, -20}";
},
{
name = top;
position = "{266, 594}";
}
);
layerId = UUID0;
paths = (
{
closed = 1;
nodes = (
"92 0 LINE",
"101 -2 OFFCURVE",
"115 -3 OFFCURVE",
"127 -3 CURVE SMOOTH",
"140 -3 OFFCURVE",
"153 -2 OFFCURVE",
"163 0 CURVE",
"163 542 LINE",
"153 544 OFFCURVE",
"140 545 OFFCURVE",
"127 545 CURVE SMOOTH",
"115 545 OFFCURVE",
"101 544 OFFCURVE",
"92 542 CURVE"
);
},
{
closed = 1;
nodes = (
"492 33 OFFCURVE",
"478 57 OFFCURVE",
"467 80 CURVE SMOOTH",
"409 202 LINE SMOOTH",
"381 260 OFFCURVE",
"349 296 OFFCURVE",
"280 296 CURVE SMOOTH",
"122 296 LINE",
"122 245 LINE",
"158 247 LINE SMOOTH",
"183 248 OFFCURVE",
"218 250 OFFCURVE",
"233 250 CURVE SMOOTH",
"291 250 OFFCURVE",
"316 231 OFFCURVE",
"343 175 CURVE SMOOTH",
"408 41 LINE SMOOTH",
"423 11 OFFCURVE",
"433 -5 OFFCURVE",
"460 -5 CURVE SMOOTH",
"476 -5 OFFCURVE",
"495 6 OFFCURVE",
"505 21 CURVE"
);
},
{
closed = 1;
nodes = (
"257 331 LINE SMOOTH",
"246 316 OFFCURVE",
"241 312 OFFCURVE",
"224 311 CURVE SMOOTH",
"128 307 LINE",
"128 268 LINE",
"228 268 LINE SMOOTH",
"272 268 OFFCURVE",
"306 289 OFFCURVE",
"330 324 CURVE SMOOTH",
"476 535 LINE",
"470 542 LINE",
"456 543 OFFCURVE",
"443 544 OFFCURVE",
"431 544 CURVE SMOOTH",
"403 544 OFFCURVE",
"394 532 OFFCURVE",
"380 512 CURVE SMOOTH"
);
}
);
width = 528;
},
{
anchors = (
{
name = bottom;
position = "{298, -20}";
},
{
name = top;
position = "{294, 594}";
}
);
layerId = UUID1;
paths = (
{
closed = 1;
nodes = (
"70 0 LINE",
"97 -5 OFFCURVE",
"136 -6 OFFCURVE",
"155 -6 CURVE SMOOTH",
"176 -6 OFFCURVE",
"208 -5 OFFCURVE",
"236 0 CURVE",
"236 552 LINE",
"208 557 OFFCURVE",
"176 558 OFFCURVE",
"155 558 CURVE SMOOTH",
"136 558 OFFCURVE",
"97 557 OFFCURVE",
"70 552 CURVE"
);
},
{
closed = 1;
nodes = (
"540 61 OFFCURVE",
"528 88 OFFCURVE",
"512 126 CURVE SMOOTH",
"479 211 LINE SMOOTH",
"453 272 OFFCURVE",
"426 309 OFFCURVE",
"317 309 CURVE SMOOTH",
"122 309 LINE",
"122 207 LINE",
"167 212 LINE SMOOTH",
"195 215 OFFCURVE",
"246 219 OFFCURVE",
"266 218 CURVE SMOOTH",
"295 216 OFFCURVE",
"308 203 OFFCURVE",
"322 167 CURVE SMOOTH",
"362 65 LINE SMOOTH",
"380 20 OFFCURVE",
"400 -7 OFFCURVE",
"456 -8 CURVE SMOOTH",
"499 -9 OFFCURVE",
"543 12 OFFCURVE",
"565 40 CURVE"
);
},
{
closed = 1;
nodes = (
"282 377 LINE SMOOTH",
"269 354 OFFCURVE",
"267 349 OFFCURVE",
"238 349 CURVE SMOOTH",
"132 348 LINE",
"132 269 LINE",
"292 269 LINE SMOOTH",
"362 269 OFFCURVE",
"410 303 OFFCURVE",
"450 373 CURVE SMOOTH",
"547 542 LINE",
"538 552 LINE",
"511 556 OFFCURVE",
"455 559 OFFCURVE",
"438 559 CURVE SMOOTH",
"388 559 OFFCURVE",
"371 541 OFFCURVE",
"353 506 CURVE SMOOTH"
);
}
);
width = 580;
}
);
leftKerningGroup = b.smcp;
rightKerningGroup = k.smcp;
},
{
glyphname = l.smcp;
lastChange = "2014-06-06 08:29:36 +0000";
layers = (
{
anchors = (
{
name = bottom;
position = "{259, -20}";
},
{
name = top;
position = "{128, 594}";
}
);
layerId = UUID0;
paths = (
{
closed = 1;
nodes = (
"163 500 LINE",
"163 531 OFFCURVE",
"157 545 OFFCURVE",
"126 545 CURVE SMOOTH",
"97 545 LINE",
"92 540 LINE",
"92 46 LINE SMOOTH",
"92 16 OFFCURVE",
"110 0 OFFCURVE",
"133 0 CURVE SMOOTH",
"163 0 LINE"
);
},
{
closed = 1;
nodes = (
"241 62 LINE",
"199 62 OFFCURVE",
"152 59 OFFCURVE",
"108 52 CURVE",
"133 0 LINE",
"382 0 LINE SMOOTH",
"407 0 OFFCURVE",
"423 11 OFFCURVE",
"427 33 CURVE SMOOTH",
"429 42 OFFCURVE",
"429 55 OFFCURVE",
"429 62 CURVE"
);
}
);
width = 456;
},
{
anchors = (
{
name = bottom;
position = "{261, -20}";
},
{
name = top;
position = "{146, 594}";
}
);
layerId = UUID1;
paths = (
{
closed = 1;
nodes = (
"234 454 LINE",
"234 528 OFFCURVE",
"200 557 OFFCURVE",
"137 557 CURVE SMOOTH",
"74 557 LINE",
"68 551 LINE",
"68 90 LINE SMOOTH",
"68 33 OFFCURVE",
"104 -3 OFFCURVE",
"164 -3 CURVE SMOOTH",
"234 -3 LINE"
);
},
{
closed = 1;
nodes = (
"328 134 LINE",
"268 134 OFFCURVE",
"173 125 OFFCURVE",
"94 107 CURVE",
"164 -3 LINE",
"353 -3 LINE SMOOTH",
"413 -3 OFFCURVE",
"451 26 OFFCURVE",
"460 78 CURVE SMOOTH",
"463 97 OFFCURVE",
"463 114 OFFCURVE",
"464 134 CURVE"
);
}
);
width = 485;
}
);
leftKerningGroup = b.smcp;
rightKerningGroup = l.smcp;
},
{
glyphname = m.smcp;
lastChange = "2014-06-06 08:29:36 +0000";
layers = (
{
anchors = (
{
name = bottom;
position = "{357, -20}";
},
{
name = top;
position = "{358, 594}";
}
);
layerId = UUID0;
paths = (
{
closed = 1;
nodes = (
"78 1 LINE",
"87 -2 OFFCURVE",
"103 -4 OFFCURVE",
"115 -4 CURVE SMOOTH",
"127 -4 OFFCURVE",
"138 -3 OFFCURVE",
"149 -1 CURVE",
"176 325 LINE SMOOTH",
"179 360 OFFCURVE",
"183 426 OFFCURVE",
"183 464 CURVE",
"188 464 LINE",
"323 80 LINE",
"333 78 OFFCURVE",
"345 77 OFFCURVE",
"357 77 CURVE SMOOTH",
"369 77 OFFCURVE",
"382 78 OFFCURVE",
"392 80 CURVE",
"528 464 LINE",
"533 464 LINE",
"533 426 OFFCURVE",
"537 360 OFFCURVE",
"540 325 CURVE SMOOTH",
"567 -1 LINE",
"578 -3 OFFCURVE",
"588 -4 OFFCURVE",
"599 -4 CURVE SMOOTH",
"611 -4 OFFCURVE",
"627 -2 OFFCURVE",
"638 1 CURVE",
"588 542 LINE",
"578 545 OFFCURVE",
"553 547 OFFCURVE",
"539 547 CURVE SMOOTH",
"524 547 OFFCURVE",
"501 545 OFFCURVE",
"491 542 CURVE",
"397 266 LINE SMOOTH",
"387 241 OFFCURVE",
"363 168 OFFCURVE",
"361 153 CURVE",
"357 153 LINE",
"354 168 OFFCURVE",
"329 241 OFFCURVE",
"320 266 CURVE SMOOTH",
"224 542 LINE",
"212 546 OFFCURVE",
"192 547 OFFCURVE",
"177 547 CURVE SMOOTH",
"162 547 OFFCURVE",
"141 546 OFFCURVE",
"128 542 CURVE"
);
}
);
width = 716;
},
{
anchors = (
{
name = bottom;
position = "{382, -20}";
},
{
name = top;
position = "{381, 594}";
}
);
layerId = UUID1;
paths = (
{
closed = 1;
nodes = (
"48 2 LINE",
"70 -3 OFFCURVE",
"100 -6 OFFCURVE",
"132 -6 CURVE SMOOTH",
"156 -6 OFFCURVE",
"184 -4 OFFCURVE",
"206 0 CURVE",
"218 163 LINE SMOOTH",
"224 236 OFFCURVE",
"221 333 OFFCURVE",
"221 392 CURVE",
"228 392 LINE",
"296 85 LINE",
"318 81 OFFCURVE",
"358 79 OFFCURVE",
"381 79 CURVE SMOOTH",
"403 79 OFFCURVE",
"443 81 OFFCURVE",
"467 85 CURVE",
"535 392 LINE",
"541 392 LINE",
"542 334 OFFCURVE",
"538 235 OFFCURVE",
"544 164 CURVE SMOOTH",
"557 0 LINE",
"579 -4 OFFCURVE",
"609 -6 OFFCURVE",
"633 -6 CURVE SMOOTH",
"665 -6 OFFCURVE",
"694 -3 OFFCURVE",
"715 2 CURVE",
"658 552 LINE",
"626 558 OFFCURVE",
"580 560 OFFCURVE",
"553 560 CURVE SMOOTH",
"528 560 OFFCURVE",
"484 558 OFFCURVE",
"451 552 CURVE",
"406 340 LINE SMOOTH",
"400 313 OFFCURVE",
"393 269 OFFCURVE",
"385 215 CURVE",
"378 215 LINE",
"370 269 OFFCURVE",
"363 314 OFFCURVE",
"357 340 CURVE SMOOTH",
"312 552 LINE",
"284 558 OFFCURVE",
"236 560 OFFCURVE",
"210 560 CURVE SMOOTH",
"183 560 OFFCURVE",
"139 558 OFFCURVE",
"105 552 CURVE"
);
}
);
width = 763;
}
);
},
{
glyphname = n.smcp;
lastChange = "2014-06-06 08:29:36 +0000";
layers = (
{
anchors = (
{
name = bottom;
position = "{300, -20}";
},
{
name = top;
position = "{306, 594}";
}
);
layerId = UUID0;
paths = (
{
closed = 1;
nodes = (
"92 0 LINE",
"104 -2 OFFCURVE",
"118 -3 OFFCURVE",
"126 -3 CURVE SMOOTH",
"136 -3 OFFCURVE",
"148 -2 OFFCURVE",
"161 0 CURVE",
"161 280 LINE SMOOTH",
"161 319 OFFCURVE",
"159 402 OFFCURVE",
"156 451 CURVE",
"164 452 LINE",
"175 542 LINE",
"164 544 OFFCURVE",
"144 545 OFFCURVE",
"134 545 CURVE SMOOTH",
"126 545 OFFCURVE",
"104 544 OFFCURVE",
"92 542 CURVE"
);
},
{
closed = 1;
nodes = (
"434 0 LINE",
"517 16 LINE",
"451 86 LINE",
"432 120 OFFCURVE",
"412 157 OFFCURVE",
"390 193 CURVE",
"175 542 LINE",
"92 532 LINE",
"160 452 LINE",
"179 417 OFFCURVE",
"199 383 OFFCURVE",
"221 347 CURVE SMOOTH"
);
},
{
closed = 1;
nodes = (
"512 545 LINE",
"485 545 LINE SMOOTH",
"454 545 OFFCURVE",
"448 531 OFFCURVE",
"448 500 CURVE SMOOTH",
"448 261 LINE SMOOTH",
"448 221 OFFCURVE",
"452 133 OFFCURVE",
"456 87 CURVE",
"448 86 LINE",
"434 0 LINE",
"445 -2 OFFCURVE",
"466 -3 OFFCURVE",
"475 -3 CURVE SMOOTH",
"484 -3 OFFCURVE",
"505 -2 OFFCURVE",
"517 0 CURVE",
"517 540 LINE"
);
}
);
width = 609;
},
{
anchors = (
{
name = bottom;
position = "{318, -20}";
},
{
name = top;
position = "{324, 594}";
}
);
layerId = UUID1;
paths = (
{
closed = 1;
nodes = (
"70 0 LINE",
"96 -5 OFFCURVE",
"128 -6 OFFCURVE",
"148 -6 CURVE SMOOTH",
"169 -6 OFFCURVE",
"195 -5 OFFCURVE",
"222 0 CURVE",
"222 141 LINE SMOOTH",
"222 174 OFFCURVE",
"217 287 OFFCURVE",
"213 369 CURVE",
"220 372 LINE",
"258 552 LINE",
"232 558 OFFCURVE",
"184 558 OFFCURVE",
"163 558 CURVE SMOOTH",
"142 558 OFFCURVE",
"96 554 OFFCURVE",
"70 548 CURVE"
);
},
{
closed = 1;
nodes = (
"382 0 LINE",
"573 19 LINE",
"427 171 LINE",
"417 195 OFFCURVE",
"376 292 OFFCURVE",
"367 310 CURVE",
"258 552 LINE",
"70 529 LINE",
"216 372 LINE",
"226 350 OFFCURVE",
"261 263 OFFCURVE",
"270 243 CURVE SMOOTH"
);
},
{
closed = 1;
nodes = (
"567 559 LINE",
"513 559 LINE SMOOTH",
"450 559 OFFCURVE",
"417 543 OFFCURVE",
"417 469 CURVE SMOOTH",
"417 405 LINE SMOOTH",
"417 355 OFFCURVE",
"427 241 OFFCURVE",
"431 173 CURVE",
"424 171 LINE",
"382 0 LINE",
"407 -6 OFFCURVE",
"459 -6 OFFCURVE",
"480 -6 CURVE SMOOTH",
"500 -6 OFFCURVE",
"546 -3 OFFCURVE",
"573 3 CURVE",
"573 552 LINE"
);
}
);
width = 643;
}
);
leftKerningGroup = b.smcp;
rightKerningGroup = h.smcp;
},
{
glyphname = o.smcp;
lastChange = "2014-06-06 08:29:36 +0000";
layers = (
{
anchors = (
{
name = bottom;
position = "{289, -20}";
},
{
name = top;
position = "{289, 594}";
}
);
layerId = UUID0;
paths = (
{
closed = 1;
nodes = (
"121 371 OFFCURVE",
"154 496 OFFCURVE",
"289 496 CURVE SMOOTH",
"425 496 OFFCURVE",
"457 371 OFFCURVE",
"457 271 CURVE SMOOTH",
"457 171 OFFCURVE",
"425 46 OFFCURVE",
"289 46 CURVE SMOOTH",
"154 46 OFFCURVE",
"121 171 OFFCURVE",
"121 271 CURVE SMOOTH"
);
},
{
closed = 1;
nodes = (
"46 183 OFFCURVE",
"75 89 OFFCURVE",
"143 35 CURVE SMOOTH",
"179 7 OFFCURVE",
"223 -12 OFFCURVE",
"289 -12 CURVE SMOOTH",
"356 -12 OFFCURVE",
"400 7 OFFCURVE",
"436 35 CURVE SMOOTH",
"504 89 OFFCURVE",
"533 183 OFFCURVE",
"533 271 CURVE SMOOTH",
"533 358 OFFCURVE",
"504 454 OFFCURVE",
"436 508 CURVE SMOOTH",
"400 536 OFFCURVE",
"356 554 OFFCURVE",
"289 554 CURVE SMOOTH",
"223 554 OFFCURVE",
"179 536 OFFCURVE",
"143 508 CURVE SMOOTH",
"75 454 OFFCURVE",
"46 358 OFFCURVE",
"46 271 CURVE SMOOTH"
);
}
);
width = 579;
},
{
anchors = (
{
name = bottom;
position = "{304, -20}";
},
{
name = top;
position = "{304, 594}";
}
);
layerId = UUID1;
paths = (
{
closed = 1;
nodes = (
"199 350 OFFCURVE",
"211 446 OFFCURVE",
"305 446 CURVE SMOOTH",
"399 446 OFFCURVE",
"410 350 OFFCURVE",
"410 275 CURVE SMOOTH",
"410 201 OFFCURVE",
"399 106 OFFCURVE",
"305 106 CURVE SMOOTH",
"211 106 OFFCURVE",
"199 201 OFFCURVE",
"199 275 CURVE SMOOTH"
);
},
{
closed = 1;
nodes = (
"30 192 OFFCURVE",
"53 93 OFFCURVE",
"129 35 CURVE SMOOTH",
"170 4 OFFCURVE",
"220 -15 OFFCURVE",
"304 -15 CURVE SMOOTH",
"389 -15 OFFCURVE",
"439 4 OFFCURVE",
"480 35 CURVE SMOOTH",
"556 93 OFFCURVE",
"579 192 OFFCURVE",
"579 275 CURVE SMOOTH",
"579 360 OFFCURVE",
"556 458 OFFCURVE",
"480 516 CURVE SMOOTH",
"439 547 OFFCURVE",
"389 567 OFFCURVE",
"304 567 CURVE SMOOTH",
"220 567 OFFCURVE",
"170 546 OFFCURVE",
"129 515 CURVE SMOOTH",
"53 457 OFFCURVE",
"30 360 OFFCURVE",
"30 275 CURVE SMOOTH"
);
}
);
width = 609;
}
);
leftKerningGroup = c.smcp;
rightKerningGroup = o.smcp;
},
{
glyphname = p.smcp;
lastChange = "2014-06-06 08:29:36 +0000";
layers = (
{
anchors = (
{
name = bottom;
position = "{127, -20}";
},
{
name = top;
position = "{258, 594}";
}
);
layerId = UUID0;
paths = (
{
closed = 1;
nodes = (
"466 490 OFFCURVE",
"382 545 OFFCURVE",
"267 545 CURVE SMOOTH",
"209 545 OFFCURVE",
"161 543 OFFCURVE",
"97 542 CURVE",
"92 537 LINE",
"92 0 LINE",
"101 -2 OFFCURVE",
"115 -3 OFFCURVE",
"127 -3 CURVE SMOOTH",
"140 -3 OFFCURVE",
"153 -2 OFFCURVE",
"163 0 CURVE",
"163 488 LINE",
"196 487 OFFCURVE",
"239 487 OFFCURVE",
"268 487 CURVE SMOOTH",
"367 487 OFFCURVE",
"391 427 OFFCURVE",
"391 374 CURVE SMOOTH",
"391 323 OFFCURVE",
"367 261 OFFCURVE",
"268 261 CURVE SMOOTH",
"239 261 OFFCURVE",
"166 261 OFFCURVE",
"134 260 CURVE",
"134 203 LINE",
"132 203 OFFCURVE",
"230 203 OFFCURVE",
"267 203 CURVE SMOOTH",
"384 203 OFFCURVE",
"466 260 OFFCURVE",
"466 374 CURVE SMOOTH"
);
}
);
width = 494;
},
{
anchors = (
{
name = bottom;
position = "{155, -20}";
},
{
name = top;
position = "{267, 594}";
}
);
layerId = UUID1;
paths = (
{
closed = 1;
nodes = (
"514 499 OFFCURVE",
"418 557 OFFCURVE",
"286 557 CURVE SMOOTH",
"215 557 OFFCURVE",
"129 554 OFFCURVE",
"76 553 CURVE",
"70 547 LINE",
"70 0 LINE",
"97 -5 OFFCURVE",
"136 -6 OFFCURVE",
"155 -6 CURVE SMOOTH",
"176 -6 OFFCURVE",
"208 -5 OFFCURVE",
"236 0 CURVE",
"236 435 LINE",
"258 434 OFFCURVE",
"256 434 OFFCURVE",
"271 434 CURVE SMOOTH",
"335 434 OFFCURVE",
"345 390 OFFCURVE",
"345 362 CURVE SMOOTH",
"345 332 OFFCURVE",
"335 289 OFFCURVE",
"271 289 CURVE SMOOTH",
"256 289 OFFCURVE",
"191 288 OFFCURVE",
"169 286 CURVE",
"169 167 LINE",
"169 167 OFFCURVE",
"264 167 OFFCURVE",
"286 167 CURVE SMOOTH",
"417 167 OFFCURVE",
"514 229 OFFCURVE",
"514 361 CURVE SMOOTH"
);
}
);
width = 538;
}
);
leftKerningGroup = b.smcp;
},
{
glyphname = q.smcp;
lastChange = "2014-06-06 08:29:36 +0000";
layers = (
{
anchors = (
{
name = bottom;
position = "{289, -20}";
},
{
name = top;
position = "{289, 594}";
}
);
layerId = UUID0;
paths = (
{
closed = 1;
nodes = (
"425 -75 LINE",
"443 -88 OFFCURVE",
"460 -94 OFFCURVE",
"477 -94 CURVE SMOOTH",
"504 -94 OFFCURVE",
"533 -77 OFFCURVE",
"533 -41 CURVE",
"504 -40 OFFCURVE",
"479 -32 OFFCURVE",
"417 9 CURVE SMOOTH",
"374 37 LINE",
"297 13 LINE"
);
},
{
closed = 1;
nodes = (
"121 371 OFFCURVE",
"154 496 OFFCURVE",
"289 496 CURVE SMOOTH",
"425 496 OFFCURVE",
"457 371 OFFCURVE",
"457 271 CURVE SMOOTH",
"457 171 OFFCURVE",
"425 46 OFFCURVE",
"289 46 CURVE SMOOTH",
"154 46 OFFCURVE",
"121 171 OFFCURVE",
"121 271 CURVE SMOOTH"
);
},
{
closed = 1;
nodes = (
"46 183 OFFCURVE",
"75 89 OFFCURVE",
"143 35 CURVE SMOOTH",
"179 7 OFFCURVE",
"223 -12 OFFCURVE",
"289 -12 CURVE SMOOTH",
"315 -12 OFFCURVE",
"334 -5 OFFCURVE",
"354 3 CURVE",
"403 10 OFFCURVE",
"439 35 OFFCURVE",
"463 62 CURVE SMOOTH",
"512 117 OFFCURVE",
"533 195 OFFCURVE",
"533 271 CURVE SMOOTH",
"533 358 OFFCURVE",
"504 454 OFFCURVE",
"436 508 CURVE SMOOTH",
"400 536 OFFCURVE",
"356 554 OFFCURVE",
"289 554 CURVE SMOOTH",
"223 554 OFFCURVE",
"179 536 OFFCURVE",
"143 508 CURVE SMOOTH",
"75 454 OFFCURVE",
"46 358 OFFCURVE",
"46 271 CURVE SMOOTH"
);
}
);
width = 580;
},
{
anchors = (
{
name = bottom;
position = "{297, -20}";
},
{
name = top;
position = "{303, 594}";
}
);
layerId = UUID1;
paths = (
{
closed = 1;
nodes = (
"376 -75 LINE",
"419 -117 OFFCURVE",
"458 -122 OFFCURVE",
"486 -122 CURVE SMOOTH",
"544 -122 OFFCURVE",
"592 -83 OFFCURVE",
"596 -6 CURVE",
"567 -4 OFFCURVE",
"515 -7 OFFCURVE",
"462 40 CURVE SMOOTH",
"419 77 LINE",
"269 26 LINE"
);
},
{
closed = 1;
nodes = (
"199 350 OFFCURVE",
"211 446 OFFCURVE",
"305 446 CURVE SMOOTH",
"399 446 OFFCURVE",
"410 350 OFFCURVE",
"410 275 CURVE SMOOTH",
"410 201 OFFCURVE",
"399 106 OFFCURVE",
"305 106 CURVE SMOOTH",
"211 106 OFFCURVE",
"199 201 OFFCURVE",
"199 275 CURVE SMOOTH"
);
},
{
closed = 1;
nodes = (
"30 192 OFFCURVE",
"53 93 OFFCURVE",
"129 35 CURVE SMOOTH",
"170 4 OFFCURVE",
"227 -15 OFFCURVE",
"313 -15 CURVE SMOOTH",
"341 -15 OFFCURVE",
"364 -1 OFFCURVE",
"381 10 CURVE",
"443 16 OFFCURVE",
"485 43 OFFCURVE",
"518 81 CURVE SMOOTH",
"567 138 OFFCURVE",
"579 204 OFFCURVE",
"579 275 CURVE SMOOTH",
"579 360 OFFCURVE",
"556 458 OFFCURVE",
"480 516 CURVE SMOOTH",
"439 547 OFFCURVE",
"389 567 OFFCURVE",
"304 567 CURVE SMOOTH",
"220 567 OFFCURVE",
"170 546 OFFCURVE",
"129 515 CURVE SMOOTH",
"53 457 OFFCURVE",
"30 360 OFFCURVE",
"30 275 CURVE SMOOTH"
);
}
);
width = 612;
}
);
leftKerningGroup = c.smcp;
rightKerningGroup = o.smcp;
},
{
glyphname = r.smcp;
lastChange = "2014-06-06 08:29:36 +0000";
layers = (
{
anchors = (
{
name = bottom;
position = "{270, -20}";
},
{
name = top;
position = "{266, 594}";
}
);
layerId = UUID0;
paths = (
{
closed = 1;
nodes = (
"474 485 OFFCURVE",
"403 545 OFFCURVE",
"278 545 CURVE SMOOTH",
"217 545 OFFCURVE",
"161 544 OFFCURVE",
"97 542 CURVE",
"92 537 LINE",
"92 0 LINE",
"101 -2 OFFCURVE",
"115 -3 OFFCURVE",
"127 -3 CURVE SMOOTH",
"140 -3 OFFCURVE",
"153 -2 OFFCURVE",
"163 0 CURVE",
"163 488 LINE",
"196 487 OFFCURVE",
"247 487 OFFCURVE",
"276 487 CURVE SMOOTH",
"374 487 OFFCURVE",
"399 434 OFFCURVE",
"399 387 CURVE SMOOTH",
"399 342 OFFCURVE",
"374 285 OFFCURVE",
"276 285 CURVE SMOOTH",
"238 285 OFFCURVE",
"184 284 OFFCURVE",
"134 283 CURVE",
"134 226 LINE",
"251 226 LINE SMOOTH",
"311 226 OFFCURVE",
"332 199 OFFCURVE",
"350 157 CURVE SMOOTH",
"402 39 LINE SMOOTH",
"414 11 OFFCURVE",
"424 -5 OFFCURVE",
"452 -5 CURVE SMOOTH",
"469 -5 OFFCURVE",
"489 2 OFFCURVE",
"499 17 CURVE",
"486 30 OFFCURVE",
"474 54 OFFCURVE",
"462 80 CURVE SMOOTH",
"417 180 LINE SMOOTH",
"404 210 OFFCURVE",
"388 232 OFFCURVE",
"356 245 CURVE",
"425 262 OFFCURVE",
"474 318 OFFCURVE",
"474 387 CURVE SMOOTH"
);
}
);
width = 532;
},
{
anchors = (
{
name = bottom;
position = "{293, -20}";
},
{
name = top;
position = "{279, 594}";
}
);
layerId = UUID1;
paths = (
{
closed = 1;
nodes = (
"525 517 OFFCURVE",
"419 557 OFFCURVE",
"299 557 CURVE SMOOTH",
"228 557 OFFCURVE",
"158 555 OFFCURVE",
"76 553 CURVE",
"70 547 LINE",
"70 0 LINE",
"97 -5 OFFCURVE",
"134 -6 OFFCURVE",
"153 -6 CURVE SMOOTH",
"174 -6 OFFCURVE",
"206 -5 OFFCURVE",
"234 0 CURVE",
"234 439 LINE",
"257 439 OFFCURVE",
"268 438 OFFCURVE",
"291 438 CURVE SMOOTH",
"337 438 OFFCURVE",
"356 412 OFFCURVE",
"356 379 CURVE SMOOTH",
"356 345 OFFCURVE",
"340 317 OFFCURVE",
"283 317 CURVE SMOOTH",
"266 317 OFFCURVE",
"195 315 OFFCURVE",
"161 315 CURVE",
"161 192 LINE",
"248 192 LINE SMOOTH",
"278 192 OFFCURVE",
"297 192 OFFCURVE",
"311 160 CURVE SMOOTH",
"354 61 LINE SMOOTH",
"376 11 OFFCURVE",
"402 -10 OFFCURVE",
"448 -10 CURVE SMOOTH",
"496 -10 OFFCURVE",
"540 16 OFFCURVE",
"560 41 CURVE",
"541 57 OFFCURVE",
"525 81 OFFCURVE",
"513 108 CURVE SMOOTH",
"489 164 LINE SMOOTH",
"471 204 OFFCURVE",
"448 228 OFFCURVE",
"412 240 CURVE",
"463 251 OFFCURVE",
"525 306 OFFCURVE",
"525 383 CURVE SMOOTH"
);
}
);
width = 573;
}
);
leftKerningGroup = b.smcp;
rightKerningGroup = r.smcp;
},
{
glyphname = s.smcp;
lastChange = "2014-06-06 08:29:36 +0000";
layers = (
{
anchors = (
{
name = bottom;
position = "{245, -20}";
},
{
name = top;
position = "{238, 594}";
}
);
layerId = UUID0;
paths = (
{
closed = 1;
nodes = (
"79 19 OFFCURVE",
"152 -13 OFFCURVE",
"248 -12 CURVE SMOOTH",
"376 -10 OFFCURVE",
"450 57 OFFCURVE",
"450 149 CURVE SMOOTH",
"450 222 OFFCURVE",
"388 270 OFFCURVE",
"315 295 CURVE SMOOTH",
"208 332 LINE SMOOTH",
"151 352 OFFCURVE",
"123 368 OFFCURVE",
"123 408 CURVE SMOOTH",
"123 458 OFFCURVE",
"165 492 OFFCURVE",
"233 493 CURVE SMOOTH",
"283 494 OFFCURVE",
"347 480 OFFCURVE",
"397 458 CURVE",
"413 471 OFFCURVE",
"423 493 OFFCURVE",
"423 514 CURVE",
"376 535 OFFCURVE",
"304 555 OFFCURVE",
"235 554 CURVE SMOOTH",
"114 552 OFFCURVE",
"49 483 OFFCURVE",
"49 402 CURVE SMOOTH",
"49 337 OFFCURVE",
"91 295 OFFCURVE",
"171 269 CURVE SMOOTH",
"283 232 LINE SMOOTH",
"342 213 OFFCURVE",
"375 179 OFFCURVE",
"375 137 CURVE SMOOTH",
"375 83 OFFCURVE",
"316 48 OFFCURVE",
"250 47 CURVE SMOOTH",
"171 46 OFFCURVE",
"111 76 OFFCURVE",
"65 102 CURVE",
"49 91 OFFCURVE",
"35 68 OFFCURVE",
"34 47 CURVE"
);
}
);
width = 486;
},
{
anchors = (
{
name = bottom;
position = "{255, -20}";
},
{
name = top;
position = "{260, 594}";
}
);
layerId = UUID1;
paths = (
{
closed = 1;
nodes = (
"60 14 OFFCURVE",
"147 -15 OFFCURVE",
"255 -15 CURVE SMOOTH",
"386 -15 OFFCURVE",
"488 46 OFFCURVE",
"488 161 CURVE SMOOTH",
"488 247 OFFCURVE",
"430 306 OFFCURVE",
"336 340 CURVE SMOOTH",
"250 371 LINE SMOOTH",
"226 380 OFFCURVE",
"206 387 OFFCURVE",
"206 405 CURVE SMOOTH",
"206 423 OFFCURVE",
"223 438 OFFCURVE",
"255 438 CURVE SMOOTH",
"303 438 OFFCURVE",
"368 421 OFFCURVE",
"419 399 CURVE",
"453 425 OFFCURVE",
"474 476 OFFCURVE",
"474 523 CURVE",
"421 546 OFFCURVE",
"336 567 OFFCURVE",
"257 567 CURVE SMOOTH",
"120 567 OFFCURVE",
"32 495 OFFCURVE",
"32 389 CURVE SMOOTH",
"32 302 OFFCURVE",
"104 256 OFFCURVE",
"181 227 CURVE SMOOTH",
"267 195 LINE SMOOTH",
"300 183 OFFCURVE",
"310 170 OFFCURVE",
"310 154 CURVE SMOOTH",
"310 128 OFFCURVE",
"286 114 OFFCURVE",
"251 114 CURVE SMOOTH",
"193 114 OFFCURVE",
"126 135 OFFCURVE",
"75 162 CURVE",
"42 141 OFFCURVE",
"16 81 OFFCURVE",
"16 41 CURVE"
);
}
);
width = 511;
}
);
leftKerningGroup = s.smcp;
rightKerningGroup = s.smcp;
},
{
glyphname = t.smcp;
lastChange = "2014-06-06 08:29:36 +0000";
layers = (
{
anchors = (
{
name = bottom;
position = "{214, -20}";
},
{
name = top;
position = "{214, 594}";
}
);
layerId = UUID0;
paths = (
{
closed = 1;
nodes = (
"129 482 LINE",
"141 482 OFFCURVE",
"167 483 OFFCURVE",
"179 483 CURVE SMOOTH",
"248 483 LINE",
"259 483 OFFCURVE",
"287 482 OFFCURVE",
"298 482 CURVE",
"372 482 LINE",
"405 482 OFFCURVE",
"413 493 OFFCURVE",
"413 514 CURVE SMOOTH",
"413 522 OFFCURVE",
"411 534 OFFCURVE",
"408 542 CURVE",
"16 542 LINE",
"14 532 OFFCURVE",
"13 521 OFFCURVE",
"13 512 CURVE SMOOTH",
"13 503 OFFCURVE",
"14 492 OFFCURVE",
"16 482 CURVE"
);
},
{
closed = 1;
nodes = (
"178 0 LINE",
"188 -2 OFFCURVE",
"202 -3 OFFCURVE",
"214 -3 CURVE SMOOTH",
"226 -3 OFFCURVE",
"239 -2 OFFCURVE",
"249 0 CURVE",
"249 424 LINE",
"249 445 OFFCURVE",
"248 461 OFFCURVE",
"248 483 CURVE",
"248 512 LINE",
"179 512 LINE",
"179 483 LINE",
"179 461 OFFCURVE",
"178 445 OFFCURVE",
"178 424 CURVE"
);
}
);
width = 423;
},
{
anchors = (
{
name = bottom;
position = "{237, -20}";
},
{
name = top;
position = "{237, 594}";
}
);
layerId = UUID1;
paths = (
{
closed = 1;
nodes = (
"97 418 LINE",
"111 418 OFFCURVE",
"140 419 OFFCURVE",
"154 419 CURVE SMOOTH",
"320 419 LINE",
"333 419 OFFCURVE",
"360 418 OFFCURVE",
"374 418 CURVE",
"390 418 LINE",
"448 418 OFFCURVE",
"471 444 OFFCURVE",
"471 491 CURVE SMOOTH",
"471 506 OFFCURVE",
"469 533 OFFCURVE",
"464 552 CURVE",
"6 552 LINE",
"1 528 OFFCURVE",
"0 501 OFFCURVE",
"0 483 CURVE SMOOTH",
"0 465 OFFCURVE",
"1 443 OFFCURVE",
"6 418 CURVE"
);
},
{
closed = 1;
nodes = (
"154 0 LINE",
"177 -4 OFFCURVE",
"215 -6 OFFCURVE",
"237 -6 CURVE SMOOTH",
"260 -6 OFFCURVE",
"301 -4 OFFCURVE",
"320 0 CURVE",
"320 358 LINE",
"320 380 OFFCURVE",
"319 396 OFFCURVE",
"319 419 CURVE",
"319 484 LINE",
"155 484 LINE",
"155 419 LINE",
"155 396 OFFCURVE",
"154 380 OFFCURVE",
"154 358 CURVE"
);
}
);
width = 465;
}
);
leftKerningGroup = t.smcp;
rightKerningGroup = t.smcp;
},
{
glyphname = u.smcp;
lastChange = "2014-06-06 08:29:36 +0000";
layers = (
{
anchors = (
{
name = bottom;
position = "{300, -20}";
},
{
name = top;
position = "{298, 594}";
}
);
layerId = UUID0;
paths = (
{
closed = 1;
nodes = (
"517 542 LINE",
"507 544 OFFCURVE",
"493 545 OFFCURVE",
"480 545 CURVE SMOOTH",
"468 545 OFFCURVE",
"455 544 OFFCURVE",
"446 542 CURVE",
"446 187 LINE",
"446 95 OFFCURVE",
"394 46 OFFCURVE",
"300 46 CURVE",
"207 46 OFFCURVE",
"154 95 OFFCURVE",
"154 187 CURVE SMOOTH",
"154 499 LINE SMOOTH",
"154 530 OFFCURVE",
"147 545 OFFCURVE",
"116 545 CURVE SMOOTH",
"88 545 LINE",
"83 540 LINE",
"83 187 LINE SMOOTH",
"83 55 OFFCURVE",
"172 -12 OFFCURVE",
"300 -12 CURVE",
"429 -12 OFFCURVE",
"517 55 OFFCURVE",
"517 187 CURVE"
);
}
);
width = 600;
},
{
anchors = (
{
name = bottom;
position = "{307, -20}";
},
{
name = top;
position = "{303, 594}";
}
);
layerId = UUID1;
paths = (
{
closed = 1;
nodes = (
"554 551 LINE",
"527 557 OFFCURVE",
"488 558 OFFCURVE",
"469 558 CURVE SMOOTH",
"448 558 OFFCURVE",
"416 557 OFFCURVE",
"388 552 CURVE",
"388 209 LINE",
"388 151 OFFCURVE",
"370 115 OFFCURVE",
"307 115 CURVE",
"245 115 OFFCURVE",
"226 151 OFFCURVE",
"226 209 CURVE SMOOTH",
"226 453 LINE SMOOTH",
"226 529 OFFCURVE",
"189 558 OFFCURVE",
"126 558 CURVE SMOOTH",
"66 558 LINE",
"60 552 LINE",
"60 208 LINE SMOOTH",
"60 70 OFFCURVE",
"143 -15 OFFCURVE",
"307 -15 CURVE",
"471 -15 OFFCURVE",
"554 70 OFFCURVE",
"554 208 CURVE"
);
}
);
width = 614;
}
);
leftKerningGroup = u.smcp;
rightKerningGroup = u.smcp;
},
{
glyphname = v.smcp;
lastChange = "2014-06-06 08:29:36 +0000";
layers = (
{
anchors = (
{
name = bottom;
position = "{251, -20}";
},
{
name = top;
position = "{251, 594}";
}
);
layerId = UUID0;
paths = (
{
closed = 1;
nodes = (
"255 65 LINE",
"252 65 OFFCURVE",
"250 66 OFFCURVE",
"248 72 CURVE SMOOTH",
"236 112 OFFCURVE",
"217 172 OFFCURVE",
"205 209 CURVE SMOOTH",
"103 514 LINE SMOOTH",
"94 542 OFFCURVE",
"81 548 OFFCURVE",
"64 548 CURVE SMOOTH",
"49 548 OFFCURVE",
"34 544 OFFCURVE",
"20 538 CURVE",
"191 31 LINE SMOOTH",
"201 0 OFFCURVE",
"218 -4 OFFCURVE",
"241 -4 CURVE SMOOTH",
"259 -4 OFFCURVE",
"275 -3 OFFCURVE",
"293 -1 CURVE",
"477 536 LINE",
"474 541 LINE",
"465 545 OFFCURVE",
"450 546 OFFCURVE",
"441 546 CURVE SMOOTH",
"433 546 OFFCURVE",
"422 545 OFFCURVE",
"412 542 CURVE"
);
}
);
width = 491;
},
{
anchors = (
{
name = bottom;
position = "{280, -20}";
},
{
name = top;
position = "{281, 594}";
}
);
layerId = UUID1;
paths = (
{
closed = 1;
nodes = (
"288 123 LINE",
"283 123 OFFCURVE",
"280 122 OFFCURVE",
"278 132 CURVE SMOOTH",
"266 205 OFFCURVE",
"255 257 OFFCURVE",
"239 313 CURVE SMOOTH",
"190 481 LINE SMOOTH",
"173 538 OFFCURVE",
"148 559 OFFCURVE",
"97 559 CURVE SMOOTH",
"64 559 OFFCURVE",
"32 552 OFFCURVE",
"3 540 CURVE",
"143 65 LINE SMOOTH",
"160 6 OFFCURVE",
"199 -6 OFFCURVE",
"254 -6 CURVE SMOOTH",
"296 -6 OFFCURVE",
"355 -5 OFFCURVE",
"386 0 CURVE",
"548 539 LINE",
"541 547 LINE",
"509 556 OFFCURVE",
"482 558 OFFCURVE",
"457 558 CURVE SMOOTH",
"436 558 OFFCURVE",
"419 557 OFFCURVE",
"394 552 CURVE"
);
}
);
width = 551;
}
);
},
{
glyphname = w.smcp;
lastChange = "2014-06-06 08:29:36 +0000";
layers = (
{
anchors = (
{
name = bottom;
position = "{370, -20}";
},
{
name = top;
position = "{370, 594}";
}
);
layerId = UUID0;
paths = (
{
closed = 1;
nodes = (
"150 33 LINE",
"157 2 OFFCURVE",
"178 -4 OFFCURVE",
"199 -4 CURVE SMOOTH",
"216 -4 OFFCURVE",
"241 -3 OFFCURVE",
"259 0 CURVE",
"323 262 LINE SMOOTH",
"335 312 OFFCURVE",
"353 391 OFFCURVE",
"368 465 CURVE",
"373 465 LINE",
"387 391 OFFCURVE",
"404 309 OFFCURVE",
"414 262 CURVE SMOOTH",
"465 31 LINE SMOOTH",
"471 2 OFFCURVE",
"487 -4 OFFCURVE",
"508 -4 CURVE SMOOTH",
"525 -4 OFFCURVE",
"554 -3 OFFCURVE",
"572 1 CURVE",
"706 537 LINE",
"702 541 LINE",
"691 544 OFFCURVE",
"681 545 OFFCURVE",
"668 545 CURVE SMOOTH",
"657 545 OFFCURVE",
"644 544 OFFCURVE",
"634 542 CURVE",
"559 219 LINE SMOOTH",
"550 182 OFFCURVE",
"534 108 OFFCURVE",
"524 57 CURVE",
"520 57 OFFCURVE",
"519 58 OFFCURVE",
"517 66 CURVE SMOOTH",
"417 535 LINE",
"407 537 OFFCURVE",
"384 538 OFFCURVE",
"371 538 CURVE SMOOTH",
"359 538 OFFCURVE",
"338 537 OFFCURVE",
"325 535 CURVE",
"215 57 LINE",
"211 57 OFFCURVE",
"210 58 OFFCURVE",
"208 66 CURVE SMOOTH",
"200 104 OFFCURVE",
"185 182 OFFCURVE",
"177 219 CURVE SMOOTH",
"114 512 LINE SMOOTH",
"108 538 OFFCURVE",
"99 548 OFFCURVE",
"79 548 CURVE SMOOTH",
"66 548 OFFCURVE",
"49 544 OFFCURVE",
"36 538 CURVE"
);
}
);
width = 733;
},
{
anchors = (
{
name = bottom;
position = "{421, -20}";
},
{
name = top;
position = "{421, 594}";
}
);
layerId = UUID1;
paths = (
{
closed = 1;
nodes = (
"115 63 LINE",
"128 1 OFFCURVE",
"165 -7 OFFCURVE",
"217 -7 CURVE SMOOTH",
"263 -7 OFFCURVE",
"322 -5 OFFCURVE",
"355 0 CURVE",
"390 212 LINE SMOOTH",
"402 283 OFFCURVE",
"411 362 OFFCURVE",
"415 399 CURVE",
"422 399 LINE",
"425 362 OFFCURVE",
"434 282 OFFCURVE",
"445 212 CURVE SMOOTH",
"469 63 LINE SMOOTH",
"479 1 OFFCURVE",
"521 -9 OFFCURVE",
"568 -9 CURVE SMOOTH",
"611 -9 OFFCURVE",
"674 -6 OFFCURVE",
"705 0 CURVE",
"819 536 LINE",
"811 545 LINE",
"789 553 OFFCURVE",
"758 557 OFFCURVE",
"731 557 CURVE SMOOTH",
"709 557 OFFCURVE",
"686 557 OFFCURVE",
"660 551 CURVE",
"612 280 LINE SMOOTH",
"604 235 OFFCURVE",
"597 178 OFFCURVE",
"593 133 CURVE",
"588 133 OFFCURVE",
"585 132 OFFCURVE",
"583 145 CURVE SMOOTH",
"522 544 LINE",
"490 549 OFFCURVE",
"454 551 OFFCURVE",
"421 551 CURVE SMOOTH",
"388 551 OFFCURVE",
"350 549 OFFCURVE",
"319 544 CURVE",
"253 133 LINE",
"246 133 OFFCURVE",
"245 134 OFFCURVE",
"244 145 CURVE SMOOTH",
"239 188 OFFCURVE",
"232 238 OFFCURVE",
"225 278 CURVE SMOOTH",
"193 466 LINE SMOOTH",
"180 535 OFFCURVE",
"163 559 OFFCURVE",
"105 559 CURVE SMOOTH",
"76 559 OFFCURVE",
"37 553 OFFCURVE",
"14 544 CURVE"
);
}
);
width = 836;
}
);
leftKerningGroup = w.smcp;
rightKerningGroup = w.smcp;
},
{
glyphname = x.smcp;
lastChange = "2014-06-06 08:32:06 +0000";
layers = (
{
anchors = (
{
name = bottom;
position = "{248, -20}";
},
{
name = top;
position = "{251, 594}";
}
);
layerId = UUID0;
paths = (
{
closed = 1;
nodes = (
"388 23 LINE",
"402 2 OFFCURVE",
"416 -6 OFFCURVE",
"433 -6 CURVE SMOOTH",
"451 -6 OFFCURVE",
"468 0 OFFCURVE",
"481 12 CURVE",
"135 519 LINE SMOOTH",
"121 539 OFFCURVE",
"109 548 OFFCURVE",
"89 548 CURVE SMOOTH",
"72 548 OFFCURVE",
"58 543 OFFCURVE",
"42 532 CURVE"
);
},
{
closed = 1;
nodes = (
"245 330 LINE",
"216 302 LINE",
"16 8 LINE",
"19 3 LINE",
"27 -1 OFFCURVE",
"41 -4 OFFCURVE",
"56 -4 CURVE SMOOTH",
"66 -4 OFFCURVE",
"80 -2 OFFCURVE",
"86 0 CURVE",
"253 247 LINE",
"279 272 LINE",
"459 535 LINE",
"456 540 LINE",
"448 544 OFFCURVE",
"434 546 OFFCURVE",
"420 546 CURVE SMOOTH",
"410 546 OFFCURVE",
"396 544 OFFCURVE",
"390 542 CURVE"
);
}
);
width = 496;
},
{
anchors = (
{
name = bottom;
position = "{276, -20}";
},
{
name = top;
position = "{282, 594}";
}
);
layerId = UUID1;
paths = (
{
closed = 1;
nodes = (
"339 57 LINE",
"369 13 OFFCURVE",
"397 -8 OFFCURVE",
"443 -8 CURVE SMOOTH",
"465 -8 OFFCURVE",
"515 -3 OFFCURVE",
"558 26 CURVE",
"238 495 LINE SMOOTH",
"207 540 OFFCURVE",
"181 560 OFFCURVE",
"136 560 CURVE SMOOTH",
"112 560 OFFCURVE",
"65 554 OFFCURVE",
"22 526 CURVE"
);
},
{
closed = 1;
nodes = (
"265 381 LINE",
"202 317 LINE",
"3 13 LINE",
"8 5 LINE",
"34 -3 OFFCURVE",
"60 -6 OFFCURVE",
"93 -6 CURVE SMOOTH",
"117 -6 OFFCURVE",
"145 -4 OFFCURVE",
"166 0 CURVE",
"290 197 LINE",
"350 260 LINE",
"534 539 LINE",
"533 547 LINE",
"505 555 OFFCURVE",
"470 558 OFFCURVE",
"449 558 CURVE SMOOTH",
"421 558 OFFCURVE",
"401 558 OFFCURVE",
"376 552 CURVE"
);
}
);
width = 561;
}
);
},
{
glyphname = y.smcp;
lastChange = "2014-06-06 08:29:36 +0000";
layers = (
{
anchors = (
{
name = bottom;
position = "{213, -20}";
},
{
name = top;
position = "{216, 594}";
}
);
layerId = UUID0;
paths = (
{
closed = 1;
nodes = (
"178 0 LINE",
"187 -2 OFFCURVE",
"201 -3 OFFCURVE",
"213 -3 CURVE SMOOTH",
"227 -3 OFFCURVE",
"239 -2 OFFCURVE",
"249 0 CURVE",
"249 197 LINE",
"178 197 LINE"
);
},
{
closed = 1;
nodes = (
"259 339 LINE SMOOTH",
"240 296 OFFCURVE",
"230 264 OFFCURVE",
"220 236 CURVE",
"216 236 LINE",
"207 262 OFFCURVE",
"191 304 OFFCURVE",
"177 336 CURVE SMOOTH",
"97 518 LINE SMOOTH",
"88 539 OFFCURVE",
"77 549 OFFCURVE",
"58 549 CURVE SMOOTH",
"41 549 OFFCURVE",
"29 545 OFFCURVE",
"12 537 CURVE",
"188 149 LINE",
"241 149 LINE",
"415 536 LINE",
"412 541 LINE",
"403 544 OFFCURVE",
"391 546 OFFCURVE",
"379 546 CURVE SMOOTH",
"369 546 OFFCURVE",
"358 545 OFFCURVE",
"347 542 CURVE"
);
}
);
width = 424;
},
{
anchors = (
{
name = bottom;
position = "{241, -20}";
},
{
name = top;
position = "{242, 594}";
}
);
layerId = UUID1;
paths = (
{
closed = 1;
nodes = (
"158 0 LINE",
"185 -5 OFFCURVE",
"222 -6 OFFCURVE",
"241 -6 CURVE SMOOTH",
"262 -6 OFFCURVE",
"293 -5 OFFCURVE",
"320 0 CURVE",
"320 228 LINE",
"158 228 LINE"
);
},
{
closed = 1;
nodes = (
"282 427 LINE SMOOTH",
"271 399 OFFCURVE",
"259 344 OFFCURVE",
"247 304 CURVE",
"241 304 LINE",
"238 335 OFFCURVE",
"231 368 OFFCURVE",
"215 411 CURVE SMOOTH",
"182 499 LINE SMOOTH",
"165 545 OFFCURVE",
"138 560 OFFCURVE",
"94 560 CURVE SMOOTH",
"66 560 OFFCURVE",
"30 551 OFFCURVE",
"0 537 CURVE",
"169 139 LINE",
"311 139 LINE",
"479 540 LINE",
"472 548 LINE",
"441 555 OFFCURVE",
"428 558 OFFCURVE",
"400 558 CURVE SMOOTH",
"379 558 OFFCURVE",
"352 557 OFFCURVE",
"329 551 CURVE"
);
}
);
width = 480;
}
);
leftKerningGroup = y.smcp;
rightKerningGroup = y.smcp;
},
{
glyphname = z.smcp;
lastChange = "2014-06-06 08:29:36 +0000";
layers = (
{
anchors = (
{
name = bottom;
position = "{247, -20}";
},
{
name = top;
position = "{252, 594}";
}
);
layerId = UUID0;
paths = (
{
closed = 1;
nodes = (
"57 80 LINE",
"49 68 OFFCURVE",
"46 56 OFFCURVE",
"46 46 CURVE SMOOTH",
"46 39 OFFCURVE",
"47 31 OFFCURVE",
"56 0 CURVE",
"392 0 LINE SMOOTH",
"431 0 OFFCURVE",
"445 15 OFFCURVE",
"445 40 CURVE SMOOTH",
"445 53 OFFCURVE",
"442 63 OFFCURVE",
"438 75 CURVE",
"415 66 OFFCURVE",
"379 62 OFFCURVE",
"330 62 CURVE SMOOTH",
"219 62 LINE SMOOTH",
"196 62 OFFCURVE",
"163 61 OFFCURVE",
"124 57 CURVE",
"122 60 LINE",
"145 89 OFFCURVE",
"173 122 OFFCURVE",
"193 149 CURVE SMOOTH",
"427 465 LINE SMOOTH",
"434 475 OFFCURVE",
"438 485 OFFCURVE",
"438 495 CURVE SMOOTH",
"438 502 OFFCURVE",
"436 511 OFFCURVE",
"427 542 CURVE",
"72 542 LINE",
"68 529 OFFCURVE",
"66 517 OFFCURVE",
"66 505 CURVE SMOOTH",
"66 497 OFFCURVE",
"67 489 OFFCURVE",
"69 481 CURVE",
"219 481 LINE SMOOTH",
"241 481 OFFCURVE",
"337 482 OFFCURVE",
"360 486 CURVE",
"363 484 LINE",
"336 452 OFFCURVE",
"311 423 OFFCURVE",
"292 397 CURVE SMOOTH"
);
}
);
width = 488;
},
{
anchors = (
{
name = bottom;
position = "{261, -20}";
},
{
name = top;
position = "{266, 594}";
}
);
layerId = UUID1;
paths = (
{
closed = 1;
nodes = (
"51 150 LINE",
"39 135 OFFCURVE",
"32 113 OFFCURVE",
"32 94 CURVE SMOOTH",
"32 82 OFFCURVE",
"34 71 OFFCURVE",
"49 -1 CURVE",
"387 -1 LINE SMOOTH",
"445 -1 OFFCURVE",
"496 30 OFFCURVE",
"496 87 CURVE SMOOTH",
"496 115 OFFCURVE",
"493 132 OFFCURVE",
"487 153 CURVE",
"460 139 OFFCURVE",
"418 135 OFFCURVE",
"382 133 CURVE SMOOTH",
"361 132 LINE SMOOTH",
"319 130 OFFCURVE",
"265 128 OFFCURVE",
"218 125 CURVE",
"216 129 LINE",
"239 146 OFFCURVE",
"271 179 OFFCURVE",
"287 197 CURVE SMOOTH",
"470 401 LINE SMOOTH",
"485 418 OFFCURVE",
"488 436 OFFCURVE",
"488 454 CURVE SMOOTH",
"488 464 OFFCURVE",
"487 473 OFFCURVE",
"465 552 CURVE",
"59 552 LINE",
"52 524 OFFCURVE",
"48 505 OFFCURVE",
"48 477 CURVE SMOOTH",
"48 459 OFFCURVE",
"49 442 OFFCURVE",
"54 422 CURVE",
"167 422 LINE SMOOTH",
"189 422 OFFCURVE",
"262 425 OFFCURVE",
"310 430 CURVE",
"312 427 LINE",
"290 411 OFFCURVE",
"250 373 OFFCURVE",
"234 355 CURVE SMOOTH"
);
}
);
width = 527;
}
);
leftKerningGroup = z.smcp;
rightKerningGroup = z.smcp;
},
{
glyphname = quotesingle;
lastChange = "2014-06-06 07:55:32 +0000";
layers = (
{
layerId = UUID0;
paths = (
{
closed = 1;
nodes = (
"45 680 OFFCURVE",
"62 616 OFFCURVE",
"72 518 CURVE",
"83 513 OFFCURVE",
"103 513 OFFCURVE",
"112 518 CURVE",
"123 615 OFFCURVE",
"139 680 OFFCURVE",
"139 694 CURVE SMOOTH",
"139 707 OFFCURVE",
"137 720 OFFCURVE",
"133 734 CURVE",
"125 739 OFFCURVE",
"108 744 OFFCURVE",
"92 744 CURVE SMOOTH",
"74 744 OFFCURVE",
"60 739 OFFCURVE",
"51 734 CURVE",
"47 720 OFFCURVE",
"45 707 OFFCURVE",
"45 694 CURVE SMOOTH"
);
}
);
width = 191;
},
{
layerId = UUID1;
paths = (
{
closed = 1;
nodes = (
"40 698 OFFCURVE",
"65 588 OFFCURVE",
"78 490 CURVE",
"96 479 OFFCURVE",
"140 479 OFFCURVE",
"158 490 CURVE",
"171 588 OFFCURVE",
"196 698 OFFCURVE",
"196 720 CURVE SMOOTH",
"196 742 OFFCURVE",
"193 763 OFFCURVE",
"189 782 CURVE",
"168 794 OFFCURVE",
"145 800 OFFCURVE",
"118 800 CURVE SMOOTH",
"91 800 OFFCURVE",
"68 794 OFFCURVE",
"47 782 CURVE",
"43 763 OFFCURVE",
"40 742 OFFCURVE",
"40 720 CURVE SMOOTH"
);
}
);
width = 246;
}
);
unicode = 0027;
},
{
glyphname = numbersign;
lastChange = "2014-06-06 07:55:32 +0000";
layers = (
{
layerId = UUID0;
paths = (
{
closed = 1;
nodes = (
"242 631 LINE",
"259 636 OFFCURVE",
"291 636 OFFCURVE",
"308 631 CURVE",
"170 14 LINE",
"155 7 OFFCURVE",
"119 7 OFFCURVE",
"104 14 CURVE"
);
},
{
closed = 1;
nodes = (
"438 631 LINE",
"455 636 OFFCURVE",
"487 636 OFFCURVE",
"504 631 CURVE",
"366 14 LINE",
"351 7 OFFCURVE",
"315 7 OFFCURVE",
"300 14 CURVE"
);
},
{
closed = 1;
nodes = (
"31 169 LINE",
"25 185 OFFCURVE",
"25 215 OFFCURVE",
"31 231 CURVE",
"526 231 LINE",
"532 215 OFFCURVE",
"532 185 OFFCURVE",
"526 169 CURVE"
);
},
{
closed = 1;
nodes = (
"75 414 LINE",
"69 430 OFFCURVE",
"69 460 OFFCURVE",
"75 476 CURVE",
"570 476 LINE",
"576 460 OFFCURVE",
"576 430 OFFCURVE",
"570 414 CURVE"
);
}
);
width = 599;
},
{
layerId = UUID1;
paths = (
{
closed = 1;
nodes = (
"238 653 LINE",
"273 669 OFFCURVE",
"348 669 OFFCURVE",
"380 653 CURVE",
"236 12 LINE",
"201 -4 OFFCURVE",
"126 -4 OFFCURVE",
"94 12 CURVE"
);
},
{
closed = 1;
nodes = (
"498 653 LINE",
"533 669 OFFCURVE",
"608 669 OFFCURVE",
"640 653 CURVE",
"496 12 LINE",
"461 -4 OFFCURVE",
"386 -4 OFFCURVE",
"354 12 CURVE"
);
},
{
closed = 1;
nodes = (
"27 129 LINE",
"14 166 OFFCURVE",
"14 220 OFFCURVE",
"27 257 CURVE",
"651 257 LINE",
"664 220 OFFCURVE",
"664 166 OFFCURVE",
"651 129 CURVE"
);
},
{
closed = 1;
nodes = (
"81 408 LINE",
"68 445 OFFCURVE",
"68 499 OFFCURVE",
"81 536 CURVE",
"705 536 LINE",
"718 499 OFFCURVE",
"718 445 OFFCURVE",
"705 408 CURVE"
);
}
);
width = 728;
}
);
unicode = 0023;
},
{
glyphname = ampersand;
lastChange = "2014-06-06 07:55:32 +0000";
layers = (
{
layerId = UUID0;
paths = (
{
closed = 1;
nodes = (
"300 395 LINE",
"203 395 OFFCURVE",
"161 447 OFFCURVE",
"161 516 CURVE SMOOTH",
"161 585 OFFCURVE",
"208 634 OFFCURVE",
"287 634 CURVE SMOOTH",
"344 634 OFFCURVE",
"390 622 OFFCURVE",
"434 609 CURVE SMOOTH",
"447 623 OFFCURVE",
"454 648 OFFCURVE",
"454 668 CURVE",
"414 683 OFFCURVE",
"350 695 OFFCURVE",
"289 695 CURVE SMOOTH",
"157 695 OFFCURVE",
"85 613 OFFCURVE",
"85 519 CURVE SMOOTH",
"85 433 OFFCURVE",
"153 362 OFFCURVE",
"230 359 CURVE",
"230 373 LINE",
"145 371 OFFCURVE",
"57 288 OFFCURVE",
"57 180 CURVE SMOOTH",
"57 68 OFFCURVE",
"122 -12 OFFCURVE",
"246 -12 CURVE SMOOTH",
"303 -12 OFFCURVE",
"362 8 OFFCURVE",
"409 39 CURVE",
"415 0 LINE",
"424 -2 OFFCURVE",
"435 -3 OFFCURVE",
"449 -3 CURVE SMOOTH",
"463 -3 OFFCURVE",
"474 -2 OFFCURVE",
"483 0 CURVE",
"482 32 OFFCURVE",
"477 110 OFFCURVE",
"477 146 CURVE SMOOTH",
"477 270 LINE SMOOTH",
"477 293 OFFCURVE",
"476 338 OFFCURVE",
"475 364 CURVE",
"409 364 LINE",
"408 338 OFFCURVE",
"407 294 OFFCURVE",
"407 269 CURVE SMOOTH",
"407 101 LINE",
"374 73 OFFCURVE",
"316 49 OFFCURVE",
"257 49 CURVE SMOOTH",
"179 49 OFFCURVE",
"133 100 OFFCURVE",
"133 180 CURVE SMOOTH",
"133 246 OFFCURVE",
"173 333 OFFCURVE",
"291 333 CURVE SMOOTH",
"513 333 LINE SMOOTH",
"547 333 OFFCURVE",
"576 339 OFFCURVE",
"576 373 CURVE SMOOTH",
"576 384 OFFCURVE",
"573 399 OFFCURVE",
"566 408 CURVE",
"547 399 OFFCURVE",
"512 395 OFFCURVE",
"478 395 CURVE SMOOTH"
);
}
);
width = 601;
},
{
layerId = UUID1;
paths = (
{
closed = 1;
nodes = (
"335 427 LINE",
"270 427 OFFCURVE",
"239 449 OFFCURVE",
"239 501 CURVE SMOOTH",
"239 540 OFFCURVE",
"264 570 OFFCURVE",
"317 570 CURVE SMOOTH",
"366 570 OFFCURVE",
"416 557 OFFCURVE",
"461 542 CURVE SMOOTH",
"489 572 OFFCURVE",
"505 623 OFFCURVE",
"503 664 CURVE",
"447 683 OFFCURVE",
"367 698 OFFCURVE",
"287 698 CURVE SMOOTH",
"154 698 OFFCURVE",
"68 625 OFFCURVE",
"68 515 CURVE SMOOTH",
"68 426 OFFCURVE",
"129 358 OFFCURVE",
"212 356 CURVE",
"212 372 LINE",
"127 372 OFFCURVE",
"38 296 OFFCURVE",
"38 179 CURVE SMOOTH",
"38 75 OFFCURVE",
"106 -15 OFFCURVE",
"234 -15 CURVE SMOOTH",
"296 -15 OFFCURVE",
"352 8 OFFCURVE",
"389 42 CURVE",
"400 -2 LINE",
"418 -7 OFFCURVE",
"447 -10 OFFCURVE",
"474 -10 CURVE SMOOTH",
"503 -10 OFFCURVE",
"530 -7 OFFCURVE",
"549 0 CURVE",
"545 48 OFFCURVE",
"542 117 OFFCURVE",
"542 161 CURVE SMOOTH",
"542 228 LINE SMOOTH",
"542 264 OFFCURVE",
"541 318 OFFCURVE",
"537 366 CURVE",
"386 366 LINE",
"382 318 OFFCURVE",
"381 264 OFFCURVE",
"381 228 CURVE SMOOTH",
"381 148 LINE",
"361 131 OFFCURVE",
"328 111 OFFCURVE",
"282 111 CURVE SMOOTH",
"243 111 OFFCURVE",
"209 135 OFFCURVE",
"209 195 CURVE SMOOTH",
"209 260 OFFCURVE",
"250 289 OFFCURVE",
"323 289 CURVE SMOOTH",
"562 289 LINE SMOOTH",
"624 289 OFFCURVE",
"659 316 OFFCURVE",
"659 371 CURVE SMOOTH",
"659 401 OFFCURVE",
"651 431 OFFCURVE",
"638 447 CURVE",
"608 434 OFFCURVE",
"569 427 OFFCURVE",
"530 427 CURVE SMOOTH"
);
}
);
width = 661;
}
);
unicode = 0026;
},
{
glyphname = asterisk;
lastChange = "2014-06-06 07:55:32 +0000";
layers = (
{
layerId = UUID0;
paths = (
{
closed = 1;
nodes = (
"212 681 LINE SMOOTH",
"211 635 OFFCURVE",
"222 584 OFFCURVE",
"230 546 CURVE",
"236 538 OFFCURVE",
"242 535 OFFCURVE",
"247 535 CURVE SMOOTH",
"252 535 OFFCURVE",
"258 539 OFFCURVE",
"264 546 CURVE",
"271 584 OFFCURVE",
"283 635 OFFCURVE",
"282 681 CURVE SMOOTH",
"281 731 LINE",
"263 739 OFFCURVE",
"230 739 OFFCURVE",
"213 731 CURVE"
);
},
{
closed = 1;
nodes = (
"97 547 LINE SMOOTH",
"141 531 OFFCURVE",
"193 527 OFFCURVE",
"231 523 CURVE",
"241 525 OFFCURVE",
"245 530 OFFCURVE",
"247 535 CURVE SMOOTH",
"249 540 OFFCURVE",
"247 547 OFFCURVE",
"242 555 CURVE",
"208 572 OFFCURVE",
"163 600 OFFCURVE",
"119 614 CURVE SMOOTH",
"72 628 LINE",
"58 613 OFFCURVE",
"48 582 OFFCURVE",
"50 564 CURVE"
);
},
{
closed = 1;
nodes = (
"189 396 LINE SMOOTH",
"218 433 OFFCURVE",
"238 481 OFFCURVE",
"254 517 CURVE",
"255 526 OFFCURVE",
"251 532 OFFCURVE",
"247 535 CURVE SMOOTH",
"243 538 OFFCURVE",
"236 539 OFFCURVE",
"226 536 CURVE",
"199 510 OFFCURVE",
"159 475 OFFCURVE",
"132 437 CURVE SMOOTH",
"104 397 LINE",
"115 379 OFFCURVE",
"141 361 OFFCURVE",
"159 357 CURVE"
);
},
{
closed = 1;
nodes = (
"362 437 LINE SMOOTH",
"336 475 OFFCURVE",
"296 510 OFFCURVE",
"267 536 CURVE",
"258 540 OFFCURVE",
"251 538 OFFCURVE",
"247 535 CURVE SMOOTH",
"243 532 OFFCURVE",
"240 526 OFFCURVE",
"240 516 CURVE",
"257 481 OFFCURVE",
"276 433 OFFCURVE",
"305 396 CURVE SMOOTH",
"334 357 LINE",
"355 361 OFFCURVE",
"380 380 OFFCURVE",
"389 396 CURVE"
);
},
{
closed = 1;
nodes = (
"375 614 LINE SMOOTH",
"331 601 OFFCURVE",
"286 574 OFFCURVE",
"252 554 CURVE",
"246 547 OFFCURVE",
"245 540 OFFCURVE",
"247 535 CURVE SMOOTH",
"249 530 OFFCURVE",
"253 526 OFFCURVE",
"264 523 CURVE",
"301 528 OFFCURVE",
"353 532 OFFCURVE",
"397 547 CURVE SMOOTH",
"444 563 LINE",
"446 584 OFFCURVE",
"435 615 OFFCURVE",
"423 627 CURVE"
);
}
);
width = 494;
},
{
layerId = UUID1;
paths = (
{
closed = 1;
nodes = (
"200 664 LINE SMOOTH",
"203 619 OFFCURVE",
"223 570 OFFCURVE",
"237 524 CURVE",
"243 517 OFFCURVE",
"252 513 OFFCURVE",
"261 513 CURVE SMOOTH",
"270 513 OFFCURVE",
"279 517 OFFCURVE",
"285 524 CURVE",
"299 570 OFFCURVE",
"319 619 OFFCURVE",
"322 664 CURVE SMOOTH",
"326 730 LINE",
"296 742 OFFCURVE",
"225 742 OFFCURVE",
"196 730 CURVE"
);
},
{
closed = 1;
nodes = (
"99 502 LINE SMOOTH",
"142 491 OFFCURVE",
"195 494 OFFCURVE",
"243 494 CURVE",
"252 497 OFFCURVE",
"258 504 OFFCURVE",
"261 513 CURVE SMOOTH",
"264 522 OFFCURVE",
"263 531 OFFCURVE",
"258 539 CURVE",
"219 567 OFFCURVE",
"178 602 OFFCURVE",
"136 618 CURVE SMOOTH",
"75 642 LINE",
"54 617 OFFCURVE",
"32 550 OFFCURVE",
"35 518 CURVE"
);
},
{
closed = 1;
nodes = (
"221 356 LINE SMOOTH",
"245 394 OFFCURVE",
"259 444 OFFCURVE",
"274 490 CURVE",
"273 499 OFFCURVE",
"269 507 OFFCURVE",
"261 513 CURVE SMOOTH",
"253 519 OFFCURVE",
"244 520 OFFCURVE",
"235 518 CURVE",
"197 490 OFFCURVE",
"151 462 OFFCURVE",
"123 427 CURVE SMOOTH",
"81 376 LINE",
"98 348 OFFCURVE",
"155 307 OFFCURVE",
"186 300 CURVE"
);
},
{
closed = 1;
nodes = (
"398 426 LINE SMOOTH",
"369 461 OFFCURVE",
"326 490 OFFCURVE",
"287 518 CURVE",
"278 520 OFFCURVE",
"269 519 OFFCURVE",
"261 513 CURVE SMOOTH",
"253 507 OFFCURVE",
"249 499 OFFCURVE",
"248 490 CURVE",
"263 445 OFFCURVE",
"276 393 OFFCURVE",
"300 355 CURVE SMOOTH",
"336 299 LINE",
"368 307 OFFCURVE",
"424 349 OFFCURVE",
"440 376 CURVE"
);
},
{
closed = 1;
nodes = (
"386 616 LINE SMOOTH",
"344 599 OFFCURVE",
"303 568 OFFCURVE",
"264 539 CURVE",
"260 531 OFFCURVE",
"258 522 OFFCURVE",
"261 513 CURVE SMOOTH",
"264 504 OFFCURVE",
"271 497 OFFCURVE",
"279 494 CURVE",
"326 494 OFFCURVE",
"380 490 OFFCURVE",
"423 501 CURVE SMOOTH",
"488 518 LINE",
"490 551 OFFCURVE",
"467 617 OFFCURVE",
"447 641 CURVE"
);
}
);
width = 523;
}
);
unicode = 002A;
},
{
glyphname = comma;
lastChange = "2014-06-06 07:55:32 +0000";
layers = (
{
layerId = UUID0;
paths = (
{
closed = 1;
nodes = (
"171 95 OFFCURVE",
"146 99 OFFCURVE",
"130 99 CURVE SMOOTH",
"113 99 OFFCURVE",
"87 93 OFFCURVE",
"79 89 CURVE",
"74 82 OFFCURVE",
"71 60 OFFCURVE",
"71 45 CURVE SMOOTH",
"71 30 OFFCURVE",
"75 11 OFFCURVE",
"79 4 CURVE",
"87 -2 OFFCURVE",
"106 -7 OFFCURVE",
"117 -9 CURVE",
"117 -51 OFFCURVE",
"86 -88 OFFCURVE",
"41 -110 CURVE",
"40 -124 OFFCURVE",
"48 -142 OFFCURVE",
"61 -149 CURVE",
"147 -117 OFFCURVE",
"189 -46 OFFCURVE",
"189 31 CURVE SMOOTH",
"189 52 OFFCURVE",
"185 77 OFFCURVE",
"179 89 CURVE"
);
}
);
width = 252;
},
{
layerId = UUID1;
paths = (
{
closed = 1;
nodes = (
"211 142 OFFCURVE",
"177 150 OFFCURVE",
"150 150 CURVE SMOOTH",
"123 150 OFFCURVE",
"90 142 OFFCURVE",
"71 131 CURVE",
"64 118 OFFCURVE",
"59 88 OFFCURVE",
"59 68 CURVE SMOOTH",
"59 48 OFFCURVE",
"64 21 OFFCURVE",
"71 8 CURVE",
"81 0 OFFCURVE",
"98 -5 OFFCURVE",
"115 -8 CURVE",
"107 -55 OFFCURVE",
"67 -92 OFFCURVE",
"20 -108 CURVE",
"17 -137 OFFCURVE",
"31 -169 OFFCURVE",
"59 -183 CURVE",
"180 -146 OFFCURVE",
"242 -46 OFFCURVE",
"242 50 CURVE SMOOTH",
"242 79 OFFCURVE",
"239 103 OFFCURVE",
"229 131 CURVE"
);
}
);
width = 299;
}
);
leftKerningGroup = comma;
rightKerningGroup = comma;
unicode = 002C;
},
{
color = (0,243,255,1);
glyphname = hyphen;
lastChange = "2014-06-06 07:55:32 +0000";
layers = (
{
layerId = UUID0;
paths = (
{
closed = 1;
nodes = (
"280 232 LINE",
"282 241 OFFCURVE",
"283 251 OFFCURVE",
"283 264 CURVE SMOOTH",
"283 278 OFFCURVE",
"282 288 OFFCURVE",
"280 298 CURVE",
"53 298 LINE",
"51 288 OFFCURVE",
"50 278 OFFCURVE",
"50 264 CURVE SMOOTH",
"50 251 OFFCURVE",
"51 241 OFFCURVE",
"53 232 CURVE"
);
}
);
width = 333;
},
{
layerId = UUID1;
paths = (
{
closed = 1;
nodes = (
"333 205 LINE",
"339 227 OFFCURVE",
"340 256 OFFCURVE",
"340 270 CURVE SMOOTH",
"340 284 OFFCURVE",
"339 313 OFFCURVE",
"333 335 CURVE",
"47 335 LINE",
"41 313 OFFCURVE",
"40 284 OFFCURVE",
"40 270 CURVE SMOOTH",
"40 256 OFFCURVE",
"41 227 OFFCURVE",
"47 205 CURVE"
);
}
);
width = 380;
}
);
leftKerningGroup = equal;
rightKerningGroup = equal;
unicode = 002D;
},
{
glyphname = period;
lastChange = "2014-06-06 07:55:32 +0000";
layers = (
{
layerId = UUID0;
paths = (
{
closed = 1;
nodes = (
"66 34 OFFCURVE",
"69 11 OFFCURVE",
"74 3 CURVE",
"83 -2 OFFCURVE",
"106 -7 OFFCURVE",
"124 -7 CURVE SMOOTH",
"140 -7 OFFCURVE",
"167 -2 OFFCURVE",
"174 3 CURVE",
"179 11 OFFCURVE",
"182 34 OFFCURVE",
"182 46 CURVE SMOOTH",
"182 58 OFFCURVE",
"179 81 OFFCURVE",
"174 89 CURVE",
"166 94 OFFCURVE",
"140 99 OFFCURVE",
"124 99 CURVE SMOOTH",
"106 99 OFFCURVE",
"83 94 OFFCURVE",
"74 89 CURVE",
"69 81 OFFCURVE",
"66 58 OFFCURVE",
"66 46 CURVE SMOOTH"
);
}
);
width = 248;
},
{
layerId = UUID1;
paths = (
{
closed = 1;
nodes = (
"52 58 OFFCURVE",
"55 27 OFFCURVE",
"64 8 CURVE",
"85 -5 OFFCURVE",
"118 -11 OFFCURVE",
"145 -11 CURVE SMOOTH",
"172 -11 OFFCURVE",
"205 -5 OFFCURVE",
"226 8 CURVE",
"235 27 OFFCURVE",
"238 58 OFFCURVE",
"238 70 CURVE SMOOTH",
"238 82 OFFCURVE",
"235 113 OFFCURVE",
"226 132 CURVE",
"205 144 OFFCURVE",
"172 151 OFFCURVE",
"145 151 CURVE SMOOTH",
"118 151 OFFCURVE",
"85 144 OFFCURVE",
"64 132 CURVE",
"55 113 OFFCURVE",
"52 82 OFFCURVE",
"52 70 CURVE SMOOTH"
);
}
);
width = 290;
}
);
leftKerningGroup = comma;
rightKerningGroup = comma;
unicode = 002E;
},
{
glyphname = question;
lastChange = "2014-06-06 07:55:32 +0000";
layers = (
{
layerId = UUID0;
paths = (
{
closed = 1;
nodes = (
"19 627 OFFCURVE",
"32 603 OFFCURVE",
"43 592 CURVE",
"86 613 OFFCURVE",
"135 630 OFFCURVE",
"183 630 CURVE SMOOTH",
"251 630 OFFCURVE",
"294 588 OFFCURVE",
"294 525 CURVE SMOOTH",
"294 458 OFFCURVE",
"242 410 OFFCURVE",
"161 367 CURVE SMOOTH",
"116 343 LINE",
"110 334 LINE",
"114 185 LINE",
"122 182 OFFCURVE",
"133 181 OFFCURVE",
"143 181 CURVE SMOOTH",
"152 181 OFFCURVE",
"161 182 OFFCURVE",
"169 185 CURVE",
"176 303 LINE",
"240 340 LINE SMOOTH",
"312 382 OFFCURVE",
"370 443 OFFCURVE",
"370 531 CURVE SMOOTH",
"370 632 OFFCURVE",
"298 694 OFFCURVE",
"198 694 CURVE SMOOTH",
"134 694 OFFCURVE",
"70 675 OFFCURVE",
"17 648 CURVE"
);
},
{
closed = 1;
nodes = (
"125 91 OFFCURVE",
"107 87 OFFCURVE",
"97 81 CURVE",
"93 74 OFFCURVE",
"90 53 OFFCURVE",
"90 42 CURVE SMOOTH",
"90 31 OFFCURVE",
"93 10 OFFCURVE",
"97 3 CURVE",
"107 -3 OFFCURVE",
"125 -7 OFFCURVE",
"142 -7 CURVE SMOOTH",
"158 -7 OFFCURVE",
"178 -3 OFFCURVE",
"188 3 CURVE",
"192 10 OFFCURVE",
"195 31 OFFCURVE",
"195 42 CURVE SMOOTH",
"195 53 OFFCURVE",
"192 74 OFFCURVE",
"188 81 CURVE",
"178 87 OFFCURVE",
"158 91 OFFCURVE",
"142 91 CURVE SMOOTH"
);
}
);
width = 380;
},
{
layerId = UUID1;
paths = (
{
closed = 1;
nodes = (
"2 599 OFFCURVE",
"28 547 OFFCURVE",
"59 524 CURVE",
"93 543 OFFCURVE",
"131 559 OFFCURVE",
"171 559 CURVE SMOOTH",
"222 559 OFFCURVE",
"247 534 OFFCURVE",
"247 497 CURVE SMOOTH",
"247 454 OFFCURVE",
"206 426 OFFCURVE",
"154 402 CURVE SMOOTH",
"98 377 LINE",
"85 361 LINE",
"94 212 LINE",
"114 206 OFFCURVE",
"138 204 OFFCURVE",
"157 204 CURVE SMOOTH",
"177 204 OFFCURVE",
"198 206 OFFCURVE",
"217 212 CURVE",
"227 285 LINE",
"287 316 LINE SMOOTH",
"362 355 OFFCURVE",
"418 414 OFFCURVE",
"418 515 CURVE SMOOTH",
"418 621 OFFCURVE",
"347 699 OFFCURVE",
"208 699 CURVE SMOOTH",
"128 699 OFFCURVE",
"56 674 OFFCURVE",
"0 640 CURVE"
);
},
{
closed = 1;
nodes = (
"129 140 OFFCURVE",
"100 134 OFFCURVE",
"80 123 CURVE",
"73 110 OFFCURVE",
"69 81 OFFCURVE",
"69 62 CURVE SMOOTH",
"69 43 OFFCURVE",
"73 15 OFFCURVE",
"80 2 CURVE",
"100 -9 OFFCURVE",
"129 -15 OFFCURVE",
"157 -15 CURVE SMOOTH",
"185 -15 OFFCURVE",
"214 -9 OFFCURVE",
"233 2 CURVE",
"241 15 OFFCURVE",
"245 43 OFFCURVE",
"245 62 CURVE SMOOTH",
"245 81 OFFCURVE",
"241 110 OFFCURVE",
"233 123 CURVE",
"214 134 OFFCURVE",
"185 140 OFFCURVE",
"157 140 CURVE SMOOTH"
);
}
);
width = 424;
}
);
unicode = 003F;
},
{
glyphname = exclam;
lastChange = "2014-06-06 07:55:32 +0000";
layers = (
{
layerId = UUID0;
paths = (
{
closed = 1;
nodes = (
"117 182 OFFCURVE",
"127 181 OFFCURVE",
"137 181 CURVE SMOOTH",
"147 181 OFFCURVE",
"157 182 OFFCURVE",
"165 185 CURVE",
"171 320 OFFCURVE",
"177 455 OFFCURVE",
"177 590 CURVE SMOOTH",
"177 682 LINE",
"157 688 OFFCURVE",
"117 688 OFFCURVE",
"97 683 CURVE",
"97 590 LINE SMOOTH",
"97 455 OFFCURVE",
"104 321 OFFCURVE",
"109 185 CURVE"
);
},
{
closed = 1;
nodes = (
"120 91 OFFCURVE",
"102 87 OFFCURVE",
"92 81 CURVE",
"88 74 OFFCURVE",
"85 53 OFFCURVE",
"85 42 CURVE SMOOTH",
"85 31 OFFCURVE",
"88 10 OFFCURVE",
"92 3 CURVE",
"102 -3 OFFCURVE",
"120 -7 OFFCURVE",
"137 -7 CURVE SMOOTH",
"153 -7 OFFCURVE",
"172 -3 OFFCURVE",
"182 3 CURVE",
"186 10 OFFCURVE",
"189 31 OFFCURVE",
"189 42 CURVE SMOOTH",
"189 53 OFFCURVE",
"186 74 OFFCURVE",
"182 81 CURVE",
"172 87 OFFCURVE",
"153 91 OFFCURVE",
"137 91 CURVE SMOOTH"
);
}
);
width = 275;
},
{
layerId = UUID1;
paths = (
{
closed = 1;
nodes = (
"110 205 OFFCURVE",
"137 204 OFFCURVE",
"151 204 CURVE SMOOTH",
"167 204 OFFCURVE",
"190 205 OFFCURVE",
"212 211 CURVE",
"222 339 OFFCURVE",
"242 466 OFFCURVE",
"242 594 CURVE SMOOTH",
"242 682 LINE",
"197 695 OFFCURVE",
"105 695 OFFCURVE",
"60 682 CURVE",
"60 596 LINE SMOOTH",
"60 466 OFFCURVE",
"77 339 OFFCURVE",
"89 211 CURVE"
);
},
{
closed = 1;
nodes = (
"123 143 OFFCURVE",
"94 137 OFFCURVE",
"74 126 CURVE",
"67 113 OFFCURVE",
"63 84 OFFCURVE",
"63 65 CURVE SMOOTH",
"63 46 OFFCURVE",
"67 18 OFFCURVE",
"74 5 CURVE",
"94 -6 OFFCURVE",
"123 -12 OFFCURVE",
"151 -12 CURVE SMOOTH",
"179 -12 OFFCURVE",
"208 -6 OFFCURVE",
"227 5 CURVE",
"235 18 OFFCURVE",
"239 46 OFFCURVE",
"239 65 CURVE SMOOTH",
"239 84 OFFCURVE",
"235 113 OFFCURVE",
"227 126 CURVE",
"208 137 OFFCURVE",
"179 143 OFFCURVE",
"151 143 CURVE SMOOTH"
);
}
);
width = 311;
}
);
unicode = 0021;
},
{
glyphname = at;
lastChange = "2014-06-06 07:55:32 +0000";
layers = (
{
layerId = UUID0;
paths = (
{
closed = 1;
nodes = (
"642 413 LINE",
"601 450 OFFCURVE",
"544 478 OFFCURVE",
"478 478 CURVE SMOOTH",
"351 478 OFFCURVE",
"281 360 OFFCURVE",
"281 226 CURVE SMOOTH",
"281 92 OFFCURVE",
"343 10 OFFCURVE",
"438 10 CURVE SMOOTH",
"514 10 OFFCURVE",
"587 70 OFFCURVE",
"611 129 CURVE",
"611 129 OFFCURVE",
"597 154 OFFCURVE",
"583 169 CURVE",
"564 120 OFFCURVE",
"501 69 OFFCURVE",
"451 69 CURVE SMOOTH",
"381 69 OFFCURVE",
"351 138 OFFCURVE",
"351 226 CURVE SMOOTH",
"351 334 OFFCURVE",
"397 424 OFFCURVE",
"478 424 CURVE SMOOTH",
"518 424 OFFCURVE",
"555 405 OFFCURVE",
"573 386 CURVE",
"573 132 LINE SMOOTH",
"573 61 OFFCURVE",
"614 15 OFFCURVE",
"688 15 CURVE SMOOTH",
"788 15 OFFCURVE",
"881 114 OFFCURVE",
"881 286 CURVE SMOOTH",
"881 516 OFFCURVE",
"720 672 OFFCURVE",
"481 672 CURVE SMOOTH",
"231 672 OFFCURVE",
"58 479 OFFCURVE",
"58 228 CURVE SMOOTH",
"58 -32 OFFCURVE",
"218 -179 OFFCURVE",
"437 -179 CURVE SMOOTH",
"517 -179 OFFCURVE",
"593 -165 OFFCURVE",
"668 -138 CURVE",
"668 -119 OFFCURVE",
"658 -96 OFFCURVE",
"647 -87 CURVE",
"587 -112 OFFCURVE",
"517 -123 OFFCURVE",
"440 -123 CURVE SMOOTH",
"257 -123 OFFCURVE",
"128 4 OFFCURVE",
"128 228 CURVE SMOOTH",
"128 448 OFFCURVE",
"267 619 OFFCURVE",
"481 619 CURVE SMOOTH",
"682 619 OFFCURVE",
"812 485 OFFCURVE",
"812 289 CURVE SMOOTH",
"812 128 OFFCURVE",
"749 71 OFFCURVE",
"693 71 CURVE SMOOTH",
"658 71 OFFCURVE",
"641 93 OFFCURVE",
"641 153 CURVE SMOOTH"
);
}
);
width = 929;
},
{
layerId = UUID1;
paths = (
{
closed = 1;
nodes = (
"701 411 LINE",
"663 450 OFFCURVE",
"584 487 OFFCURVE",
"505 487 CURVE SMOOTH",
"365 487 OFFCURVE",
"288 382 OFFCURVE",
"288 227 CURVE SMOOTH",
"288 92 OFFCURVE",
"343 -4 OFFCURVE",
"452 -4 CURVE SMOOTH",
"535 -4 OFFCURVE",
"614 70 OFFCURVE",
"640 127 CURVE",
"627 156 OFFCURVE",
"603 179 OFFCURVE",
"584 198 CURVE",
"566 156 OFFCURVE",
"526 117 OFFCURVE",
"490 117 CURVE SMOOTH",
"454 117 OFFCURVE",
"444 152 OFFCURVE",
"444 235 CURVE SMOOTH",
"444 311 OFFCURVE",
"453 374 OFFCURVE",
"505 374 CURVE SMOOTH",
"523 374 OFFCURVE",
"535 370 OFFCURVE",
"549 359 CURVE",
"549 162 LINE SMOOTH",
"549 73 OFFCURVE",
"623 -1 OFFCURVE",
"729 -1 CURVE SMOOTH",
"837 -1 OFFCURVE",
"954 86 OFFCURVE",
"954 297 CURVE SMOOTH",
"954 548 OFFCURVE",
"760 687 OFFCURVE",
"508 687 CURVE SMOOTH",
"237 687 OFFCURVE",
"37 495 OFFCURVE",
"37 221 CURVE SMOOTH",
"37 -75 OFFCURVE",
"214 -205 OFFCURVE",
"463 -205 CURVE SMOOTH",
"545 -205 OFFCURVE",
"649 -182 OFFCURVE",
"711 -154 CURVE",
"711 -119 OFFCURVE",
"698 -73 OFFCURVE",
"671 -43 CURVE",
"608 -67 OFFCURVE",
"542 -81 OFFCURVE",
"476 -81 CURVE SMOOTH",
"305 -81 OFFCURVE",
"200 14 OFFCURVE",
"200 221 CURVE SMOOTH",
"200 425 OFFCURVE",
"322 567 OFFCURVE",
"508 567 CURVE SMOOTH",
"680 567 OFFCURVE",
"793 468 OFFCURVE",
"793 301 CURVE SMOOTH",
"793 161 OFFCURVE",
"765 117 OFFCURVE",
"729 117 CURVE SMOOTH",
"708 117 OFFCURVE",
"700 131 OFFCURVE",
"700 165 CURVE SMOOTH"
);
}
);
width = 984;
}
);
unicode = 0040;
},
{
glyphname = parenleft;
lastChange = "2014-06-06 07:55:32 +0000";
layers = (
{
layerId = UUID0;
paths = (
{
closed = 1;
nodes = (
"143 488 OFFCURVE",
"187 651 OFFCURVE",
"291 780 CURVE",
"281 803 OFFCURVE",
"265 815 OFFCURVE",
"247 820 CURVE",
"131 704 OFFCURVE",
"65 500 OFFCURVE",
"65 326 CURVE SMOOTH",
"65 152 OFFCURVE",
"131 -52 OFFCURVE",
"247 -168 CURVE",
"265 -163 OFFCURVE",
"281 -151 OFFCURVE",
"291 -128 CURVE",
"187 1 OFFCURVE",
"143 164 OFFCURVE",
"143 326 CURVE"
);
}
);
width = 304;
},
{
layerId = UUID1;
paths = (
{
closed = 1;
nodes = (
"228 465 OFFCURVE",
"271 632 OFFCURVE",
"361 760 CURVE",
"341 803 OFFCURVE",
"304 832 OFFCURVE",
"267 845 CURVE",
"127 713 OFFCURVE",
"58 500 OFFCURVE",
"58 322 CURVE SMOOTH",
"58 144 OFFCURVE",
"127 -69 OFFCURVE",
"267 -201 CURVE",
"304 -188 OFFCURVE",
"341 -159 OFFCURVE",
"361 -116 CURVE",
"271 12 OFFCURVE",
"228 179 OFFCURVE",
"228 322 CURVE"
);
}
);
width = 381;
}
);
unicode = 0028;
},
{
glyphname = parenright;
lastChange = "2014-06-06 07:55:32 +0000";
layers = (
{
layerId = UUID0;
paths = (
{
closed = 1;
nodes = (
"161 488 OFFCURVE",
"117 651 OFFCURVE",
"13 780 CURVE",
"23 803 OFFCURVE",
"39 815 OFFCURVE",
"57 820 CURVE",
"173 704 OFFCURVE",
"239 500 OFFCURVE",
"239 326 CURVE SMOOTH",
"239 152 OFFCURVE",
"173 -52 OFFCURVE",
"57 -168 CURVE",
"39 -163 OFFCURVE",
"23 -151 OFFCURVE",
"13 -128 CURVE",
"117 1 OFFCURVE",
"161 164 OFFCURVE",
"161 326 CURVE"
);
}
);
width = 304;
},
{
layerId = UUID1;
paths = (
{
closed = 1;
nodes = (
"153 465 OFFCURVE",
"110 632 OFFCURVE",
"20 760 CURVE",
"40 803 OFFCURVE",
"77 832 OFFCURVE",
"114 845 CURVE",
"254 713 OFFCURVE",
"323 500 OFFCURVE",
"323 322 CURVE SMOOTH",
"323 144 OFFCURVE",
"254 -69 OFFCURVE",
"114 -201 CURVE",
"77 -188 OFFCURVE",
"40 -159 OFFCURVE",
"20 -116 CURVE",
"110 12 OFFCURVE",
"153 179 OFFCURVE",
"153 322 CURVE"
);
}
);
width = 381;
}
);
unicode = 0029;
},
{
glyphname = bracketleft;
lastChange = "2014-06-06 07:55:32 +0000";
layers = (
{
layerId = UUID0;
paths = (
{
closed = 1;
nodes = (
"100 -134 LINE",
"172 -110 LINE",
"172 775 LINE",
"100 801 LINE"
);
},
{
closed = 1;
nodes = (
"279 -133 LINE",
"281 -125 OFFCURVE",
"281 -118 OFFCURVE",
"281 -111 CURVE SMOOTH",
"281 -101 OFFCURVE",
"278 -88 OFFCURVE",
"275 -79 CURVE",
"106 -75 LINE",
"100 -134 LINE",
"106 -140 LINE"
);
},
{
closed = 1;
nodes = (
"106 807 LINE",
"100 801 LINE",
"106 742 LINE",
"275 746 LINE",
"278 755 OFFCURVE",
"281 768 OFFCURVE",
"281 778 CURVE SMOOTH",
"281 785 OFFCURVE",
"281 792 OFFCURVE",
"279 800 CURVE"
);
}
);
width = 311;
},
{
layerId = UUID1;
paths = (
{
closed = 1;
nodes = (
"98 -158 LINE",
"257 -118 LINE",
"257 767 LINE",
"98 822 LINE"
);
},
{
closed = 1;
nodes = (
"363 -157 LINE",
"367 -147 OFFCURVE",
"369 -124 OFFCURVE",
"369 -112 CURVE SMOOTH",
"369 -86 OFFCURVE",
"362 -58 OFFCURVE",
"357 -46 CURVE",
"111 -39 LINE",
"98 -158 LINE",
"107 -166 LINE"
);
},
{
closed = 1;
nodes = (
"107 830 LINE",
"98 822 LINE",
"111 703 LINE",
"357 710 LINE",
"362 722 OFFCURVE",
"369 750 OFFCURVE",
"369 776 CURVE SMOOTH",
"369 788 OFFCURVE",
"367 811 OFFCURVE",
"363 821 CURVE"
);
}
);
width = 402;
}
);
unicode = 005B;
},
{
glyphname = bracketright;
lastChange = "2014-06-06 07:55:32 +0000";
layers = (
{
layerId = UUID0;
paths = (
{
closed = 1;
nodes = (
"211 -134 LINE",
"139 -110 LINE",
"139 775 LINE",
"211 801 LINE"
);
},
{
closed = 1;
nodes = (
"32 -133 LINE",
"30 -125 OFFCURVE",
"30 -118 OFFCURVE",
"30 -111 CURVE SMOOTH",
"30 -101 OFFCURVE",
"33 -88 OFFCURVE",
"36 -79 CURVE",
"205 -75 LINE",
"211 -134 LINE",
"205 -140 LINE"
);
},
{
closed = 1;
nodes = (
"205 807 LINE",
"211 801 LINE",
"205 742 LINE",
"36 746 LINE",
"33 755 OFFCURVE",
"30 768 OFFCURVE",
"30 778 CURVE SMOOTH",
"30 785 OFFCURVE",
"30 792 OFFCURVE",
"32 800 CURVE"
);
}
);
width = 311;
},
{
layerId = UUID1;
paths = (
{
closed = 1;
nodes = (
"304 -158 LINE",
"145 -118 LINE",
"145 767 LINE",
"304 822 LINE"
);
},
{
closed = 1;
nodes = (
"39 -157 LINE",
"35 -147 OFFCURVE",
"33 -124 OFFCURVE",
"33 -112 CURVE SMOOTH",
"33 -86 OFFCURVE",
"40 -58 OFFCURVE",
"45 -46 CURVE",
"291 -39 LINE",
"304 -158 LINE",
"295 -166 LINE"
);
},
{
closed = 1;
nodes = (
"295 830 LINE",
"304 822 LINE",
"291 703 LINE",
"45 710 LINE",
"40 722 OFFCURVE",
"33 750 OFFCURVE",
"33 776 CURVE SMOOTH",
"33 788 OFFCURVE",
"35 811 OFFCURVE",
"39 821 CURVE"
);
}
);
width = 402;
}
);
unicode = 005D;
},
{
glyphname = braceleft;
lastChange = "2014-06-06 07:55:32 +0000";
layers = (
{
layerId = UUID0;
paths = (
{
closed = 1;
nodes = (
"36 337 OFFCURVE",
"36 311 OFFCURVE",
"41 300 CURVE",
"85 282 OFFCURVE",
"121 240 OFFCURVE",
"121 177 CURVE SMOOTH",
"121 0 LINE SMOOTH",
"121 -90 OFFCURVE",
"176 -141 OFFCURVE",
"251 -154 CURVE SMOOTH",
"292 -161 LINE",
"302 -150 OFFCURVE",
"308 -127 OFFCURVE",
"304 -109 CURVE",
"261 -96 LINE SMOOTH",
"215 -82 OFFCURVE",
"193 -49 OFFCURVE",
"193 1 CURVE SMOOTH",
"193 175 LINE SMOOTH",
"193 235 OFFCURVE",
"162 296 OFFCURVE",
"113 320 CURVE",
"113 328 LINE",
"162 352 OFFCURVE",
"193 413 OFFCURVE",
"193 473 CURVE",
"193 646 LINE",
"193 696 OFFCURVE",
"215 729 OFFCURVE",
"261 743 CURVE SMOOTH",
"304 756 LINE",
"308 774 OFFCURVE",
"302 797 OFFCURVE",
"292 808 CURVE",
"251 801 LINE SMOOTH",
"176 788 OFFCURVE",
"121 737 OFFCURVE",
"121 647 CURVE",
"121 471 LINE",
"121 407 OFFCURVE",
"85 366 OFFCURVE",
"41 348 CURVE"
);
}
);
width = 313;
},
{
layerId = UUID1;
paths = (
{
closed = 1;
nodes = (
"35 354 OFFCURVE",
"35 302 OFFCURVE",
"45 276 CURVE",
"95 268 OFFCURVE",
"130 219 OFFCURVE",
"130 168 CURVE SMOOTH",
"130 9 LINE SMOOTH",
"130 -97 OFFCURVE",
"199 -156 OFFCURVE",
"294 -171 CURVE SMOOTH",
"363 -182 LINE",
"385 -158 OFFCURVE",
"400 -101 OFFCURVE",
"394 -77 CURVE",
"332 -56 LINE SMOOTH",
"314 -50 OFFCURVE",
"294 -27 OFFCURVE",
"294 10 CURVE SMOOTH",
"294 166 LINE SMOOTH",
"294 235 OFFCURVE",
"259 301 OFFCURVE",
"205 324 CURVE",
"205 332 LINE",
"259 355 OFFCURVE",
"294 421 OFFCURVE",
"294 490 CURVE",
"294 646 LINE",
"294 683 OFFCURVE",
"314 706 OFFCURVE",
"332 712 CURVE SMOOTH",
"394 733 LINE",
"400 757 OFFCURVE",
"385 814 OFFCURVE",
"363 838 CURVE",
"294 827 LINE SMOOTH",
"199 812 OFFCURVE",
"130 753 OFFCURVE",
"130 647 CURVE",
"130 488 LINE",
"130 437 OFFCURVE",
"95 388 OFFCURVE",
"45 380 CURVE"
);
}
);
width = 406;
}
);
unicode = 007B;
},
{
glyphname = braceright;
lastChange = "2014-06-06 07:55:32 +0000";
layers = (
{
layerId = UUID0;
paths = (
{
closed = 1;
nodes = (
"277 337 OFFCURVE",
"277 311 OFFCURVE",
"272 300 CURVE",
"228 282 OFFCURVE",
"192 240 OFFCURVE",
"192 177 CURVE SMOOTH",
"192 0 LINE SMOOTH",
"192 -90 OFFCURVE",
"137 -141 OFFCURVE",
"62 -154 CURVE SMOOTH",
"21 -161 LINE",
"11 -150 OFFCURVE",
"5 -127 OFFCURVE",
"9 -109 CURVE",
"52 -96 LINE SMOOTH",
"98 -82 OFFCURVE",
"120 -49 OFFCURVE",
"120 1 CURVE SMOOTH",
"120 175 LINE SMOOTH",
"120 235 OFFCURVE",
"151 296 OFFCURVE",
"200 320 CURVE",
"200 328 LINE",
"151 352 OFFCURVE",
"120 413 OFFCURVE",
"120 473 CURVE",
"120 646 LINE",
"120 696 OFFCURVE",
"98 729 OFFCURVE",
"52 743 CURVE SMOOTH",
"9 756 LINE",
"5 774 OFFCURVE",
"11 797 OFFCURVE",
"21 808 CURVE",
"62 801 LINE SMOOTH",
"137 788 OFFCURVE",
"192 737 OFFCURVE",
"192 647 CURVE",
"192 471 LINE",
"192 407 OFFCURVE",
"228 366 OFFCURVE",
"272 348 CURVE"
);
}
);
width = 313;
},
{
layerId = UUID1;
paths = (
{
closed = 1;
nodes = (
"371 354 OFFCURVE",
"371 302 OFFCURVE",
"361 276 CURVE",
"311 268 OFFCURVE",
"276 219 OFFCURVE",
"276 168 CURVE SMOOTH",
"276 9 LINE SMOOTH",
"276 -97 OFFCURVE",
"207 -156 OFFCURVE",
"112 -171 CURVE SMOOTH",
"43 -182 LINE",
"21 -158 OFFCURVE",
"6 -101 OFFCURVE",
"12 -77 CURVE",
"74 -56 LINE SMOOTH",
"92 -50 OFFCURVE",
"112 -27 OFFCURVE",
"112 10 CURVE SMOOTH",
"112 166 LINE SMOOTH",
"112 235 OFFCURVE",
"147 301 OFFCURVE",
"201 324 CURVE",
"201 332 LINE",
"147 355 OFFCURVE",
"112 421 OFFCURVE",
"112 490 CURVE",
"112 646 LINE",
"112 683 OFFCURVE",
"92 706 OFFCURVE",
"74 712 CURVE SMOOTH",
"12 733 LINE",
"6 757 OFFCURVE",
"21 814 OFFCURVE",
"43 838 CURVE",
"112 827 LINE SMOOTH",
"207 812 OFFCURVE",
"276 753 OFFCURVE",
"276 647 CURVE",
"276 488 LINE",
"276 437 OFFCURVE",
"311 388 OFFCURVE",
"361 380 CURVE"
);
}
);
width = 406;
}
);
unicode = 007D;
},
{
glyphname = backslash;
lastChange = "2014-06-06 07:55:32 +0000";
layers = (
{
layerId = UUID0;
paths = (
{
closed = 1;
nodes = (
"14 734 LINE",
"32 748 OFFCURVE",
"56 757 OFFCURVE",
"76 757 CURVE",
"393 -82 LINE",
"376 -95 OFFCURVE",
"350 -104 OFFCURVE",
"331 -105 CURVE"
);
}
);
width = 404;
},
{
layerId = UUID1;
paths = (
{
closed = 1;
nodes = (
"2 716 LINE",
"42 747 OFFCURVE",
"93 763 OFFCURVE",
"141 769 CURVE",
"455 -68 LINE",
"415 -99 OFFCURVE",
"364 -115 OFFCURVE",
"316 -121 CURVE"
);
}
);
width = 455;
}
);
unicode = 005C;
},
{
glyphname = slash;
lastChange = "2014-06-06 07:55:32 +0000";
layers = (
{
layerId = UUID0;
paths = (
{
closed = 1;
nodes = (
"11 -82 LINE",
"29 -96 OFFCURVE",
"53 -105 OFFCURVE",
"73 -105 CURVE",
"390 734 LINE",
"373 747 OFFCURVE",
"347 756 OFFCURVE",
"328 757 CURVE"
);
}
);
width = 404;
},
{
layerId = UUID1;
paths = (
{
closed = 1;
nodes = (
"0 -68 LINE",
"40 -99 OFFCURVE",
"91 -115 OFFCURVE",
"139 -121 CURVE",
"453 716 LINE",
"413 747 OFFCURVE",
"362 763 OFFCURVE",
"314 769 CURVE"
);
}
);
width = 455;
}
);
unicode = 002F;
},
{
glyphname = brokenbar;
lastChange = "2014-06-06 07:55:32 +0000";
layers = (
{
layerId = UUID0;
paths = (
{
closed = 1;
nodes = (
"87 -140 LINE",
"96 -142 OFFCURVE",
"108 -143 OFFCURVE",
"119 -143 CURVE SMOOTH",
"132 -143 OFFCURVE",
"143 -142 OFFCURVE",
"153 -140 CURVE",
"153 247 LINE",
"143 249 OFFCURVE",
"132 250 OFFCURVE",
"119 250 CURVE SMOOTH",
"108 250 OFFCURVE",
"96 249 OFFCURVE",
"87 247 CURVE"
);
},
{
closed = 1;
nodes = (
"87 388 LINE",
"96 386 OFFCURVE",
"108 385 OFFCURVE",
"119 385 CURVE SMOOTH",
"132 385 OFFCURVE",
"143 386 OFFCURVE",
"153 388 CURVE",
"153 775 LINE",
"143 777 OFFCURVE",
"132 778 OFFCURVE",
"119 778 CURVE SMOOTH",
"108 778 OFFCURVE",
"96 777 OFFCURVE",
"87 775 CURVE"
);
}
);
width = 240;
},
{
layerId = UUID1;
paths = (
{
closed = 1;
nodes = (
"58 -142 LINE",
"82 -148 OFFCURVE",
"118 -149 OFFCURVE",
"135 -149 CURVE SMOOTH",
"154 -149 OFFCURVE",
"183 -148 OFFCURVE",
"208 -142 CURVE",
"208 245 LINE",
"183 251 OFFCURVE",
"154 252 OFFCURVE",
"135 252 CURVE SMOOTH",
"118 252 OFFCURVE",
"82 251 OFFCURVE",
"58 245 CURVE"
);
},
{
closed = 1;
nodes = (
"58 386 LINE",
"82 380 OFFCURVE",
"118 379 OFFCURVE",
"135 379 CURVE SMOOTH",
"154 379 OFFCURVE",
"183 380 OFFCURVE",
"208 386 CURVE",
"208 773 LINE",
"183 779 OFFCURVE",
"154 780 OFFCURVE",
"135 780 CURVE SMOOTH",
"118 780 OFFCURVE",
"82 779 OFFCURVE",
"58 773 CURVE"
);
}
);
width = 266;
}
);
unicode = 00A6;
},
{
glyphname = bar;
lastChange = "2014-06-06 07:55:32 +0000";
layers = (
{
layerId = UUID0;
paths = (
{
closed = 1;
nodes = (
"90 -140 LINE",
"99 -142 OFFCURVE",
"111 -143 OFFCURVE",
"122 -143 CURVE SMOOTH",
"135 -143 OFFCURVE",
"146 -142 OFFCURVE",
"156 -140 CURVE",
"156 775 LINE",
"146 777 OFFCURVE",
"135 778 OFFCURVE",
"122 778 CURVE SMOOTH",
"111 778 OFFCURVE",
"99 777 OFFCURVE",
"90 775 CURVE"
);
}
);
width = 246;
},
{
layerId = UUID1;
paths = (
{
closed = 1;
nodes = (
"60 -142 LINE",
"84 -148 OFFCURVE",
"121 -149 OFFCURVE",
"138 -149 CURVE SMOOTH",
"157 -149 OFFCURVE",
"187 -148 OFFCURVE",
"212 -142 CURVE",
"212 773 LINE",
"187 779 OFFCURVE",
"157 780 OFFCURVE",
"138 780 CURVE SMOOTH",
"121 780 OFFCURVE",
"84 779 OFFCURVE",
"60 773 CURVE"
);
}
);
width = 272;
}
);
unicode = 007C;
},
{
glyphname = asciicircum;
lastChange = "2014-06-06 07:55:32 +0000";
layers = (
{
layerId = UUID0;
paths = (
{
closed = 1;
nodes = (
"303 648 LINE",
"283 653 OFFCURVE",
"247 653 OFFCURVE",
"227 648 CURVE",
"54 306 LINE",
"67 301 OFFCURVE",
"107 300 OFFCURVE",
"126 306 CURVE",
"230 518 LINE SMOOTH",
"242 543 OFFCURVE",
"252 565 OFFCURVE",
"262 588 CURVE",
"268 588 LINE",
"278 565 OFFCURVE",
"288 543 OFFCURVE",
"300 518 CURVE SMOOTH",
"404 306 LINE",
"423 300 OFFCURVE",
"463 301 OFFCURVE",
"476 306 CURVE"
);
}
);
width = 530;
},
{
layerId = UUID1;
paths = (
{
closed = 1;
nodes = (
"352 648 LINE",
"315 658 OFFCURVE",
"213 657 OFFCURVE",
"178 648 CURVE",
"26 306 LINE",
"66 297 OFFCURVE",
"141 296 OFFCURVE",
"181 306 CURVE",
"224 417 LINE SMOOTH",
"232 438 OFFCURVE",
"254 505 OFFCURVE",
"261 527 CURVE",
"269 527 LINE",
"276 505 OFFCURVE",
"298 438 OFFCURVE",
"306 417 CURVE SMOOTH",
"349 306 LINE",
"389 296 OFFCURVE",
"464 297 OFFCURVE",
"504 306 CURVE"
);
}
);
width = 530;
}
);
unicode = 005E;
},
{
glyphname = underscore;
lastChange = "2014-06-06 07:55:32 +0000";
layers = (
{
layerId = UUID0;
paths = (
{
closed = 1;
nodes = (
"507 -141 LINE",
"509 -134 OFFCURVE",
"510 -126 OFFCURVE",
"510 -113 CURVE",
"510 -99 OFFCURVE",
"509 -91 OFFCURVE",
"507 -83 CURVE",
"0 -83 LINE",
"-2 -91 OFFCURVE",
"-3 -99 OFFCURVE",
"-3 -113 CURVE SMOOTH",
"-3 -126 OFFCURVE",
"-2 -134 OFFCURVE",
"0 -141 CURVE"
);
}
);
width = 507;
},
{
layerId = UUID1;
paths = (
{
closed = 1;
nodes = (
"571 -180 LINE",
"576 -159 OFFCURVE",
"578 -142 OFFCURVE",
"578 -119 CURVE",
"578 -96 OFFCURVE",
"576 -80 OFFCURVE",
"571 -58 CURVE",
"-1 -58 LINE",
"-7 -80 OFFCURVE",
"-8 -109 OFFCURVE",
"-8 -119 CURVE SMOOTH",
"-8 -131 OFFCURVE",
"-7 -159 OFFCURVE",
"-1 -180 CURVE"
);
}
);
width = 570;
}
);
unicode = 005F;
},
